<?xml version="1.0" standalone="no"?> 
<!DOCTYPE svg PUBLIC "-//W3C//DTD SVG 1.1//EN" "http://www.w3.org/Graphics/SVG/1.1/DTD/svg11.dtd" >
<svg xmlns="http://www.w3.org/2000/svg">
<defs>
  <font id="Material Design Icons" horiz-adv-x="24">
    <font-face font-family="Material Design Icons"
      units-per-em="512" ascent="448"
      descent="64" />
    <missing-glyph horiz-adv-x="0" />
    <glyph glyph-name="access-point"
      unicode="&#xF002;"
      horiz-adv-x="512" d=" M105.1833333333333 342.8266666666668C66.56 304.2133333333334 42.6666666666668 250.88 42.6666666666668 192C42.6666666666668 133.12 66.56 89.8866666666668 105.1833333333333 41.1833333333333L135.2533333333333 81.2533333333333C104.32 101.9833333333334 85.3333333333333 144.64 85.3333333333333 192C85.3333333333333 239.1466666666668 104.32 282.0266666666668 135.2533333333333 312.8466666666668L105.1833333333333 342.8266666666668M406.8266666666668 342.8266666666668L386.8466666666668 312.8466666666668C408.68 282.0266666666668 426.6666666666668 239.1466666666668 426.6666666666668 192C426.6666666666668 144.64 408.68 101.9833333333334 386.8466666666668 81.2533333333333L406.8266666666668 41.1833333333333C445.44 89.8866666666666 469.3333333333333 133.12 469.3333333333333 192C469.3333333333333 250.88 445.44 304.2133333333334 406.8266666666668 342.8266666666668M165.5466666666668 282.4533333333334C142.2933333333333 259.2000000000001 128 228.2 128 192C128 156.8 142.2933333333333 124.8 165.5466666666668 101.5466666666666L195.6266666666668 131.6266666666668C180.2666666666668 146.9866666666668 180.6666666666668 168.3200000000001 180.6666666666668 192S180.2666666666668 238.0133333333333 195.6266666666668 252.3833333333334L165.5466666666668 282.4533333333334M346.4533333333334 282.4533333333334L316.3833333333334 252.3833333333334C331.8333333333334 238.0133333333333 341.3333333333333 215.68 341.3333333333333 192S331.8333333333334 146.9866666666668 316.3833333333334 131.6266666666668L346.4533333333333 101.5466666666668C369.8066666666666 124.8 384 156.8 384 192C384 228.2 369.8066666666666 259.2000000000001 346.4533333333333 282.4533333333334M256 234.6666666666668C232.5333333333334 234.6666666666668 213.3333333333333 215.4666666666668 213.3333333333333 192S232.5333333333334 149.3333333333334 256 149.3333333333334S298.6666666666668 168.5333333333334 298.6666666666668 192S289.4666666666668 234.6666666666668 256 234.6666666666668z" />
    <glyph glyph-name="access-point-network"
      unicode="&#xF003;"
      horiz-adv-x="512" d=" M105.1833333333333 385.4933333333334C66.56 346.88 42.6666666666668 293.5466666666668 42.6666666666668 234.6666666666668C42.6666666666668 185.8866666666668 66.56 122.4533333333334 105.1833333333333 83.84L135.2533333333333 113.92C104.32 144.64 85.3333333333333 188.3066666666668 85.3333333333333 234.6666666666668C85.3333333333333 281.8133333333334 104.32 324.6933333333334 135.2533333333333 355.4133333333334L105.1833333333333 385.4933333333334M406.8266666666668 385.4933333333334L386.8466666666668 355.4133333333334C408.68 324.6933333333334 426.6666666666668 281.8133333333334 426.6666666666668 234.6666666666668C426.6666666666668 188.3066666666668 408.68 144.6400000000001 386.8466666666668 113.92L406.8266666666668 83.84C445.44 122.4533333333334 469.3333333333333 185.8866666666668 469.3333333333333 234.6666666666668C469.3333333333333 293.5466666666668 445.44 346.88 406.8266666666668 385.4933333333334M165.5466666666668 325.12C142.2933333333333 301.8666666666668 128 269.8666666666668 128 234.6666666666668C128 199.4666666666668 142.2933333333333 168.4666666666668 165.5466666666668 144.2133333333334L195.6266666666668 184.2933333333334C180.2666666666668 189.6533333333334 180.6666666666668 210.9866666666668 180.6666666666668 234.6666666666668S180.2666666666668 289.68 195.6266666666668 295.04L165.5466666666668 325.12M346.4533333333334 325.12L316.3833333333334 295.04C331.8333333333334 289.68 341.3333333333333 258.3466666666668 341.3333333333333 234.6666666666668S331.8333333333334 189.6533333333334 316.3833333333334 184.2933333333334L346.4533333333333 144.2133333333334C369.8066666666666 168.4666666666668 384 199.4666666666668 384 234.6666666666668C384 269.8666666666668 369.8066666666666 301.8666666666668 346.4533333333333 325.12M256 288.3333333333334C232.5333333333334 288.3333333333334 213.3333333333333 258.1333333333334 213.3333333333333 234.6666666666668S232.5333333333334 192 256 192S298.6666666666668 211.2 298.6666666666668 234.6666666666668S289.4666666666668 288.3333333333334 256 288.3333333333334M234.6666666666668 149.3333333333334V64H213.3333333333333C201.6 64 192 54.4 192 42.6666666666668H42.6666666666668V0H192C192 -11.8333333333333 201.6 -21.3333333333333 213.3333333333333 -21.3333333333333H298.6666666666668C310.4 -21.3333333333333 320 -11.8333333333333 320 0H469.3333333333333V42.6666666666668H320C320 54.4 310.4 64 298.6666666666668 64H288.3333333333333V149.3333333333334H234.6666666666668z" />
    <glyph glyph-name="account"
      unicode="&#xF004;"
      horiz-adv-x="512" d=" M256 362.6666666666668C303.1466666666668 362.6666666666668 341.3333333333333 324.48 341.3333333333333 288.3333333333334S303.1466666666668 192 256 192S180.6666666666668 230.1866666666668 180.6666666666668 288.3333333333334S208.8533333333333 362.6666666666668 256 362.6666666666668M256 149.3333333333334C350.2933333333334 149.3333333333334 426.6666666666668 111.1466666666668 426.6666666666668 64V21.3333333333334H85.3333333333333V64C85.3333333333333 111.1466666666668 161.8066666666668 149.3333333333334 256 149.3333333333334z" />
    <glyph glyph-name="account-alert"
      unicode="&#xF005;"
      horiz-adv-x="512" d=" M213.3333333333333 362.6666666666668C260.48 362.6666666666668 298.6666666666668 324.48 298.6666666666668 288.3333333333334S260.48 192 213.3333333333333 192S128 230.1866666666668 128 288.3333333333334S166.1866666666668 362.6666666666668 213.3333333333333 362.6666666666668M213.3333333333333 149.3333333333334C308.6266666666668 149.3333333333334 384 111.1466666666668 384 64V21.3333333333334H42.6666666666668V64C42.6666666666668 111.1466666666668 119.04 149.3333333333334 213.3333333333333 149.3333333333334M426.6666666666668 192V298.6666666666668H469.3333333333333V192H426.6666666666668M426.6666666666668 106.6666666666668V149.3333333333334H469.3333333333333V106.6666666666668H426.6666666666668z" />
    <glyph glyph-name="account-box"
      unicode="&#xF006;"
      horiz-adv-x="512" d=" M128 85.3333333333334C128 128 213.3333333333333 151.4666666666668 256 151.4666666666668S384 128 384 85.3333333333334V64H128M320 256C320 220.5866666666668 291.4133333333333 192 256 192S192 220.5866666666668 192 256S220.5866666666668 320 256 320S320 291.4133333333334 320 256M64 341.3333333333334V42.6666666666668C64 19.2 83.2 0 106.6666666666668 0H405.3333333333333C428.8 0 448 19.2 448 42.6666666666668V341.3333333333334C448 364.8 428.8 384 405.3333333333333 384H106.6666666666668C82.9866666666668 384 64 364.8 64 341.3333333333334z" />
    <glyph glyph-name="account-box-multiple"
      unicode="&#xF933;"
      horiz-adv-x="512" d=" M85.3333333333333 320H42.6666666666668V21.3333333333334C42.6666666666668 -2.1333333333333 61.8666666666668 -21.3333333333333 85.3333333333333 -21.3333333333333H384V21.3333333333334H85.3333333333333V320M426.6666666666668 405.3333333333333C450.1333333333334 405.3333333333333 469.3333333333333 386.1333333333334 469.3333333333333 362.6666666666668V106.6666666666668C469.3333333333333 83.2 450.1333333333334 64 426.6666666666668 64H180.6666666666668C148.2 64 128 83.2 128 106.6666666666668V362.6666666666668C128 386.1333333333334 148.2 405.3333333333333 180.6666666666668 405.3333333333333H426.6666666666668M362.6666666666668 298.6666666666668C362.6666666666668 334.0800000000001 334.08 362.6666666666668 298.6666666666668 362.6666666666668S234.6666666666668 334.0800000000001 234.6666666666668 298.6666666666668S263.2533333333334 234.6666666666668 298.6666666666668 234.6666666666668S362.6666666666668 263.2533333333334 362.6666666666668 298.6666666666668M180.6666666666668 128V106.6666666666668H426.6666666666668V128C426.6666666666668 180.6666666666668 341.3333333333333 194.1333333333333 298.6666666666668 194.1333333333333S180.6666666666668 180.6666666666668 180.6666666666668 128z" />
    <glyph glyph-name="account-box-outline"
      unicode="&#xF008;"
      horiz-adv-x="512" d=" M405.3333333333333 42.6666666666668H106.6666666666668V341.3333333333334H405.3333333333333M405.3333333333333 384H106.6666666666668C83.2 384 64 364.8 64 341.3333333333334V42.6666666666668C64 19.2 83.2 0 106.6666666666668 0H405.3333333333333C428.8 0 448 19.2 448 42.6666666666668V341.3333333333334C448 365.0133333333333 428.8 384 405.3333333333333 384M352 101.3333333333334C352 133.3333333333334 288 149.3333333333334 256 149.3333333333334S160 133.3333333333334 160 101.3333333333334V85.3333333333334H352M256 186.6666666666668C282.4533333333333 186.6666666666668 304 208.2133333333334 304 234.6666666666668S282.4533333333333 282.6666666666668 256 282.6666666666668S208 261.12 208 234.6666666666668S229.5466666666668 186.6666666666668 256 186.6666666666668z" />
    <glyph glyph-name="account-card-details"
      unicode="&#xF5D2;"
      horiz-adv-x="512" d=" M42.6666666666668 384H469.3333333333333C491.8333333333333 384 512 363.8333333333334 512 341.3333333333334V42.6666666666668C512 20.2666666666668 491.8333333333333 0 469.3333333333333 0H42.6666666666668C20.2666666666668 0 0 20.2666666666668 0 42.6666666666668V341.3333333333334C0 363.8333333333334 20.2666666666668 384 42.6666666666668 384M298.6666666666668 320V298.6666666666668H469.3333333333333V320H298.6666666666668M298.6666666666668 288.3333333333334V256H469.3333333333333V288.3333333333334H298.6666666666668M298.6666666666668 234.6666666666668V213.3333333333334H448V234.6666666666668H298.6666666666668M180.6666666666668 151.2533333333333C128 151.2533333333333 42.6666666666668 128 42.6666666666668 85.3333333333334V64H298.6666666666668V85.3333333333334C298.6666666666668 128 213.3333333333333 151.2533333333333 180.6666666666668 151.2533333333333M180.6666666666668 320C135.2533333333333 320 106.6666666666668 291.4133333333334 106.6666666666668 256S135.2533333333333 192 180.6666666666668 192S234.6666666666668 220.5866666666668 234.6666666666668 256S206.08 320 180.6666666666668 320z" />
    <glyph glyph-name="account-check"
      unicode="&#xF008;"
      horiz-adv-x="512" d=" M192 341.3333333333334C233.1833333333333 341.3333333333334 266.6666666666668 308.8400000000001 266.6666666666668 266.6666666666668S233.1833333333333 192 192 192S118.3333333333333 225.4933333333334 118.3333333333333 266.6666666666668S150.8266666666668 341.3333333333334 192 341.3333333333334M192 154.6666666666668C284.56 154.6666666666668 341.3333333333333 121.1833333333334 341.3333333333333 80V42.6666666666668H42.6666666666668V80C42.6666666666668 121.1833333333334 109.44 154.6666666666668 192 154.6666666666668M362.6666666666668 188.92L304 241.92L328.8466666666668 266.6666666666668L362.6666666666668 232.8466666666668L439.2533333333334 309.3333333333334L464 289.2533333333334L362.6666666666668 188.92z" />
    <glyph glyph-name="account-circle"
      unicode="&#xF009;"
      horiz-adv-x="512" d=" M256 38.4C202.6666666666668 38.4 155.52 65.8066666666668 128 106.6666666666668C128.64 149.3333333333334 213.3333333333333 182.8 256 182.8S383.36 149.3333333333334 384 106.6666666666668C356.48 65.8066666666668 309.3333333333333 38.4 256 38.4M256 341.3333333333334C291.4133333333333 341.3333333333334 320 312.8466666666668 320 288.3333333333334S291.4133333333333 213.3333333333334 256 213.3333333333334S192 241.92 192 288.3333333333334S220.5866666666668 341.3333333333334 256 341.3333333333334M256 405.3333333333333C138.24 405.3333333333333 42.6666666666668 309.86 42.6666666666668 192S138.24 -21.3333333333333 256 -21.3333333333333S469.3333333333333 84.24 469.3333333333333 192C469.3333333333333 309.9833333333334 383.3333333333333 405.3333333333333 256 405.3333333333333z" />
    <glyph glyph-name="account-convert"
      unicode="&#xF00A;"
      horiz-adv-x="512" d=" M160 -10.6666666666666L188.8 18.92L280.08 -63.36L256 -64C121.8133333333333 -64 11.9466666666668 39.2533333333333 1.0666666666668 180.6666666666668H33.0666666666668C40.8466666666668 90.4533333333334 90.6666666666668 22.6133333333333 160 -10.6666666666666M352 394.6666666666668L323.2 366.0800000000001L241.92 448.36L256 448C390.1866666666666 448 500.0533333333333 344.8466666666668 510.9333333333333 213.3333333333334H488.9333333333333C481.2533333333333 293.5466666666668 421.3333333333333 361.1833333333334 352 394.6666666666668M128 85.3333333333334C128 128 213.3333333333333 151.4666666666668 256 151.4666666666668S384 128 384 85.3333333333334V64H128V85.3333333333334M320 256C320 220.5866666666668 291.4133333333333 192 256 192S192 220.5866666666668 192 256S220.5866666666668 320 256 320S320 291.4133333333334 320 256z" />
    <glyph glyph-name="account-edit"
      unicode="&#xF6BB;"
      horiz-adv-x="512" d=" M462.9333333333333 163.2000000000001L441.6 141.8666666666668L398.8666666666666 185.6L419.2 206.9333333333333C423.68 211.4133333333334 431.1466666666666 211.4133333333334 435.6266666666666 206.9333333333333L462.9333333333333 189.6266666666668C468.4133333333333 185.1466666666668 468.4133333333333 168.68 462.9333333333333 163.2000000000001M256 43.9466666666668L385.28 183.2266666666666L429.0133333333333 129.4933333333333L299.9466666666668 0H256V43.9466666666668M256 149.3333333333334C161.8066666666668 149.3333333333334 85.3333333333333 111.1466666666668 85.3333333333333 64V21.3333333333334H213.3333333333333V61.6533333333334L298.6666666666668 146.9866666666668C284.5866666666668 148.6933333333334 280.2933333333333 149.3333333333334 256 149.3333333333334M256 362.6666666666668C208.8533333333333 362.6666666666668 180.6666666666668 324.48 180.6666666666668 288.3333333333334S208.8533333333333 192 256 192S341.3333333333333 230.1866666666668 341.3333333333333 288.3333333333334S303.1466666666668 362.6666666666668 256 362.6666666666668z" />
    <glyph glyph-name="account-group"
      unicode="&#xF848;"
      horiz-adv-x="512" d=" M256 320C220.5866666666668 320 192 291.4133333333334 192 256S220.5866666666668 192 256 192S320 220.5866666666668 320 256S291.4133333333333 320 256 320M128 283.8066666666668C98.56 283.8066666666668 84.6666666666668 249.8133333333334 84.6666666666668 220.3833333333333S98.56 168.04 128 168.04C146.8833333333333 168.04 163.2 186.8533333333334 182.5866666666668 191.36C158.2933333333333 209.4933333333334 149.3333333333333 231.4666666666668 149.3333333333333 256C149.3333333333333 260.2666666666668 149.3333333333333 264.5333333333334 150.1866666666668 268.8C143.36 282 135.8933333333333 283.8066666666668 128 283.8066666666668M384 283.8066666666668C386.1066666666668 283.8066666666668 368.64 282 361.8133333333334 268.8C362.6666666666668 264.5333333333334 362.6666666666668 260.2666666666668 362.6666666666668 256C362.6666666666668 231.4666666666668 353.8066666666666 209.4933333333334 339.4133333333333 191.36C348.8 186.8533333333334 365.2266666666668 168.04 384 168.04C413.44 168.04 438.3333333333333 190.9333333333333 438.3333333333333 220.3833333333333S413.44 283.8066666666668 384 283.8066666666668M256 149.3333333333334C213.3333333333333 149.3333333333334 128 128 128 85.3333333333334V42.6666666666668H384V85.3333333333334C384 128 298.6666666666668 149.3333333333334 256 149.3333333333334M99.6266666666668 128.64C64 122.4533333333334 21.3333333333333 105.8133333333334 21.3333333333333 88.2933333333334V42.6666666666668H85.3333333333333V85.3333333333334C85.3333333333333 101.9833333333334 91.52 116.6933333333334 99.6266666666668 128.64M412.3833333333333 128.64C420.4899999999999 116.6933333333333 426.6666666666668 101.9833333333334 426.6666666666668 85.3333333333334V42.6666666666668H490.6666666666666V88.2933333333334C490.6666666666666 105.8133333333334 448 122.4533333333334 412.3833333333333 128.6400000000001z" />
    <glyph glyph-name="account-heart"
      unicode="&#xF898;"
      horiz-adv-x="512" d=" M320 149.3333333333334C262.4 149.3333333333334 149.3333333333333 121.6 149.3333333333333 64V21.3333333333334H490.6666666666666V64C490.6666666666666 121.6 388.6 149.3333333333334 320 149.3333333333334M320 192C368.1466666666668 192 405.3333333333333 230.1866666666668 405.3333333333333 288.3333333333334S368.1466666666668 362.6666666666668 320 362.6666666666668S234.6666666666668 324.48 234.6666666666668 288.3333333333334S282.8533333333333 192 320 192M106.6666666666668 128L93.8666666666668 138.6666666666668C51.2 189.2000000000001 21.3333333333333 204.8 21.3333333333333 236.8C21.3333333333333 262.4 42.6666666666668 283.8333333333334 68.2666666666668 283.8333333333334C83.2 283.8333333333334 98.1333333333333 288.3333333333334 106.6666666666668 266.6666666666668C115.2 288.3333333333334 130.1333333333333 283.8333333333334 145.0666666666668 283.8333333333334C180.6666666666668 283.8333333333334 192 264.5333333333334 192 236.8C192 204.8 162.1333333333333 189.2 119.4666666666668 138.6666666666668L106.6666666666668 128z" />
    <glyph glyph-name="account-key"
      unicode="&#xF00B;"
      horiz-adv-x="512" d=" M234.6666666666668 234.6666666666668V192H213.3333333333333V149.3333333333334H180.6666666666668V192H124.3833333333333C115.6266666666668 168.04 91.9466666666668 149.3333333333334 64 149.3333333333334C28.5866666666668 149.3333333333334 0 188.92 0 213.3333333333334S28.5866666666668 288.3333333333334 64 288.3333333333334C91.9466666666668 288.3333333333334 115.6266666666668 259.6266666666668 124.3833333333333 234.6666666666668H234.6666666666668M64 234.6666666666668C52.2666666666668 234.6666666666668 42.6666666666668 225.0666666666668 42.6666666666668 213.3333333333334S52.2666666666668 192 64 192S85.3333333333333 201.6 85.3333333333333 213.3333333333334S85.8333333333333 234.6666666666668 64 234.6666666666668M341.3333333333333 149.3333333333334C398.2933333333334 149.3333333333334 512 120.8466666666668 512 64V21.3333333333334H180.6666666666668V64C180.6666666666668 120.8466666666668 284.3833333333334 149.3333333333334 341.3333333333333 149.3333333333334M341.3333333333333 192C294.1866666666666 192 256 230.1866666666668 256 288.3333333333334S294.1866666666666 362.6666666666668 341.3333333333333 362.6666666666668S426.6666666666668 324.48 426.6666666666668 288.3333333333334S388.48 192 341.3333333333333 192z" />
    <glyph glyph-name="account-location"
      unicode="&#xF00C;"
      horiz-adv-x="512" d=" M384 106.6666666666668H128V125.8666666666668C128 168.5333333333334 213.3333333333333 192 256 192S384 168.5333333333334 384 125.8666666666668M256 334.9333333333334C288 334.9333333333334 313.6 309.3333333333334 313.6 288.3333333333334C313.6 245.3333333333334 288 219.8333333333334 256 219.8333333333334C224 219.8333333333334 198.4 245.3333333333334 198.4 288.3333333333334C198.4 309.3333333333334 224 334.9333333333334 256 334.9333333333334M405.3333333333333 405.3333333333333H106.6666666666668C82.9866666666668 405.3333333333333 64 386.3466666666668 64 362.6666666666668V64C64 40.5333333333333 83.2 21.3333333333334 106.6666666666668 21.3333333333334H192L256 -42.6666666666666L320 21.3333333333334H405.3333333333333C428.8 21.3333333333334 448 40.5333333333333 448 64V362.6666666666668C448 386.3466666666668 428.8 405.3333333333333 405.3333333333333 405.3333333333333z" />
    <glyph glyph-name="account-minus"
      unicode="&#xF00D;"
      horiz-adv-x="512" d=" M320 149.3333333333334C263.04 149.3333333333334 149.3333333333333 120.96 149.3333333333333 64V21.3333333333334H490.6666666666666V64C490.6666666666666 120.96 386.9600000000001 149.3333333333334 320 149.3333333333334M21.3333333333333 234.6666666666668V192H192V234.6666666666668M320 192C368.1466666666668 192 405.3333333333333 230.1866666666668 405.3333333333333 288.3333333333334S368.1466666666668 362.6666666666668 320 362.6666666666668S234.6666666666668 324.48 234.6666666666668 288.3333333333334S282.8533333333333 192 320 192z" />
    <glyph glyph-name="account-multiple"
      unicode="&#xF00E;"
      horiz-adv-x="512" d=" M341.3333333333333 180.6666666666668C335.1466666666668 180.6666666666668 328.1066666666668 180.6666666666668 320.64 169.6C345.3866666666668 151.68 362.6666666666668 128 362.6666666666668 96V42.6666666666668H490.6666666666666V96C490.6666666666666 145.8066666666668 391.04 180.6666666666668 341.3333333333333 180.6666666666668M180.6666666666668 180.6666666666668C120.96 180.6666666666668 21.3333333333333 145.8066666666668 21.3333333333333 96V42.6666666666668H320V96C320 145.8066666666668 220.3833333333333 180.6666666666668 180.6666666666668 180.6666666666668M180.6666666666668 213.3333333333334C206.08 213.3333333333334 234.6666666666668 241.92 234.6666666666668 288.3333333333334S206.08 341.3333333333334 180.6666666666668 341.3333333333334S106.6666666666668 312.8466666666668 106.6666666666668 288.3333333333334S135.2533333333333 213.3333333333334 180.6666666666668 213.3333333333334M341.3333333333333 213.3333333333334C386.8466666666668 213.3333333333334 405.3333333333333 241.92 405.3333333333333 288.3333333333334S386.8466666666668 341.3333333333334 341.3333333333333 341.3333333333334S288.3333333333333 312.8466666666668 288.3333333333333 288.3333333333334S305.92 213.3333333333334 341.3333333333333 213.3333333333334z" />
    <glyph glyph-name="account-multiple-check"
      unicode="&#xF8C4;"
      horiz-adv-x="512" d=" M481.92 289.04L506.6666666666666 248.96L405.3333333333333 148.6266666666668L346.6666666666668 211.6266666666668L381.4133333333333 236.3833333333334L405.3333333333333 202.6666666666668L481.92 289.04M128 341.3333333333334C163.4133333333333 341.3333333333334 192 312.8466666666668 192 288.3333333333334S163.4133333333333 213.3333333333334 128 213.3333333333334S64 241.92 64 288.3333333333334S92.5866666666668 341.3333333333334 128 341.3333333333334M234.6666666666668 341.3333333333334C280.08 341.3333333333334 298.6666666666668 312.8466666666668 298.6666666666668 288.3333333333334S280.08 213.3333333333334 234.6666666666668 213.3333333333334C228.84 213.3333333333334 221.2266666666666 214.4 215.04 216.5333333333334C228.2 233.8133333333334 234.6666666666668 254.8200000000001 234.6666666666668 288.3333333333334S228.2 321.0666666666668 215.04 338.3466666666668C221.2266666666666 340.2666666666668 228.84 341.3333333333333 234.6666666666668 341.3333333333333M128 180.6666666666668C180.6666666666668 180.6666666666668 256 149.3333333333334 256 106.6666666666668V64H0V106.6666666666668C0 149.3333333333334 85.3333333333333 180.6666666666668 128 180.6666666666668M269.2266666666668 168.2533333333333C312.1066666666668 160 362.6666666666668 139.52 362.6666666666668 106.6666666666668V64H298.6666666666668V106.6666666666668C298.6666666666668 131.84 286.9333333333333 151.8933333333334 269.2266666666668 168.2533333333333z" />
    <glyph glyph-name="account-multiple-minus"
      unicode="&#xF5D3;"
      horiz-adv-x="512" d=" M288.3333333333333 180.6666666666668C234.6666666666668 180.6666666666668 149.3333333333333 149.3333333333334 149.3333333333333 106.6666666666668V64H405.3333333333333V106.6666666666668C405.3333333333333 149.3333333333334 320 180.6666666666668 288.3333333333333 180.6666666666668M418.56 168.2533333333333C436.2666666666668 151.8933333333333 448 131.84 448 106.6666666666668V64H512V106.6666666666668C512 139.52 461.4399999999999 160 418.56 168.2533333333333M288.3333333333333 213.3333333333334C312.8466666666668 213.3333333333334 341.3333333333333 241.92 341.3333333333333 288.3333333333334S312.8466666666668 341.3333333333334 288.3333333333333 341.3333333333334S213.3333333333333 312.8466666666668 213.3333333333333 288.3333333333334S241.92 213.3333333333334 288.3333333333333 213.3333333333334M384 213.3333333333334C419.4133333333333 213.3333333333334 448 241.92 448 288.3333333333334S419.4133333333333 341.3333333333334 384 341.3333333333334C388.1833333333333 341.3333333333334 380.56 340.2666666666668 364.3833333333333 338.3466666666668C386.5333333333333 321.0666666666668 384 299.9466666666668 384 288.3333333333334C384 254.82 386.5333333333333 233.8133333333334 364.3833333333333 216.5333333333334C380.56 214.4 388.1833333333333 213.3333333333334 384 213.3333333333334M180.6666666666668 234.6666666666668H0V192H180.6666666666668V234.6666666666668z" />
    <glyph glyph-name="account-multiple-outline"
      unicode="&#xF00F;"
      horiz-adv-x="512" d=" M352 309.3333333333334C385.4666666666668 309.3333333333334 394.6666666666668 290.1333333333334 394.6666666666668 266.6666666666668S385.4666666666668 224 352 224S309.3333333333333 243.2 309.3333333333333 266.6666666666668S328.5333333333333 309.3333333333334 352 309.3333333333334M352 192C393.1833333333333 192 426.6666666666668 225.4933333333334 426.6666666666668 266.6666666666668S393.1833333333333 341.3333333333334 352 341.3333333333334S288.3333333333333 308.8400000000001 288.3333333333333 266.6666666666668S310.8266666666668 192 352 192M160 309.3333333333334C183.4666666666668 309.3333333333334 202.6666666666668 290.1333333333334 202.6666666666668 266.6666666666668S183.4666666666668 224 160 224S118.3333333333333 243.2 118.3333333333333 266.6666666666668S136.5333333333333 309.3333333333334 160 309.3333333333334M160 192C201.1833333333333 192 234.6666666666668 225.4933333333334 234.6666666666668 266.6666666666668S201.1833333333333 341.3333333333334 160 341.3333333333334S85.3333333333333 308.8400000000001 85.3333333333333 266.6666666666668S118.8266666666668 192 160 192M458.6666666666666 84.6666666666668H298.6666666666668V101.3333333333334C298.6666666666668 111.1466666666668 294.4 119.68 288 128.36C306.3466666666668 133.8600000000001 329.3866666666668 138.6666666666668 352 138.6666666666668C404.0533333333334 138.6666666666668 458.6666666666666 112.8533333333334 458.6666666666666 101.3333333333334M266.6666666666668 84.6666666666668H53.3333333333333V101.3333333333334C53.3333333333333 112.8533333333334 108.9466666666668 138.6666666666668 160 138.6666666666668S266.6666666666668 112.8533333333334 266.6666666666668 101.3333333333334M352 180.6666666666668C326.4 180.6666666666668 286.5066666666668 163.4133333333334 256 149.3333333333334C225.4933333333334 163.6266666666668 185.6 180.6666666666668 160 180.6666666666668C113.8066666666668 180.6666666666668 21.3333333333333 148.6266666666668 21.3333333333333 101.3333333333334V42.6666666666668H490.6666666666666V101.3333333333334C490.6666666666666 148.6266666666668 398.2933333333334 180.6666666666668 352 180.6666666666668z" />
    <glyph glyph-name="account-multiple-plus"
      unicode="&#xF010;"
      horiz-adv-x="512" d=" M288.3333333333333 180.6666666666668C234.6666666666668 180.6666666666668 149.3333333333333 149.3333333333334 149.3333333333333 106.6666666666668V64H405.3333333333333V106.6666666666668C405.3333333333333 149.3333333333334 320 180.6666666666668 288.3333333333333 180.6666666666668M418.56 168.2533333333333C436.2666666666668 151.8933333333333 448 131.84 448 106.6666666666668V64H512V106.6666666666668C512 139.52 461.4399999999999 160 418.56 168.2533333333333M288.3333333333333 213.3333333333334C312.8466666666668 213.3333333333334 341.3333333333333 241.92 341.3333333333333 288.3333333333334S312.8466666666668 341.3333333333334 288.3333333333333 341.3333333333334S213.3333333333333 312.8466666666668 213.3333333333333 288.3333333333334S241.92 213.3333333333334 288.3333333333333 213.3333333333334M384 213.3333333333334C419.4133333333333 213.3333333333334 448 241.92 448 288.3333333333334S419.4133333333333 341.3333333333334 384 341.3333333333334C388.1833333333333 341.3333333333334 380.56 340.2666666666668 364.3833333333333 338.3466666666668C386.5333333333333 321.0666666666668 384 299.9466666666668 384 288.3333333333334C384 254.82 386.5333333333333 233.8133333333334 364.3833333333333 216.5333333333334C380.56 214.4 388.1833333333333 213.3333333333334 384 213.3333333333334M180.6666666666668 234.6666666666668H106.6666666666668V298.6666666666668H64V234.6666666666668H0V192H64V128H106.6666666666668V192H180.6666666666668V234.6666666666668z" />
    <glyph glyph-name="account-multiple-plus-outline"
      unicode="&#xF8FF;"
      horiz-adv-x="512" d=" M288 341.3333333333334C246.8266666666668 341.3333333333334 213.3333333333333 308.8400000000001 213.3333333333333 266.6666666666668S246.8266666666668 192 288 192C304 192 318.82 198.12 330.6666666666668 205.6533333333334C342.8266666666668 198.12 358.5466666666668 192 383.3333333333333 192C414.5066666666668 192 448 225.4933333333334 448 266.6666666666668S414.5066666666668 341.3333333333334 383.3333333333333 341.3333333333334C358.5466666666668 341.3333333333334 343.04 336 330.6666666666668 328.4666666666668C318.9333333333333 336.2133333333334 304 341.3333333333334 288 341.3333333333334M288 309.3333333333334C311.4666666666668 309.3333333333334 330.6666666666668 290.1333333333334 330.6666666666668 266.6666666666668S311.4666666666668 224 288 224S245.3333333333333 243.2 245.3333333333333 266.6666666666668S264.5333333333333 309.3333333333334 288 309.3333333333334M383.3333333333333 309.3333333333334C396.8 309.3333333333334 416 290.1333333333334 416 266.6666666666668S396.8 224 383.3333333333333 224C365.6533333333333 224 358.6133333333333 226.1333333333334 352 229.86C358.8266666666668 240.64 362.6666666666668 253.2266666666668 362.6666666666668 266.6666666666668C362.6666666666668 280.1066666666668 358.8266666666668 292.6933333333334 352 303.5833333333334C358.6133333333333 308.2000000000001 365.6533333333333 309.3333333333334 383.3333333333333 309.3333333333334M64 288.3333333333334V213.3333333333334H0V180.6666666666668H64V106.6666666666668H106.6666666666668V180.6666666666668H180.6666666666668V213.3333333333334H106.6666666666668V288.3333333333334H64M288 180.6666666666668C241.8066666666668 180.6666666666668 149.3333333333333 148.6266666666668 149.3333333333333 101.3333333333334V42.6666666666668H512V101.3333333333334C512 148.6266666666668 419.6266666666668 180.6666666666668 383.3333333333333 180.6666666666668C361.6 180.6666666666668 346.6666666666668 168.96 330.6666666666668 165.9833333333334C315.3066666666666 168.96 300.16 180.6666666666668 288 180.6666666666668M288 138.6666666666668C340.0533333333333 138.6666666666668 394.6666666666668 112.8533333333334 394.6666666666668 101.3333333333334V84.6666666666668H181.3333333333333V101.3333333333334C181.3333333333333 112.8533333333334 235.9466666666668 138.6666666666668 288 138.6666666666668M408.04 135.2533333333333C446.5066666666668 128 480 110.2933333333334 480 101.3333333333334V84.6666666666668H426.6666666666668V101.3333333333334C426.6666666666668 114.56 418.9866666666668 125.8666666666668 408.04 135.2533333333333z" />
    <glyph glyph-name="account-network"
      unicode="&#xF011;"
      horiz-adv-x="512" d=" M288.3333333333333 106.6666666666668V64H298.6666666666668C310.4 64 320 54.4 320 42.6666666666668H469.3333333333333V0H320C320 -11.8333333333333 310.4 -21.3333333333333 298.6666666666668 -21.3333333333333H213.3333333333333C201.6 -21.3333333333333 192 -11.8333333333333 192 0H42.6666666666668V42.6666666666668H192C192 54.4 201.6 64 213.3333333333333 64H234.6666666666668V106.6666666666668H106.6666666666668V138.6666666666668C106.6666666666668 189.84 183.44 213.3333333333334 256 213.3333333333334S405.3333333333333 189.84 405.3333333333333 138.6666666666668V106.6666666666668H288.3333333333333M256 405.3333333333333C298.1833333333333 405.3333333333333 330.6666666666668 381.8400000000001 330.6666666666668 330.6666666666668S298.1833333333333 256 256 256S181.3333333333333 289.4933333333334 181.3333333333333 330.6666666666668S214.8266666666668 405.3333333333333 256 405.3333333333333z" />
    <glyph glyph-name="account-off"
      unicode="&#xF012;"
      horiz-adv-x="512" d=" M256 362.6666666666668C303.1466666666668 362.6666666666668 341.3333333333333 324.48 341.3333333333333 288.3333333333334C341.3333333333333 235.8333333333334 311.4666666666668 200.96 282 193.4933333333334L182.16 293.3333333333334C189.6266666666668 332.8 214.4 362.6666666666668 256 362.6666666666668M261.9833333333333 149.3333333333334L389.9833333333334 21.3333333333334L426.6666666666668 -15.36L399.5833333333333 -42.6666666666666L335.5833333333333 21.3333333333334H85.3333333333333V64C85.3333333333333 103.2533333333333 138.6666666666668 136.3200000000001 210.56 146.3466666666668L59.3066666666668 298.6L86.4 324.6933333333334L261.9833333333333 149.3333333333334M426.6666666666668 64V38.8266666666668L322.9866666666668 142.5066666666668C384 129.4933333333334 426.6666666666668 99.2 426.6666666666668 64z" />
    <glyph glyph-name="account-outline"
      unicode="&#xF013;"
      horiz-adv-x="512" d=" M256 180.6666666666668C199.04 180.6666666666668 85.3333333333333 142.2933333333334 85.3333333333333 85.3333333333334V21.3333333333334H426.6666666666668V85.3333333333334C426.6666666666668 142.2933333333334 312.96 180.6666666666668 256 180.6666666666668M256 362.6666666666668C208.8533333333333 362.6666666666668 180.6666666666668 324.48 180.6666666666668 288.3333333333334S208.8533333333333 192 256 192S341.3333333333333 230.1866666666668 341.3333333333333 288.3333333333334S303.1466666666668 362.6666666666668 256 362.6666666666668M256 130.1333333333333C319.36 130.1333333333333 386.1333333333334 98.9866666666668 386.1333333333334 85.3333333333334V61.8666666666668H125.8666666666668V85.3333333333334C125.8666666666668 98.9866666666668 192 130.1333333333333 256 130.1333333333333M256 322.1333333333334C280.8466666666668 322.1333333333334 300.8 302.0800000000001 300.8 288.3333333333334C300.8 252.5866666666668 280.8466666666668 232.5333333333334 256 232.5333333333334C231.2533333333334 232.5333333333334 211.2 252.5866666666668 211.2 288.3333333333334C211.2 302.0800000000001 231.2533333333334 322.1333333333334 256 322.1333333333334z" />
    <glyph glyph-name="account-plus"
      unicode="&#xF014;"
      horiz-adv-x="512" d=" M320 149.3333333333334C263.04 149.3333333333334 149.3333333333333 120.96 149.3333333333333 64V21.3333333333334H490.6666666666666V64C490.6666666666666 120.96 386.9600000000001 149.3333333333334 320 149.3333333333334M128 234.6666666666668V298.6666666666668H85.3333333333333V234.6666666666668H21.3333333333333V192H85.3333333333333V128H128V192H192V234.6666666666668M320 192C368.1466666666668 192 405.3333333333333 230.1866666666668 405.3333333333333 288.3333333333334S368.1466666666668 362.6666666666668 320 362.6666666666668S234.6666666666668 324.48 234.6666666666668 288.3333333333334S282.8533333333333 192 320 192z" />
    <glyph glyph-name="account-plus-outline"
      unicode="&#xF800;"
      horiz-adv-x="512" d=" M320 362.6666666666668C282.8533333333333 362.6666666666668 234.6666666666668 324.48 234.6666666666668 288.3333333333334S282.8533333333333 192 320 192S405.3333333333333 230.1866666666668 405.3333333333333 288.3333333333334S368.1466666666668 362.6666666666668 320 362.6666666666668M320 322.1333333333334C344.8466666666668 322.1333333333334 364.8 302.0800000000001 364.8 288.3333333333334C364.8 252.5866666666668 344.8466666666668 232.5333333333334 320 232.5333333333334C295.2533333333334 232.5333333333334 285.2000000000001 252.5866666666668 285.2000000000001 288.3333333333334C285.2000000000001 302.0800000000001 295.2533333333334 322.1333333333334 320 322.1333333333334M85.3333333333333 298.6666666666668V234.6666666666668H21.3333333333333V192H85.3333333333333V128H128V192H192V234.6666666666668H128V298.6666666666668H85.3333333333333M320 180.6666666666668C263.04 180.6666666666668 149.3333333333333 142.2933333333334 149.3333333333333 85.3333333333334V21.3333333333334H490.6666666666666V85.3333333333334C490.6666666666666 142.2933333333334 386.9600000000001 180.6666666666668 320 180.6666666666668M320 130.1333333333333C383.36 130.1333333333333 450.1333333333334 98.9866666666668 450.1333333333334 85.3333333333334V61.8666666666668H189.8666666666668V85.3333333333334C189.8666666666668 98.9866666666668 256 130.1333333333333 320 130.1333333333333z" />
    <glyph glyph-name="account-remove"
      unicode="&#xF015;"
      horiz-adv-x="512" d=" M320 149.3333333333334C386.9600000000001 149.3333333333334 490.6666666666666 120.96 490.6666666666666 64V21.3333333333334H149.3333333333333V64C149.3333333333333 120.96 263.04 149.3333333333334 320 149.3333333333334M320 192C282.8533333333333 192 234.6666666666668 230.1866666666668 234.6666666666668 288.3333333333334S282.8533333333333 362.6666666666668 320 362.6666666666668S405.3333333333333 324.48 405.3333333333333 288.3333333333334S368.1466666666668 192 320 192M106.6666666666668 243.4133333333334L151.8933333333333 288.8533333333334L182.1866666666668 258.5600000000001L136.8466666666668 213.3333333333334L182.1866666666668 168.1066666666668L151.8933333333333 138.8133333333333L106.6666666666668 183.2533333333333L61.44 138.8133333333334L31.1466666666668 168.1066666666668L86.5866666666668 213.3333333333334L31.1466666666668 258.56L61.44 288.8533333333334L106.6666666666668 243.4133333333334z" />
    <glyph glyph-name="account-search"
      unicode="&#xF016;"
      horiz-adv-x="512" d=" M330.6666666666668 192C384 192 426.6666666666668 149.3333333333334 426.6666666666668 96C426.6666666666668 88.2266666666668 421.3333333333333 59.52 411.9466666666666 44.8000000000001L488.6533333333333 -21.3333333333333L448 -50.9866666666668L381.44 14.5066666666668C366.8199999999999 5.3333333333334 349.2266666666666 0 330.6666666666668 0C288.3333333333333 0 234.6666666666668 42.6666666666668 234.6666666666668 96S288.3333333333333 192 330.6666666666668 192M330.6666666666668 149.3333333333334C301.2266666666668 149.3333333333334 288.3333333333333 125.44 288.3333333333333 96S301.2266666666668 42.6666666666668 330.6666666666668 42.6666666666668S384 66.5600000000001 384 96S360.1066666666668 149.3333333333334 330.6666666666668 149.3333333333334M213.3333333333333 362.6666666666668C260.48 362.6666666666668 298.6666666666668 324.48 298.6666666666668 288.3333333333334C298.6666666666668 258.92 292.0533333333333 240 281.1833333333333 225.4933333333334C262.8266666666668 218.6666666666668 246.4 208.8866666666668 232.8466666666668 194.1333333333333L213.3333333333333 192C166.1866666666668 192 128 230.1866666666668 128 288.3333333333334S166.1866666666668 362.6666666666668 213.3333333333333 362.6666666666668M42.6666666666668 21.3333333333334V64C42.6666666666668 109.2266666666668 113.28 146.3466666666668 202.6666666666668 149.3333333333334C195.84 132.6933333333334 192 114.8833333333333 192 96C192 68.48 200.1066666666668 42.6666666666668 213.3333333333333 21.3333333333334H42.6666666666668z" />
    <glyph glyph-name="account-search-outline"
      unicode="&#xF934;"
      horiz-adv-x="512" d=" M213.3333333333333 180.6666666666668C205.8666666666668 158.0800000000001 199.68 144.2133333333334 196.0533333333333 129.4933333333334C138.6666666666668 124.5866666666668 83.2 98.8066666666668 83.2 85.3333333333334V61.8666666666668H196.2666666666668C199.8933333333333 48.36 205.8666666666666 33.8066666666668 213.3333333333333 21.3333333333334H42.6666666666668V85.3333333333334C42.6666666666668 142.0800000000001 156.3833333333333 180.6666666666668 213.3333333333333 180.6666666666668M213.3333333333333 362.6666666666668C260.48 362.6666666666668 298.6666666666668 324.48 298.6666666666668 288.3333333333334C298.6666666666668 258.92 292.0533333333333 240 281.1833333333333 225.4933333333334C262.8266666666668 218.6666666666668 246.4 208.8866666666668 232.8466666666668 194.1333333333333L213.3333333333333 192C166.1866666666668 192 128 230.1866666666668 128 288.3333333333334S166.1866666666668 362.6666666666668 213.3333333333333 362.6666666666668M213.3333333333333 322.1333333333334C188.5866666666668 322.1333333333334 168.5333333333333 302.0800000000001 168.5333333333333 288.3333333333334C168.5333333333333 252.5866666666668 188.5866666666668 232.5333333333334 213.3333333333333 232.5333333333334C238.08 232.5333333333334 258.1333333333334 252.5866666666668 258.1333333333334 288.3333333333334C258.1333333333334 302.0800000000001 238.08 322.1333333333334 213.3333333333333 322.1333333333334M330.6666666666668 192C384 192 426.6666666666668 149.3333333333334 426.6666666666668 96C426.6666666666668 88.2266666666668 421.3333333333333 59.52 411.9466666666666 44.8000000000001L488.6533333333333 -21.3333333333333L448 -50.9866666666668L381.44 14.5066666666668C366.8199999999999 5.3333333333334 349.2266666666666 0 330.6666666666668 0C288.3333333333333 0 234.6666666666668 42.6666666666668 234.6666666666668 96S288.3333333333333 192 330.6666666666668 192M330.6666666666668 149.3333333333334C301.2266666666668 149.3333333333334 288.3333333333333 125.44 288.3333333333333 96S301.2266666666668 42.6666666666668 330.6666666666668 42.6666666666668S384 66.5600000000001 384 96S360.1066666666668 149.3333333333334 330.6666666666668 149.3333333333334z" />
    <glyph glyph-name="account-settings"
      unicode="&#xF630;"
      horiz-adv-x="512" d=" M256 362.6666666666668C303.1466666666668 362.6666666666668 341.3333333333333 324.48 341.3333333333333 288.3333333333334S303.1466666666668 192 256 192S180.6666666666668 230.1866666666668 180.6666666666668 288.3333333333334S208.8533333333333 362.6666666666668 256 362.6666666666668M256 149.3333333333334C350.2933333333334 149.3333333333334 426.6666666666668 111.1466666666668 426.6666666666668 64V21.3333333333334H85.3333333333333V64C85.3333333333333 111.1466666666668 161.8066666666668 149.3333333333334 256 149.3333333333334M149.3333333333333 -21.3333333333333H192V-64H149.3333333333333V-21.3333333333333M234.6666666666668 -21.3333333333333H288.3333333333333V-64H234.6666666666668V-21.3333333333333M320 -21.3333333333333H362.6666666666668V-64H320V-21.3333333333333z" />
    <glyph glyph-name="account-settings-variant"
      unicode="&#xF631;"
      horiz-adv-x="512" d=" M192 362.6666666666668C144.8533333333333 362.6666666666668 106.6666666666668 324.48 106.6666666666668 288.3333333333334S144.8533333333333 192 192 192S288.3333333333333 230.1866666666668 288.3333333333333 288.3333333333334S239.1466666666668 362.6666666666668 192 362.6666666666668M192 149.3333333333334C135.04 149.3333333333334 21.3333333333333 120.96 21.3333333333333 64V21.3333333333334H258.8066666666668C256.64 28.3833333333333 256 35.4133333333334 256 42.6666666666668C256 84.6666666666668 266.6666666666668 106.6666666666668 286.08 132.2666666666668C253.44 143.36 218.1833333333333 149.3333333333334 192 149.3333333333334M384 149.3333333333334C381.2266666666668 149.3333333333334 388.88 148.4133333333334 388.4533333333333 144.8533333333334L384.3999999999999 116.6933333333333C368.9999999999999 113.92 361.8133333333333 110.5066666666668 356.2666666666666 106.6666666666668L329.8133333333332 118.3333333333334C328.4666666666666 118.3333333333334 324.6933333333332 118.3333333333334 323.1999999999999 114.56L301.8666666666666 88.6533333333334C300.5866666666666 85.3066666666668 301.0133333333332 82.5333333333334 303.1466666666666 80.8266666666668L325.8599999999999 53.3333333333334C325.3333333333333 49.8066666666668 325.1199999999999 46.2933333333334 325.1199999999999 42.6666666666668C325.1199999999999 39.04 325.3333333333333 35.6266666666668 325.8599999999999 32L303.1466666666666 14.5066666666668C301.2266666666666 12.8000000000001 300.5866666666666 10.0266666666666 301.8666666666666 8.68L323.1999999999999 -29.2266666666668C324.4899999999999 -32 328.2533333333332 -32 329.8133333333332 -32L356.2666666666666 -21.3333333333333C361.8133333333333 -25.1833333333333 368.8866666666665 -28.8 384.3999999999999 -31.36L388.4533333333333 -59.52C388.88 -62.08 381.0133333333333 -64 384 -64H426.6666666666668C429.0133333333333 -64 431.36 -62.08 431.8866666666668 -59.52L435.84 -31.36C442.24 -28.5866666666666 448 -25.1833333333333 453.86 -21.3333333333333L480 -32C482.8833333333333 -32 485.5466666666668 -32 488.04 -29.2266666666668L508.3833333333333 8.68C509.6533333333333 10.0266666666666 509.0133333333333 12.8 508.0933333333333 14.5066666666668L484.2666666666668 32C484.6933333333333 35.6266666666668 485.1199999999999 39.04 485.1199999999999 42.6666666666668C485.1199999999999 46.2933333333334 484.9066666666666 49.8066666666668 484.2666666666668 53.3333333333334L506.8899999999999 80.8266666666668C508.8 82.5333333333333 509.4399999999999 85.3066666666668 508.1599999999999 88.6533333333334L486.8266666666666 114.5600000000001C485.5466666666666 118.3333333333334 482.8833333333332 118.3333333333334 489.9999999999999 118.3333333333334L453.8599999999999 106.6666666666668C448.9999999999999 110.5066666666668 442.2399999999999 114.1333333333334 435.6266666666666 116.6933333333334L431.5833333333332 144.8533333333334C431.3599999999998 148.4133333333334 429.0133333333332 149.3333333333334 426.6666666666665 149.3333333333334M405.3333333333332 84.6666666666668C423.0399999999998 84.6666666666668 438.3333333333332 60.3833333333334 438.3333333333332 42.6666666666668S423.0399999999998 10.6666666666668 405.3333333333332 10.6666666666668C388.4133333333332 10.6666666666668 383.3333333333332 24.9600000000002 383.3333333333332 42.6666666666668S388.6266666666666 84.6666666666668 405.3333333333332 84.6666666666668z" />
    <glyph glyph-name="account-star"
      unicode="&#xF018;"
      horiz-adv-x="512" d=" M320 149.3333333333334C263.04 149.3333333333334 149.3333333333333 120.96 149.3333333333333 64V21.3333333333334H490.6666666666666V64C490.6666666666666 120.96 386.9600000000001 149.3333333333334 320 149.3333333333334M320 192C368.1466666666668 192 405.3333333333333 230.1866666666668 405.3333333333333 288.3333333333334S368.1466666666668 362.6666666666668 320 362.6666666666668S234.6666666666668 324.48 234.6666666666668 288.3333333333334S282.8533333333333 192 320 192M106.6666666666668 164.6933333333334L158.9333333333333 132.9066666666668L145.0666666666668 192.8533333333334L192 232.96L130.3466666666666 238.2933333333334L106.6666666666668 294.6133333333334L82.56 238.2933333333334L21.3333333333333 232.96L68.84 192.8533333333333L53.3333333333333 132.9066666666668L106.6666666666668 164.6933333333334z" />
    <glyph glyph-name="account-switch"
      unicode="&#xF019;"
      horiz-adv-x="512" d=" M341.3333333333333 256C391.04 256 490.6666666666666 231.04 490.6666666666666 181.3333333333334V128H362.6666666666668V181.3333333333334C362.6666666666668 213.3333333333334 345.3866666666668 238.0133333333333 320.8533333333333 254.9333333333334L341.3333333333333 256M180.6666666666668 256C220.3833333333333 256 320 231.04 320 181.3333333333334V128H21.3333333333333V181.3333333333334C21.3333333333333 231.04 120.96 256 180.6666666666668 256M180.6666666666668 298.6666666666668C135.2533333333333 298.6666666666668 106.6666666666668 328.2533333333334 106.6666666666668 362.6666666666668S135.2533333333333 426.6666666666668 180.6666666666668 426.6666666666668S234.6666666666668 398.08 234.6666666666668 362.6666666666668S206.08 298.6666666666668 180.6666666666668 298.6666666666668M341.3333333333333 298.6666666666668C305.92 298.6666666666668 288.3333333333333 328.2533333333334 288.3333333333333 362.6666666666668S305.92 426.6666666666668 341.3333333333333 426.6666666666668S405.3333333333333 398.08 405.3333333333333 362.6666666666668S386.8466666666668 298.6666666666668 341.3333333333333 298.6666666666668M192 90.6666666666668V42.6666666666668H320V90.6666666666668L389.3333333333333 21.3333333333334L320 -48V0H192V-48L122.6666666666668 21.3333333333334L192 90.6666666666668z" />
    <glyph glyph-name="accusoft"
      unicode="&#xF849;"
      horiz-adv-x="512" d=" M383.3333333333333 114.9866666666668C369.8066666666666 120.1066666666668 203.3066666666668 332.8000000000001 198.86 339.6266666666668C192 346.6666666666668 193.8066666666668 348.8 194.8833333333333 350.0800000000001C196.6933333333333 352 199.68 352 211.84 352C218.88 352 289.92 352 298.3866666666668 352.64C312.8466666666668 352.64 315.3066666666666 351.36 316.8 350.8200000000001C318.5066666666668 350.2933333333334 322.8833333333333 346.6666666666668 325.5466666666666 343.04C328.04 341.3333333333334 486.16 162.9866666666668 488.6533333333333 161.0666666666668C489.1466666666666 159.1466666666668 481.92 155.9466666666668 483.6266666666668 152.8466666666668C485.5466666666668 149.3333333333334 485.86 145.4933333333334 482.9866666666668 144C481.28 142.9333333333333 398.9333333333333 109.0133333333333 396.5866666666668 108.16C394.6666666666668 106.6666666666668 389.86 105.3866666666668 386.3466666666668 105.8133333333334C384 106.6666666666668 389.0933333333333 108.3833333333333 383.3333333333333 114.9866666666668M458.0266666666666 119.04L464 118.9833333333334S483.84 114.1333333333333 485.86 113.8066666666668C488.8933333333333 113.28 489.8133333333333 111.8866666666668 489.6 111.1466666666668C489.3866666666666 109.4400000000001 488.5333333333333 108.5866666666668 488.04 108.8333333333334C485.86 106.6666666666668 396.3833333333333 51.6266666666668 394.6666666666668 50.8833333333334C393.1833333333333 49.9200000000001 391.04 48.64 386.3466666666668 48.0000000000001C388.6 46.2933333333335 360.8466666666668 50.9866666666668 355.4133333333333 52.0533333333335C350.08 53.3333333333334 131.2 101.8600000000001 129.28 102.4000000000001C128.36 103.0400000000001 126.08 103.2533333333335 125.8666666666668 104.9600000000002C125.6533333333333 108.9466666666668 130.3466666666668 109.2266666666668 133.9833333333333 110.8200000000001C138.8133333333333 112.0000000000001 240.64 149.3333333333335 244.2666666666668 150.8266666666668C248.8933333333333 152.3200000000001 252.5866666666668 152.8466666666668 254.9333333333333 152.9600000000001C258.28 153.1833333333334 281.5833333333333 150.8266666666668 288.9833333333333 149.9833333333334C284.5866666666668 149.3333333333334 302.9333333333333 146.1333333333335 302.9333333333333 146.1333333333335L344.8466666666668 91.8333333333335C352 83.4133333333334 356.6933333333333 80.0000000000001 362.6666666666668 89.3600000000001C365.8666666666666 89.1466666666668 369.28 80.0000000000002 381.6266666666668 81.0666666666668C383.3333333333333 81.9200000000001 458.0266666666668 119.0400000000001 458.0266666666668 119.0400000000001M218.6666666666668 252.1600000000001L255.1466666666668 205.44L256 203.8333333333334V202.6666666666668C255.1466666666668 201.8133333333334 190.5066666666668 142.5066666666668 190.08 141.8666666666668L122.0266666666668 118.3333333333334S120.1066666666668 116.2666666666668 119.04 115.6266666666668C118.9833333333333 114.9866666666668 116.6933333333333 113.8066666666668 118.3333333333333 110.5066666666668V89.8133333333334L33.28 63.1466666666668C29.2266666666668 61.8666666666668 21.3333333333333 59.0933333333334 20.2666666666668 59.9466666666668C18.8833333333333 61.0133333333334 20.6933333333333 63.3600000000001 21.3333333333333 64.64C22.6133333333333 65.92 193.8066666666668 234.6666666666668 200.32 241.0666666666668C209.92 250.8800000000001 218.6666666666668 252.1600000000001 218.6666666666668 252.1600000000001" />
    <glyph glyph-name="adjust"
      unicode="&#xF01A;"
      horiz-adv-x="512" d=" M256 405.3333333333333C138.24 405.3333333333333 42.6666666666668 309.86 42.6666666666668 192S138.24 -21.3333333333333 256 -21.3333333333333S469.3333333333333 84.24 469.3333333333333 192S383.86 405.3333333333333 256 405.3333333333333M256 21.3333333333334C161.92 21.3333333333334 85.3333333333333 98.92 85.3333333333333 192S161.92 362.6666666666668 256 362.6666666666668S426.6666666666668 286.0800000000001 426.6666666666668 192S350.08 21.3333333333334 256 21.3333333333334M320 192C320 156.5866666666668 291.4133333333333 128 256 128S192 156.5866666666668 192 192S220.5866666666668 256 256 256S320 228.4133333333334 320 192z" />
    <glyph glyph-name="adobe"
      unicode="&#xF935;"
      horiz-adv-x="512" d=" M311.04 384H469.3333333333333V28.3833333333333L311.04 384M200.96 384H42.6666666666668V28.3833333333333L200.96 384M256 252.3833333333334L355.6266666666668 28.3833333333333H288L259.6266666666668 99.6266666666668H186.6666666666668L256 252.3833333333334z" />
    <glyph glyph-name="air-conditioner"
      unicode="&#xF01B;"
      horiz-adv-x="512" d=" M140.5866666666668 433.92C190.5066666666668 482.5333333333333 244.6933333333333 425.3866666666668 256.8533333333333 352C266.0266666666668 352 284.9866666666666 349.44 283.0933333333333 344.8466666666668C294.1866666666666 358.5466666666668 304 385.04 300.16 394.6666666666668C291.2 440.5333333333333 342.6133333333333 488.6533333333333 391.4666666666668 414.2933333333334C430.08 364.3833333333334 382.9333333333334 310.1866666666668 309.3333333333334 298.0266666666668C309.3333333333334 288.8533333333334 306.9866666666668 289.68 302.0800000000001 281.5833333333334C314.88 260.6933333333334 332.3833333333334 250.88 352 254.8200000000001C398.44 263.6800000000001 434.8833333333333 212.48 381.4133333333333 163.4133333333334C321.4933333333334 124.8 268.3066666666668 181.9466666666668 255.1466666666668 245.3333333333334C245.9833333333334 245.3333333333334 238.0133333333334 248.1066666666668 229.12 252.8C218.0266666666668 240 208 222.2933333333334 211.84 202.6666666666668C220.8 158.0133333333333 169.3866666666668 119.68 120.5333333333333 183.04C81.8066666666668 233.1833333333334 129.0666666666668 288.36 202.6666666666668 299.3066666666668C202.6666666666668 308.48 205.44 318.44 210.1333333333333 325.5466666666668C198.3333333333333 336.4266666666668 189.84 346.4533333333334 160 342.6133333333334C114.56 333.6533333333333 88.2266666666668 384.8533333333334 140.5866666666668 433.92M106.6666666666668 106.6666666666668H149.3333333333333C182.8 106.6666666666668 192 88.4666666666668 192 64V-64H149.3333333333333V-21.3333333333333H106.6666666666668V-64H64V64C64 88.4666666666668 83.2 106.6666666666668 106.6666666666668 106.6666666666668M106.6666666666668 64V21.3333333333334H149.3333333333333V64H106.6666666666668M285.84 106.6666666666668H320L258.4933333333334 -64H213.3333333333333L285.84 106.6666666666668M384 106.6666666666668H448V64H384V-21.3333333333333H448V-64H384C360.5333333333333 -64 341.3333333333333 -44.8 341.3333333333333 -21.3333333333333V64C341.3333333333333 88.4666666666668 360.5333333333333 106.6666666666668 384 106.6666666666668z" />
    <glyph glyph-name="airballoon"
      unicode="&#xF01C;"
      horiz-adv-x="512" d=" M234.6666666666668 -42.6666666666666C211.2 -42.6666666666666 192 -23.4666666666668 192 0V42.6666666666668H320V0C320 -23.4666666666668 300.8 -42.6666666666666 288.3333333333333 -42.6666666666666H234.6666666666668M256 426.6666666666668C281.1466666666668 426.6666666666668 285.6533333333333 424.8466666666668 299.8333333333334 421.12C324.6933333333334 388.6266666666668 341.3333333333333 326.1866666666668 341.3333333333333 256C341.3333333333333 208.36 333.2266666666668 162.8833333333333 320 106.6666666666668C320 83.2 300.8 64 288.3333333333333 64H234.6666666666668C211.2 64 192 83.2 192 106.6666666666668C188.8833333333334 162.8833333333333 180.6666666666668 208.36 180.6666666666668 256C180.6666666666668 326.1866666666668 188.3066666666668 388.6266666666668 212.2666666666668 421.12C226.3466666666668 424.8466666666668 240.8533333333333 426.6666666666668 256 426.6666666666668M426.6666666666668 288.3333333333334C426.6666666666668 209.4933333333334 388.2 108.3833333333333 329.8133333333334 80.8533333333334C350.08 119.68 362.6666666666668 195.6266666666668 362.6666666666668 256C362.6666666666668 316.3833333333334 350.08 380.9866666666668 329.8133333333334 409.8133333333334C388.2 382.2933333333334 426.6666666666668 345.1833333333334 426.6666666666668 288.3333333333334M85.3333333333333 288.3333333333334C85.3333333333333 345.1833333333334 124.8 382.2933333333334 182.1866666666668 409.8133333333334C161.92 380.9866666666668 149.3333333333333 316.3833333333334 149.3333333333333 256S161.92 119.68 182.1866666666668 80.8533333333334C124.8 108.3833333333333 85.3333333333333 209.4933333333334 85.3333333333333 288.3333333333334z" />
    <glyph glyph-name="airplane"
      unicode="&#xF01D;"
      horiz-adv-x="512" d=" M448 106.6666666666668V149.3333333333334L288.3333333333333 256V383.3333333333334C288.3333333333333 391.04 263.04 405.3333333333333 245.3333333333333 405.3333333333333S213.3333333333333 391.04 213.3333333333333 383.3333333333334V256L42.6666666666668 149.3333333333334V106.6666666666668L213.3333333333333 160V42.6666666666668L180.6666666666668 10.6666666666668V-21.3333333333333L245.3333333333333 0L320 -21.3333333333333V10.6666666666668L288.3333333333333 42.6666666666668V160L448 106.6666666666668z" />
    <glyph glyph-name="airplane-landing"
      unicode="&#xF5D4;"
      horiz-adv-x="512" d=" M53.3333333333333 42.6666666666668H458.6666666666666V0H53.3333333333333V42.6666666666668M206.5066666666668 164.9066666666668L299.3066666666666 140.16L412.5866666666668 109.8666666666668C429.6533333333333 105.3866666666668 448.1466666666668 115.4133333333334 451.84 132.48C456.32 149.3333333333334 446.2933333333333 168.0400000000001 429.2266666666668 181.8333333333334L315.9466666666668 202.0266666666668L258.0666666666668 394.6666666666668L215.8933333333334 405.3333333333333V228.6933333333334L109.8666666666668 258.0666666666668L90.0266666666668 306.5600000000001L59.0933333333333 314.88V204.5866666666668L93.2266666666668 195.4133333333334L206.5066666666668 164.9066666666668z" />
    <glyph glyph-name="airplane-off"
      unicode="&#xF01E;"
      horiz-adv-x="512" d=" M68.2 335.5833333333334L183.44 229.12L45.8666666666668 149.3333333333334V106.6666666666668L216.5333333333333 160V42.6666666666668L183.8666666666668 10.6666666666668V-21.3333333333333L248.5333333333334 0L323.2 -21.3333333333333V10.6666666666668L280.5333333333333 42.6666666666668V122.24L402.56 0L429.8666666666668 28.0933333333334L94.2933333333333 362.6666666666668M280.5333333333333 256V383.3333333333334C280.5333333333333 391.04 266.24 405.3333333333333 248.5333333333334 405.3333333333333S216.5333333333333 391.04 216.5333333333333 383.3333333333334V294.8266666666668L383.36 128L451.1999999999999 106.6666666666668V149.3333333333334L280.5333333333333 256z" />
    <glyph glyph-name="airplane-takeoff"
      unicode="&#xF5D5;"
      horiz-adv-x="512" d=" M53.3333333333333 42.6666666666668H458.6666666666666V0H53.3333333333333V42.6666666666668M480.8266666666668 242.3466666666668C466.3466666666666 259.4133333333334 448.64 269.6533333333333 431.5833333333333 264.9600000000001L318.2933333333333 234.6666666666668L180.6666666666668 381.8400000000001L129.92 360.9600000000001L218.24 208L112.2133333333333 189.6266666666668L80.1866666666668 212.48L39.2533333333334 204.16L88.08 136.8466666666668L94.5066666666668 108.3833333333333L128.64 118.3333333333334L241.92 148.84L334.82 182.5866666666668L448 202.6666666666668C465.28 208.8866666666668 485.3066666666668 225.2800000000001 480.8266666666668 242.3466666666668z" />
    <glyph glyph-name="airplay"
      unicode="&#xF01F;"
      horiz-adv-x="512" d=" M128 -21.3333333333333H384L256 106.6666666666668M448 384H64C40.5333333333333 384 21.3333333333333 364.8 21.3333333333333 341.3333333333334V85.3333333333334C21.3333333333333 61.8666666666668 40.5333333333333 42.6666666666668 64 42.6666666666668H149.3333333333333V85.3333333333334H64V341.3333333333334H448V85.3333333333334H362.6666666666668V42.6666666666668H448C481.4666666666668 42.6666666666668 490.6666666666666 61.8666666666668 490.6666666666666 85.3333333333334V341.3333333333334C490.6666666666666 364.8 481.4666666666668 384 448 384z" />
    <glyph glyph-name="airport"
      unicode="&#xF84A;"
      horiz-adv-x="512" d=" M319.36 321.8066666666668C316.3833333333334 332.5866666666668 305.0666666666668 339.2000000000001 294.1866666666668 336.2133333333334L221.6533333333333 316.8L126.9333333333333 404.6933333333334L100.6933333333333 398.6533333333333L158.44 299.8333333333334L89.3866666666668 281.6L62.5066666666668 302.5066666666668L42.6666666666668 298.1833333333334L88.08 235.8333333333334L304.64 296.3200000000001C315.8333333333334 299.5200000000001 322.1333333333334 310.8266666666668 319.36 321.8066666666668M448 234.6666666666668L426.6666666666668 192H320L298.6666666666668 234.6666666666668L320 256H362.6666666666668V298.6666666666668H384V256H426.6666666666668L448 234.6666666666668M469.3333333333333 21.3333333333334V-21.3333333333333H42.6666666666668V21.3333333333334H320V180.6666666666668H426.6666666666668V21.3333333333334H469.3333333333333z" />
    <glyph glyph-name="alarm"
      unicode="&#xF020;"
      horiz-adv-x="512" d=" M256 21.3333333333334C183.44 21.3333333333334 106.6666666666668 88.1066666666668 106.6666666666668 180.6666666666668S183.44 320 256 320S405.3333333333333 253.2266666666668 405.3333333333333 180.6666666666668S338.56 21.3333333333334 256 21.3333333333334M256 362.6666666666668C149.9833333333333 362.6666666666668 64 286.6933333333334 64 180.6666666666668S149.9833333333333 -21.3333333333333 256 -21.3333333333333S448 64.64 448 180.6666666666668S362.0266666666668 362.6666666666668 256 362.6666666666668M266.6666666666668 288.3333333333334H234.6666666666668V149.3333333333334L336 88.5333333333333L352 114.8833333333333L266.6666666666668 165.3333333333334V288.3333333333334M168.1066666666668 385.68L140.8 408.32L42.6666666666668 326.1866666666668L80.1866666666668 293.5466666666668L168.1066666666668 385.68M469.3333333333333 325.9833333333334L381.2 408.32L343.68 385.68L441.8133333333334 293.3333333333334L469.3333333333333 325.9833333333334z" />
    <glyph glyph-name="alarm-bell"
      unicode="&#xF88D;"
      horiz-adv-x="512" d=" M320 49.92V-21.3333333333333H106.6666666666668V49.92C182.5866666666668 11.8333333333333 254.08 11.8333333333333 320 49.92M469.3333333333333 362.6666666666668C469.3333333333333 386.1333333333334 450.1333333333334 405.3333333333333 426.6666666666668 405.3333333333333C420.0533333333334 405.3333333333333 413.6533333333333 403.8400000000001 408.8933333333333 400.8533333333334C401.4933333333334 398.6533333333333 395.9466666666668 392.96 391.68 388.2C388.0266666666668 368 382.8199999999999 341.3333333333334 402.1333333333333 328.68C409.1833333333333 322.8833333333333 418.9199999999999 320 426.6666666666666 320H431.8866666666665C468.6933333333332 225.4933333333334 440.8466666666666 118.1866666666668 362.6666666666665 53.3333333333334C355.8399999999998 48 348.8999999999999 42.6666666666668 341.3333333333332 38.9833333333334V0H362.6666666666665V26.8800000000001C429.6533333333332 84.6666666666668 469.3333333333331 152.3200000000001 469.3333333333331 234.6666666666668C469.3333333333331 266.6666666666668 463.3599999999998 298.6666666666668 451.6266666666666 328.1066666666668C462.8199999999999 336.2133333333334 469.3333333333331 349.0133333333334 469.3333333333331 362.6666666666668M383.9999999999999 234.6666666666668C383.9999999999999 140.3833333333334 308.6266666666665 64 213.3333333333332 64S42.6666666666665 140.3833333333333 42.6666666666665 234.6666666666668S119.0399999999999 405.3333333333333 213.3333333333332 405.3333333333333S383.9999999999999 328.9600000000001 383.9999999999999 234.6666666666668z" />
    <glyph glyph-name="alarm-check"
      unicode="&#xF021;"
      horiz-adv-x="512" d=" M224.8533333333333 138.0266666666668L189.4133333333333 183.4666666666668L156.8 160.8533333333334L224.64 93.0133333333333L352.64 221.0133333333333L330.0266666666668 243.6266666666668L224.8533333333334 138.0266666666668M256 21.3333333333334C183.44 21.3333333333334 106.6666666666668 88.1066666666668 106.6666666666668 180.6666666666668S183.44 320 256 320S405.3333333333333 253.2266666666668 405.3333333333333 180.6666666666668S338.56 21.3333333333334 256 21.3333333333334M256 362.6666666666668C149.9833333333333 362.6666666666668 64 286.6933333333334 64 180.6666666666668S149.9833333333333 -21.3333333333333 256 -21.3333333333333S448 64.64 448 180.6666666666668S362.0266666666668 362.6666666666668 256 362.6666666666668M168.1066666666668 385.68L140.8 408.32L42.6666666666668 326.1866666666668L80.1866666666668 293.5466666666668L168.1066666666668 385.68M469.3333333333333 325.9833333333334L381.2 408.32L343.68 385.68L441.8133333333334 293.3333333333334L469.3333333333333 325.9833333333334z" />
    <glyph glyph-name="alarm-light"
      unicode="&#xF88E;"
      horiz-adv-x="512" d=" M128 300.8L82.56 346.0266666666668L112.64 386.1066666666668L158.8666666666668 330.6666666666668L128 300.8M288.3333333333333 426.6666666666668V362.6666666666668H234.6666666666668V426.6666666666668H288.3333333333333M429.44 346.0266666666668L384 300.8L354.1333333333334 330.6666666666668L399.36 386.1066666666668L429.4400000000001 346.0266666666668M96 224V181.3333333333334H32V224H96M416 224H480V181.3333333333334H416V224M128 21.3333333333334H384C408.4666666666668 21.3333333333334 426.6666666666668 2.1333333333334 426.6666666666668 -21.3333333333333H85.3333333333333C85.3333333333333 2.1333333333334 104.5333333333333 21.3333333333334 128 21.3333333333334M256 341.3333333333334C326.6133333333334 341.3333333333334 384 283.9466666666668 384 213.3333333333334V42.6666666666668H128V213.3333333333334C128 283.9466666666668 185.3866666666668 341.3333333333334 256 341.3333333333334z" />
    <glyph glyph-name="alarm-multiple"
      unicode="&#xF022;"
      horiz-adv-x="512" d=" M198.1866666666668 388.6666666666668L110.08 304.64L85.3333333333333 334.0800000000001L183.6533333333333 408.1066666666668L198.1866666666668 388.6666666666668M469.3333333333333 333.8666666666668L444.5866666666668 304.4266666666668L356.2666666666668 388.6666666666668L381.0133333333333 408.1066666666668L469.3333333333333 333.8666666666668M288.3333333333333 362.6666666666668C381.6266666666668 362.6666666666668 448 286.2933333333334 448 192S381.6266666666668 21.3333333333334 288.3333333333333 21.3333333333334S106.6666666666668 98.8066666666668 106.6666666666668 192S183.04 362.6666666666668 288.3333333333333 362.6666666666668M288.3333333333333 320C206.82 320 149.3333333333333 262.6133333333334 149.3333333333333 192S206.82 64 288.3333333333333 64S405.3333333333333 121.3866666666668 405.3333333333333 192S348.9466666666666 320 288.3333333333333 320M256 288H288V191.36L356.6933333333333 160L343.4666666666666 130.9866666666668L256 180.6666666666668V288M21.3333333333333 149.3333333333334C21.3333333333333 202.6666666666668 45.44 249.6 83.4133333333333 280.9600000000001C81.04 253.8666666666668 64 224 64 192L65.28 168.8933333333334L64 149.3333333333334C64 100.6933333333333 91.0933333333333 58.4533333333334 130.9866666666668 36.6933333333333C158.82 10.6666666666668 193.4933333333334 -8.32 232.32 -16.64C219.3066666666668 -19.6266666666668 205.8666666666668 -21.3333333333333 192 -21.3333333333333C98.8066666666668 -21.3333333333333 21.3333333333333 55.04 21.3333333333333 149.3333333333334z" />
    <glyph glyph-name="alarm-off"
      unicode="&#xF023;"
      horiz-adv-x="512" d=" M180.6666666666668 388.0266666666668L140.8 408.32L122.4533333333333 393.1833333333334L152.8466666666668 362.6666666666668M351.36 55.68C325.5466666666666 34.3466666666668 292.2666666666668 21.3333333333334 256 21.3333333333334C183.44 21.3333333333334 106.6666666666668 88.1066666666668 106.6666666666668 180.6666666666668C106.6666666666668 206.9333333333333 119.68 240.2133333333334 141.0133333333333 266.0266666666668M62.2933333333333 399.1466666666668L35.2 381.8400000000001L64 343.4666666666668L39.8933333333333 323.6266666666668L80.1866666666668 293.3333333333334L93.8666666666668 313.3866666666668L110.9333333333333 296.32C81.8066666666668 262.6133333333334 64 218.6666666666668 64 180.6666666666668C64 64.64 149.9833333333333 -21.3333333333333 256 -21.3333333333333C304 -21.3333333333333 348.9466666666666 -3.6266666666668 381.6533333333333 25.6L428.5866666666668 -21.3333333333333L455.6899999999999 5.86L82.9866666666668 388.24L62.2933333333333 399.1466666666668M469.3333333333333 325.9833333333334L381.2 408.32L343.68 385.68L441.8133333333334 293.3333333333334L469.3333333333333 325.9833333333334M256 320C338.56 320 405.3333333333333 253.2266666666668 405.3333333333333 180.6666666666668C405.3333333333333 152.8466666666668 401.92 135.4666666666668 396.16 119.4666666666668L428.5866666666668 88.04C440.9599999999999 112.4266666666666 448 140.5866666666668 448 180.6666666666666C448 286.6933333333334 362.0266666666668 362.6666666666668 256 362.6666666666668C225.92 362.6666666666668 198.86 355.6266666666668 182.3833333333333 343.2533333333334L204.8 310.8266666666668C220.8 316.5866666666668 238.08 320 256 320z" />
    <glyph glyph-name="alarm-plus"
      unicode="&#xF024;"
      horiz-adv-x="512" d=" M288.3333333333333 256H234.6666666666668V192H180.6666666666668V149.3333333333334H234.6666666666668V85.3333333333334H288.3333333333333V149.3333333333334H341.3333333333333V192H288.3333333333333M256 21.3333333333334C183.44 21.3333333333334 106.6666666666668 88.1066666666668 106.6666666666668 180.6666666666668S183.44 320 256 320S405.3333333333333 253.2266666666668 405.3333333333333 180.6666666666668S338.56 21.3333333333334 256 21.3333333333334M256 362.6666666666668C149.9833333333333 362.6666666666668 64 286.6933333333334 64 180.6666666666668S149.9833333333333 -21.3333333333333 256 -21.3333333333333S448 64.64 448 180.6666666666668S362.0266666666668 362.6666666666668 256 362.6666666666668M469.3333333333333 325.9833333333334L381.2 408.32L343.68 385.68L441.8133333333334 293.3333333333334M168.1066666666668 385.68L140.8 408.32L42.6666666666668 326.1866666666668L80.1866666666668 293.5466666666668L168.1066666666668 385.68z" />
    <glyph glyph-name="alarm-snooze"
      unicode="&#xF68D;"
      horiz-adv-x="512" d=" M168.1066666666668 385.68L140.8 408.32L42.6666666666668 326.1866666666668L80.1866666666668 293.5466666666668L168.1066666666668 385.68M469.3333333333333 325.9833333333334L381.2 408.32L343.68 385.68L441.8133333333334 293.3333333333334L469.3333333333333 325.9833333333334M256 362.6666666666668C149.9833333333333 362.6666666666668 64 286.6933333333334 64 180.6666666666668S149.9833333333333 -21.3333333333333 256 -21.3333333333333S448 64.64 448 180.6666666666668S362.0266666666668 362.6666666666668 256 362.6666666666668M256 21.3333333333334C183.44 21.3333333333334 106.6666666666668 88.1066666666668 106.6666666666668 180.6666666666668S183.44 320 256 320S405.3333333333333 253.2266666666668 405.3333333333333 180.6666666666668S338.56 21.3333333333334 256 21.3333333333334M192 213.3333333333334H269.44L192 123.8333333333334V85.3333333333334H320V128H242.56L320 218.6V256H192V213.3333333333334z" />
    <glyph glyph-name="album"
      unicode="&#xF025;"
      horiz-adv-x="512" d=" M256 213.3333333333334C244.2666666666668 213.3333333333334 234.6666666666668 203.8333333333334 234.6666666666668 192S244.2666666666668 180.6666666666668 256 180.6666666666668S288.3333333333333 180.2666666666668 288.3333333333333 192S268.8333333333334 213.3333333333334 256 213.3333333333334M256 96C202.6666666666668 96 160 138.6666666666668 160 192S202.6666666666668 288 256 288S352 245.3333333333334 352 192S309.3333333333333 96 256 96M256 405.3333333333333C138.24 405.3333333333333 42.6666666666668 309.86 42.6666666666668 192S138.24 -21.3333333333333 256 -21.3333333333333S469.3333333333333 84.24 469.3333333333333 192S383.86 405.3333333333333 256 405.3333333333333z" />
    <glyph glyph-name="alert"
      unicode="&#xF026;"
      horiz-adv-x="512" d=" M288.3333333333333 149.3333333333334H234.6666666666668V234.6666666666668H288.3333333333333M288.3333333333333 64H234.6666666666668V106.6666666666668H288.3333333333333M21.3333333333333 0H490.6666666666666L256 405.3333333333333L21.3333333333333 0z" />
    <glyph glyph-name="alert-box"
      unicode="&#xF028;"
      horiz-adv-x="512" d=" M106.6666666666668 384H405.3333333333333C428.8 384 448 364.8 448 341.3333333333334V42.6666666666668C448 19.2 428.8 0 405.3333333333333 0H106.6666666666668C83.2 0 64 19.2 64 42.6666666666668V341.3333333333334C64 364.8 83.2 384 106.6666666666668 384M288.3333333333333 180.6666666666668V298.6666666666668H234.6666666666668V180.6666666666668H288.3333333333333M288.3333333333333 85.3333333333334V128H234.6666666666668V85.3333333333334H288.3333333333333z" />
    <glyph glyph-name="alert-circle"
      unicode="&#xF028;"
      horiz-adv-x="512" d=" M288.3333333333333 180.6666666666668H234.6666666666668V298.6666666666668H288.3333333333333M288.3333333333333 85.3333333333334H234.6666666666668V128H288.3333333333333M256 405.3333333333333C138.24 405.3333333333333 42.6666666666668 309.86 42.6666666666668 192S138.24 -21.3333333333333 256 -21.3333333333333S469.3333333333333 84.24 469.3333333333333 192S383.86 405.3333333333333 256 405.3333333333333z" />
    <glyph glyph-name="alert-circle-outline"
      unicode="&#xF5D6;"
      horiz-adv-x="512" d=" M234.6666666666668 128H288.3333333333333V85.3333333333334H234.6666666666668V128M234.6666666666668 298.6666666666668H288.3333333333333V180.6666666666668H234.6666666666668V298.6666666666668M256 405.3333333333333C138.0266666666668 405.3333333333333 42.6666666666668 309.3333333333334 42.6666666666668 192C42.6666666666668 84.24 138.24 -21.3333333333333 256 -21.3333333333333S469.3333333333333 84.24 469.3333333333333 192S383.86 405.3333333333333 256 405.3333333333333M256 21.3333333333334C161.8066666666668 21.3333333333334 85.3333333333333 98.8066666666668 85.3333333333333 192S161.8066666666668 362.6666666666668 256 362.6666666666668S426.6666666666668 286.2933333333334 426.6666666666668 192S350.2933333333334 21.3333333333334 256 21.3333333333334z" />
    <glyph glyph-name="alert-decagram"
      unicode="&#xF6BC;"
      horiz-adv-x="512" d=" M490.6666666666666 192L438.6133333333333 251.3066666666668L445.8666666666666 329.8133333333334L368.8533333333333 348.3066666666668L328.5333333333333 415.1466666666668L256 384L183.4666666666668 415.1466666666668L143.1466666666668 348.3066666666668L66.1333333333333 330.0266666666668L83.3866666666668 251.5200000000001L21.3333333333333 192L83.3866666666668 132.6933333333334L66.1333333333333 53.9833333333334L143.1466666666668 36.48L183.4666666666668 -31.36L256 0L328.5333333333333 -31.1466666666666L368.8533333333333 36.6933333333333L445.8666666666666 54.1866666666668L438.6133333333333 132.6933333333333L490.6666666666666 192M288.3333333333333 85.3333333333334H234.6666666666668V128H288.3333333333333V85.3333333333334M288.3333333333333 180.6666666666668H234.6666666666668V298.6666666666668H288.3333333333333V180.6666666666668z" />
    <glyph glyph-name="alert-octagon"
      unicode="&#xF029;"
      horiz-adv-x="512" d=" M288.3333333333333 180.6666666666668H234.6666666666668V298.6666666666668H288.3333333333333M256 88.9333333333333C240.64 88.9333333333333 228.2666666666668 91.3066666666666 228.2666666666668 106.6666666666668C228.2666666666668 122.0266666666668 240.64 134.4 256 134.4C281.36 134.4 283.8333333333334 122.0266666666668 283.8333333333334 106.6666666666668C283.8333333333334 91.3066666666668 281.36 88.9333333333333 256 88.9333333333333M335.5833333333333 384H186.4266666666668L64 281.5833333333334V112.4266666666668L186.4266666666668 0H335.5833333333333L448 112.4266666666668V281.5833333333334L335.5833333333333 384z" />
    <glyph glyph-name="alert-octagram"
      unicode="&#xF866;"
      horiz-adv-x="512" d=" M46.9333333333333 105.3866666666668L82.8833333333333 192L46.9333333333333 288.6133333333334L133.5466666666668 314.4533333333333L169.3866666666668 401.0666666666668L256 365.2266666666668L342.6133333333333 401.0666666666668L388.4533333333333 314.4533333333334L465.0666666666666 288.6133333333334L429.2266666666668 192L465.0666666666668 105.3866666666668L388.4533333333334 69.5466666666668L342.6133333333334 -18.0666666666666L256 18.8833333333333L169.3866666666668 -18.0666666666668L133.5466666666668 69.5466666666666L46.9333333333334 105.3866666666668M288.3333333333333 85.3333333333334V128H234.6666666666668V85.3333333333334H288.3333333333333M288.3333333333333 180.6666666666668V298.6666666666668H234.6666666666668V180.6666666666668H288.3333333333333z" />
    <glyph glyph-name="alert-outline"
      unicode="&#xF02A;"
      horiz-adv-x="512" d=" M256 405.3333333333333L21.3333333333333 0H490.6666666666666M256 320L416.64 42.6666666666668H95.36M234.6666666666668 234.6666666666668V149.3333333333334H288.3333333333333V234.6666666666668M234.6666666666668 106.6666666666668V64H288.3333333333333V106.6666666666668" />
    <glyph glyph-name="alien"
      unicode="&#xF899;"
      horiz-adv-x="512" d=" M256 384C362.0266666666668 384 448 308.6266666666668 448 213.3333333333334S320 0 256 0S64 119.04 64 213.3333333333334S149.9833333333333 384 256 384M219.9466666666668 214.8266666666668C198.1866666666668 249.8133333333334 159.36 264.9600000000001 133.3333333333333 248.8466666666668C108.3066666666668 232.5333333333334 103.8933333333333 190.9333333333333 125.6533333333333 155.9466666666668C148.6266666666668 120.96 186.4533333333333 105.8133333333334 212.48 122.0266666666668C238.5066666666668 138.6666666666668 241.8066666666668 189.84 219.9466666666668 214.8266666666668M292.0533333333334 214.8266666666668C280.2933333333334 189.84 283.4933333333334 138.6666666666668 299.52 122.0266666666668C325.5466666666668 105.8133333333334 364.3833333333334 120.96 386.3466666666668 155.9466666666668C408.1066666666668 190.9333333333334 404.6933333333333 232.5333333333334 388.6666666666668 248.8466666666668C352.64 264.9600000000001 313.8133333333334 249.8133333333334 292.0533333333334 214.8266666666668M256 69.3333333333334C213.3333333333333 69.3333333333334 202.6666666666668 85.3333333333334 202.6666666666668 85.3333333333334C202.6666666666668 84.6933333333333 213.3333333333333 42.6666666666668 256 42.6666666666668S309.3333333333333 85.3333333333334 309.3333333333333 85.3333333333334S298.6666666666668 69.3333333333334 256 69.3333333333334z" />
    <glyph glyph-name="all-inclusive"
      unicode="&#xF6BD;"
      horiz-adv-x="512" d=" M396.8 306.8833333333333C366.08 306.8833333333333 338.0666666666668 294.8266666666668 316.3833333333334 284.1333333333334L166.4 141.0133333333333C152.8466666666668 128.36 134.6133333333333 119.8933333333333 115.2 119.8933333333333C85.3066666666668 119.8933333333333 42.6666666666668 152.1066666666668 42.6666666666668 192C42.6666666666668 231.8933333333334 85.3066666666668 264.1066666666668 115.2 264.1066666666668C134.6133333333334 264.1066666666668 152.8466666666668 256.64 168.2533333333333 242.1333333333334L191.36 220.8L224 249.3866666666668L196.6933333333333 283.0666666666668C184.9333333333333 294.8266666666668 145.92 306.8833333333333 115.2 306.8833333333333C51.6266666666668 306.8833333333333 0 255.1466666666668 0 192S51.6266666666668 88.2266666666668 115.2 88.2266666666668C145.92 88.2266666666668 184.9333333333333 89.1833333333334 195.6266666666668 109.8666666666668L345.6 242.9866666666668C359.2533333333334 256.6400000000001 388.3866666666666 264.1066666666668 396.8 264.1066666666668C436.6933333333333 264.1066666666668 469.3333333333333 231.8933333333334 469.3333333333333 192C469.3333333333333 152.1066666666668 436.6933333333332 119.8933333333334 396.8 119.8933333333334C388.6 119.8933333333334 359.2533333333332 128.36 344.8466666666666 141.8666666666668L320 163.4133333333334L288 134.8266666666668L315.3066666666666 110.9333333333333C338.0666666666666 89.3866666666668 365.8666666666666 88.44 396.8 88.44C460.3833333333333 88.44 512 128.8533333333334 512 192C512 256 460.3833333333333 306.8833333333333 396.8 306.8833333333333z" />
    <glyph glyph-name="alpha"
      unicode="&#xF02B;"
      horiz-adv-x="512" d=" M385.8066666666666 68.2666666666668C385.8933333333333 65.4933333333333 368.1466666666666 64 359.4666666666666 64C333.8666666666666 64 316.5866666666666 82.8833333333333 308.8399999999999 120.5333333333334H306.8833333333333C285.6533333333333 89.8866666666668 255.9999999999999 59.52 218.6666666666666 59.52C190.8199999999999 59.52 168.3199999999999 69.9833333333333 151.4666666666666 91.0933333333334S126.2933333333333 138.6666666666668 126.2933333333333 180.6666666666668C126.2933333333333 208 135.8933333333333 238.8666666666668 154.88 261.12C183.8666666666668 284.3833333333334 199.68 296.1066666666668 232.32 296.1066666666668C249.8133333333334 296.1066666666668 265.6 291.2 289.2533333333334 281.6C292.9066666666668 281.8866666666668 303.36 258.1333333333334 310.6133333333334 240.4266666666668H311.4666666666668L326.6133333333333 291.6266666666668H381.2266666666666L335.5833333333333 188.1333333333333C340.6933333333333 151.68 346.0266666666666 133.5466666666668 351.9999999999999 123.9466666666668C358.1199999999999 114.3466666666668 364.3833333333332 109.44 383.3333333333333 109.44C388.4533333333332 109.44 382.5066666666666 110.2933333333333 386.1333333333333 111.8866666666666L385.8066666666666 68.2666666666668M294.8266666666666 180.0533333333334C290.3466666666666 204.16 283.0933333333333 222.9333333333333 283.28 235.8333333333333C263.68 248.8466666666668 251.9466666666668 255.1466666666668 238.5066666666668 255.1466666666668C221.0133333333333 255.1466666666668 206.9333333333333 248.2533333333334 196.48 231.68C186.0266666666668 215.8933333333333 181.3333333333333 196.48 181.3333333333333 183.6533333333333C181.3333333333333 152.8466666666668 185.3866666666668 135.4666666666668 194.56 121.3866666666668C203.52 108.3066666666666 215.68 100.48 230.8266666666668 100.48C243.6266666666666 100.48 255.36 106.6666666666666 265.8133333333333 118.4C286.48 130.56 285.2266666666668 148.2666666666668 292.2666666666668 181.52L294.8266666666666 180.0533333333333z" />
    <glyph glyph-name="alphabetical"
      unicode="&#xF02C;"
      horiz-adv-x="512" d=" M128 213.3333333333334C151.4666666666668 213.3333333333334 180.6666666666668 194.1333333333333 180.6666666666668 180.6666666666668V85.3333333333334H85.3333333333333C61.8666666666668 85.3333333333334 42.6666666666668 104.5333333333333 42.6666666666668 128V180.6666666666668C42.6666666666668 194.1333333333333 61.8666666666668 213.3333333333334 85.3333333333333 213.3333333333334H128M85.3333333333333 180.6666666666668V128H128V180.6666666666668H85.3333333333333M426.6666666666668 180.6666666666668V128H469.3333333333333V85.3333333333334H426.6666666666668C403.2 85.3333333333334 384 104.5333333333333 384 128V180.6666666666668C384 194.1333333333333 403.2 213.3333333333334 426.6666666666668 213.3333333333334H469.3333333333333V180.6666666666668H426.6666666666668M256 298.6666666666668V213.3333333333334H298.6666666666668C322.1333333333334 213.3333333333334 341.3333333333333 194.1333333333333 341.3333333333333 180.6666666666668V128C341.3333333333333 104.5333333333333 322.1333333333334 85.3333333333334 298.6666666666668 85.3333333333334H256C232.5333333333334 85.3333333333334 213.3333333333333 104.5333333333333 213.3333333333333 128V298.6666666666668H256M256 128H298.6666666666668V180.6666666666668H256V128z" />
    <glyph glyph-name="altimeter"
      unicode="&#xF5D8;"
      horiz-adv-x="512" d=" M149.3333333333333 384V341.3333333333334H362.6666666666668V384H149.3333333333333M192 298.6666666666668V256H320V298.6666666666668H192M42.6666666666668 288.1866666666668V105.8133333333334L128.64 192L42.6666666666668 288.1866666666668M469.9833333333334 288.1866666666668L384 192L469.9833333333334 105.8133333333334V288.1866666666668M149.3333333333333 213.3333333333334V180.6666666666668H362.6666666666668V213.3333333333334H149.3333333333333M192 128V85.3333333333334H320V128H192M149.3333333333333 42.6666666666668V0H362.6666666666668V42.6666666666668H149.3333333333333z" />
    <glyph glyph-name="amazon"
      unicode="&#xF02D;"
      horiz-adv-x="512" d=" M339.84 83.4133333333334C336 80 330.6666666666668 89.8866666666666 326.4 82.1333333333334C308.4133333333333 98.92 304 105.1833333333334 293.5466666666666 120.3200000000001C262.1866666666666 88.3200000000001 240 88.82 199.2533333333333 88.82C151.2533333333333 88.82 113.8066666666666 108.3833333333334 113.8066666666666 168.6800000000001C113.8066666666666 214.1866666666668 138.6666666666666 245.3333333333334 184.82 261.1200000000001C205.8666666666666 284.8833333333335 249.1833333333333 288.3333333333334 282.2399999999999 280.9600000000001V288C282.2399999999999 302.0800000000001 283.3066666666666 318.0800000000001 285.2 329.8133333333334C268.3833333333332 340.2666666666668 254.9333333333333 344.8466666666668 243.2 344.8466666666668C221.44 344.8466666666668 202.0266666666666 333.44 198.3333333333333 310.4C196.2666666666666 305.28 191.9999999999999 300.1600000000001 188.3066666666666 299.9466666666668L131.8399999999999 305.92C128.1466666666666 306.9866666666668 122.0266666666666 310.6133333333334 123.3066666666666 318.8666666666668C136.1066666666666 385.0666666666668 196.9066666666666 405.3333333333333 251.3066666666666 405.3333333333333C289.0399999999999 405.3333333333333 315.3066666666666 398.8666666666668 338.2899999999999 386.9600000000001C365.0133333333333 350.9333333333334 362.6666666666668 316.1600000000001 362.6666666666668 288.4V189.44C362.6666666666668 162.8833333333333 383.3333333333333 150.8266666666668 384 136.5333333333333C388.6266666666668 131.2 388.48 125.0133333333333 384 121.3866666666668L340.0533333333333 83.4133333333333H339.84M282.24 222.82V234.6666666666668C240.8533333333334 234.6666666666668 198.12 226.3466666666668 198.12 188.8066666666668C198.12 152.96 210.1333333333333 136.1066666666668 231.8933333333334 136.1066666666668C248.1066666666668 136.1066666666668 262.4 146.1333333333334 281.5833333333333 162.1333333333334C282.6666666666668 181.9833333333334 282.24 200.5333333333334 282.24 222.82M430.08 31.1466666666668C384 -2.9866666666668 316.16 -21.3333333333333 258.1333333333334 -21.3333333333333C186.8533333333333 -21.3333333333333 103.4666666666668 8.8466666666668 48 58.88C43.8333333333333 62.82 48.5833333333333 68.0533333333333 53.3333333333333 65.0666666666666C112.64 30.2933333333333 186.6666666666668 9.3866666666668 263.04 9.3866666666668C314.4533333333333 9.3866666666668 381.2 20.0533333333333 423.2533333333334 42.0266666666666C431.1466666666668 45.44 438.3333333333333 36.9066666666668 430.08 31.1466666666668M449.4933333333334 53.3333333333333C443.52 61.0133333333333 410.0266666666668 56.96 394.6666666666668 55.0399999999999C390.6133333333333 54.6133333333332 389.9833333333334 58.4533333333333 394.0266666666668 61.4399999999999C420.4899999999999 80.2133333333333 464.2133333333333 84.6666666666666 469.3333333333333 68.4899999999999C484.4533333333333 62.0899999999999 468.84 18.3466666666665 442.88 -2.3466666666668C439.04 -5.8600000000001 435.4133333333333 -3.8400000000001 438.3333333333333 -1e-13C442.88 14.2933333333332 455.4666666666668 45.6533333333332 449.4933333333334 53.3333333333332z" />
    <glyph glyph-name="amazon-alexa"
      unicode="&#xF8C5;"
      horiz-adv-x="512" d=" M256 405.3333333333333C138.24 405.3333333333333 42.6666666666668 309.86 42.6666666666668 192S138.24 -21.3333333333333 256 -21.3333333333333S469.3333333333333 84.24 469.3333333333333 192S383.86 405.3333333333333 256 405.3333333333333M222.5066666666668 -18.56V23.2533333333333C222.5066666666668 38.9833333333334 213.3333333333333 51.84 199.4666666666668 58.6C148.4133333333333 89.8866666666666 110.2933333333333 131.6266666666668 110.2933333333333 192C110.2933333333333 281.8866666666668 185.36 338.8066666666668 256 338.8066666666668C336.64 338.8066666666668 401.8066666666666 281.8866666666668 401.8066666666666 192C401.8066666666666 98.4933333333333 328.32 8.3200000000001 222.5066666666666 -18.5599999999999z" />
    <glyph glyph-name="amazon-drive"
      unicode="&#xF02E;"
      horiz-adv-x="512" d=" M105.3866666666668 210.8833333333334C111.5833333333333 210.8833333333334 118.3333333333333 209.9200000000001 122.88 208.4266666666668C123.0933333333333 254.0800000000001 160 291.2000000000001 205.8666666666668 291.2000000000001C240.4266666666668 291.2000000000001 280.2933333333333 269.8666666666668 282.4533333333333 239.5833333333334C295.04 256 314.4533333333333 266.0266666666668 336.2133333333333 266.0266666666668C383.3333333333333 266.0266666666668 404.0533333333334 235.8333333333334 404.0533333333334 198.1866666666668C404.0533333333334 193.0666666666668 403.4133333333333 188.8333333333334 402.3466666666668 182.8266666666668C408.4666666666668 184.8466666666668 413.2266666666668 185.8133333333334 419.2000000000001 185.8133333333334C446.9333333333334 185.8133333333334 469.3333333333334 163.2000000000001 469.3333333333334 135.4666666666668C469.3333333333334 108.8333333333334 446.9333333333334 85.3333333333334 419.2000000000001 85.3333333333334H105.3866666666668C80.8266666666668 85.3333333333334 42.6666666666668 113.4933333333334 42.6666666666668 148.0533333333334C42.6666666666668 182.8266666666668 80.8266666666668 210.8833333333333 105.3866666666668 210.8833333333333z" />
    <glyph glyph-name="ambulance"
      unicode="&#xF02F;"
      horiz-adv-x="512" d=" M384 53.3333333333334C401.8066666666666 53.3333333333334 416 68.6266666666668 416 85.3333333333334S401.8066666666666 118.3333333333334 384 118.3333333333334S352 103.04 352 85.3333333333334S366.2933333333334 53.3333333333334 384 53.3333333333334M416 245.3333333333334H362.6666666666668V192H458.8133333333333L416 245.3333333333334M128 53.3333333333334C145.8066666666668 53.3333333333334 160 68.6266666666668 160 85.3333333333334S145.8066666666668 118.3333333333334 128 118.3333333333334S96 103.04 96 85.3333333333334S110.2933333333333 53.3333333333334 128 53.3333333333334M426.6666666666668 288.3333333333334L490.6666666666666 192V85.3333333333334H448C448 49.92 419.4133333333333 21.3333333333334 384 21.3333333333334S320 49.92 320 85.3333333333334H192C192 49.92 163.4133333333333 21.3333333333334 128 21.3333333333334S64 49.92 64 85.3333333333334H21.3333333333333V320C21.3333333333333 343.68 40.32 362.6666666666668 64 362.6666666666668H362.6666666666668V288.3333333333334H426.6666666666668M180.6666666666668 320V256H106.6666666666668V213.3333333333334H180.6666666666668V149.3333333333334H213.3333333333333V213.3333333333334H288.3333333333333V256H213.3333333333333V320H180.6666666666668z" />
    <glyph glyph-name="amplifier"
      unicode="&#xF030;"
      horiz-adv-x="512" d=" M213.3333333333333 405.3333333333333H298.6666666666668C310.4 405.3333333333333 320 395.8333333333334 320 384H448V0H405.3333333333333C405.3333333333333 -11.8333333333333 395.8333333333334 -21.3333333333333 384 -21.3333333333333S362.6666666666668 -11.8333333333333 362.6666666666668 0H149.3333333333333C149.3333333333333 -11.8333333333333 139.8333333333333 -21.3333333333333 128 -21.3333333333333S106.6666666666668 -11.8333333333333 106.6666666666668 0H64V384H192C192 395.8333333333334 201.6 405.3333333333333 213.3333333333333 405.3333333333333M106.6666666666668 341.3333333333334V256H405.3333333333333V341.3333333333334H106.6666666666668M149.3333333333333 320C161.0666666666668 320 180.6666666666668 310.4 180.6666666666668 298.6666666666668S161.0666666666668 288.3333333333334 149.3333333333333 288.3333333333334S128 286.9333333333334 128 298.6666666666668S138.6 320 149.3333333333333 320M256 320H298.6666666666668V298.6666666666668H256V320M320 320H341.3333333333333V288.3333333333334H320V320M362.6666666666668 320H384V288.3333333333334H362.6666666666668V320M256 213.3333333333334C208.8533333333333 213.3333333333334 180.6666666666668 185.1466666666668 180.6666666666668 128S208.8533333333333 42.6666666666668 256 42.6666666666668S341.3333333333333 80.8533333333334 341.3333333333333 128S303.1466666666668 213.3333333333334 256 213.3333333333334M213.3333333333333 320C225.0666666666668 320 234.6666666666668 310.4 234.6666666666668 298.6666666666668S225.0666666666668 288.3333333333334 213.3333333333333 288.3333333333334S192 286.9333333333334 192 298.6666666666668S201.6 320 213.3333333333333 320z" />
    <glyph glyph-name="anchor"
      unicode="&#xF031;"
      horiz-adv-x="512" d=" M256 405.3333333333333C220.5866666666668 405.3333333333333 192 386.8466666666668 192 341.3333333333334C192 314.24 209.0666666666668 290.1333333333334 234.6666666666668 280.9600000000001V234.6666666666668H180.6666666666668V192H234.6666666666668V44.3833333333333C195.4133333333333 50.5599999999999 160.64 83.1833333333334 139.3066666666668 106.6666666666668H180.6666666666668V149.3333333333334H64V42.6666666666668H106.6666666666668V88.9333333333333C140.3833333333333 29.6533333333334 196.2666666666668 0 256 0S381.6266666666668 29.6533333333334 405.3333333333333 88.82V42.6666666666668H448V149.3333333333334H341.3333333333333V106.6666666666668H382.48C351.1466666666668 83.3866666666668 316.3833333333334 50.5600000000001 288.3333333333333 44.3833333333333V192H341.3333333333333V234.6666666666668H288.3333333333333V281.1833333333334C302.9333333333333 290.1333333333334 320 314.24 320 341.3333333333334C320 386.8466666666668 291.4133333333333 405.3333333333333 256 405.3333333333333M256 362.6666666666668C268.8333333333334 362.6666666666668 288.3333333333333 353.0666666666668 288.3333333333333 341.3333333333334S268.8333333333334 320 256 320S234.6666666666668 329.6 234.6666666666668 341.3333333333334S244.2666666666668 362.6666666666668 256 362.6666666666668z" />
    <glyph glyph-name="android"
      unicode="&#xF032;"
      horiz-adv-x="512" d=" M320 341.3333333333334H298.6666666666668V362.6666666666668H320M213.3333333333333 341.3333333333334H192V362.6666666666668H213.3333333333333M331.3066666666668 401.92L359.2533333333334 429.8666666666668C363.3066666666668 433.92 363.3066666666668 440.8466666666668 359.2533333333334 445.0133333333333C354.9866666666668 449.0666666666668 348.16 449.0666666666668 344.1066666666668 445.0133333333333L312.5333333333333 413.44C295.4666666666668 421.86 286.2666666666668 426.6666666666668 256 426.6666666666668C235.52 426.6666666666668 216.32 421.86 199.2533333333333 413.2266666666668L168.4666666666668 445.0133333333333C163.4133333333333 449.0666666666668 156.5866666666668 449.0666666666668 152.5333333333333 445.0133333333333C148.2666666666668 440.8466666666668 148.2666666666668 433.92 152.5333333333333 429.8666666666668L180.48 401.92C148.6933333333333 388.4533333333334 128 341.3333333333334 128 298.6666666666668H384C384 341.3333333333334 362.6666666666668 388.6666666666668 331.3066666666666 401.92M438.3333333333333 288.3333333333334C419.6266666666668 288.3333333333334 405.3333333333333 263.04 405.3333333333333 245.3333333333334V96C405.3333333333333 88.2933333333334 419.6266666666668 64 438.3333333333333 64S469.3333333333333 88.2933333333334 469.3333333333333 96V245.3333333333334C469.3333333333333 263.04 455.04 288.3333333333334 438.3333333333333 288.3333333333334M84.6666666666668 288.3333333333334C56.96 288.3333333333334 42.6666666666668 263.04 42.6666666666668 245.3333333333334V96C42.6666666666668 88.2933333333334 56.96 64 84.6666666666668 64S106.6666666666668 88.2933333333334 106.6666666666668 96V245.3333333333334C106.6666666666668 263.04 92.3833333333333 288.3333333333334 84.6666666666668 288.3333333333334M128 64C128 52.2666666666668 138.6 42.6666666666668 149.3333333333333 42.6666666666668H180.6666666666668V-32C180.6666666666668 -49.8066666666666 184.96 -64 202.6666666666668 -64S234.6666666666668 -49.8066666666666 234.6666666666668 -32V42.6666666666668H288.3333333333333V-32C288.3333333333333 -49.8066666666666 291.6266666666668 -64 309.3333333333333 -64S341.3333333333333 -49.8066666666666 341.3333333333333 -32V42.6666666666668H362.6666666666668C384.4 42.6666666666668 384 52.2666666666668 384 64V288.3333333333334H128V64z" />
    <glyph glyph-name="android-debug-bridge"
      unicode="&#xF033;"
      horiz-adv-x="512" d=" M320 256C308.2666666666668 256 298.6666666666668 265.6 298.6666666666668 288.3333333333334S308.2666666666668 298.6666666666668 320 298.6666666666668S341.3333333333333 289.0666666666668 341.3333333333333 288.3333333333334S331.8333333333334 256 320 256M192 256C180.2666666666668 256 180.6666666666668 265.6 180.6666666666668 288.3333333333334S180.2666666666668 298.6666666666668 192 298.6666666666668S213.3333333333333 289.0666666666668 213.3333333333333 288.3333333333334S203.8333333333334 256 192 256M343.8933333333333 354.8833333333333L388.6933333333334 399.5833333333333L381.2000000000001 418.28L321.92 368C302.08 388.0266666666668 289.68 384 256 384C232.1066666666668 384 209.92 388.0266666666668 190.08 368L140.8 418.28L123.3066666666668 399.5833333333333L168.1066666666666 354.8833333333333C130.9866666666668 328.68 106.6666666666668 284.1600000000001 106.6666666666668 234.6666666666668V213.3333333333334H405.3333333333333V234.6666666666668C405.3333333333333 284.1600000000001 381.0133333333333 328.68 343.8933333333333 354.8833333333333M106.6666666666668 106.6666666666668C106.6666666666668 24.3200000000001 183.44 -42.6666666666666 256 -42.6666666666666S405.3333333333333 24.1066666666668 405.3333333333333 106.6666666666668V192H106.6666666666668V106.6666666666668z" />
    <glyph glyph-name="android-head"
      unicode="&#xF88F;"
      horiz-adv-x="512" d=" M180.6666666666668 202.6666666666668C155.9466666666668 202.6666666666668 144 190.82 144 186S155.9466666666668 149.3333333333334 180.6666666666668 149.3333333333334S198.3333333333333 161.28 198.3333333333333 186S185.3866666666668 202.6666666666668 180.6666666666668 202.6666666666668M341.3333333333333 202.6666666666668C326.6133333333334 202.6666666666668 314.6666666666668 190.82 314.6666666666668 186S326.6133333333334 149.3333333333334 341.3333333333333 149.3333333333334S368 161.28 368 186S356.0533333333334 202.6666666666668 341.3333333333333 202.6666666666668M256 298.6666666666668C288 298.6666666666668 318.8666666666668 291.6266666666668 345.1833333333333 289.2533333333334L391.2533333333334 325.3333333333334C399.5833333333333 333.6533333333333 413.0133333333333 333.6533333333333 421.3333333333333 325.3333333333334C429.6533333333333 318.0133333333333 429.6533333333333 303.5833333333334 421.3333333333333 295.2533333333334L382.9333333333333 256.8533333333334C435.4133333333333 218.8133333333334 469.3333333333333 155.52 469.3333333333333 85.3333333333334H42.6666666666668C42.6666666666668 155.52 86.5866666666668 218.8133333333334 129.0666666666668 256.8533333333334L90.6666666666668 295.2533333333334C82.3466666666668 303.5833333333333 82.3466666666668 318.0133333333333 90.6666666666668 325.3333333333333C98.9866666666668 333.6533333333333 112.4266666666668 333.6533333333333 120.8466666666668 325.3333333333333L166.8266666666668 289.2533333333334C194.1333333333333 291.6266666666668 224 298.6666666666668 256 298.6666666666668z" />
    <glyph glyph-name="android-studio"
      unicode="&#xF034;"
      horiz-adv-x="512" d=" M234.6666666666668 405.3333333333333H288.3333333333333V362.6666666666668H288C305.8066666666668 362.6666666666668 320 348.3833333333334 320 330.6666666666668V256L310.6133333333334 246.6133333333334L345.6 186.0266666666668C369.28 209.28 384 241.4933333333334 384 288.3333333333334H426.6666666666668C426.6666666666668 225.8066666666668 403.84 189.4133333333334 368.5833333333333 148.0533333333334L434.56 32L438.3333333333333 -15.36L398.44 10.6666666666668L331.9466666666666 124.3833333333333C309.3333333333333 113.0666666666668 283.3066666666666 106.6666666666668 256 106.6666666666668C228.6933333333333 106.6666666666668 202.6666666666666 113.0666666666668 180.0533333333333 124.3833333333333L114.56 10.6666666666668L84.6666666666668 -15.36L88.44 32L201.3866666666668 246.6133333333334L192 256V330.6666666666668C192 348.3833333333334 206.2933333333333 362.6666666666668 224 362.6666666666668H234.6666666666668V405.3333333333333M201.3866666666668 161.4933333333334C218.0266666666668 153.6 236.5866666666668 149.3333333333334 256 149.3333333333334C285.4133333333333 149.3333333333334 293.9833333333333 153.6 310.6133333333334 161.4933333333334L289.4666666666668 215.4666666666668H289.2533333333334C266.0266666666668 202.6666666666668 245.9833333333333 202.6666666666668 232.8466666666668 215.4666666666668H232.5333333333334L201.3866666666668 161.4933333333334M256 320C244.2666666666668 320 234.6666666666668 310.4 234.6666666666668 298.6666666666668S244.2666666666668 288.3333333333334 256 288.3333333333334S288.3333333333333 286.9333333333334 288.3333333333333 298.6666666666668S268.8333333333334 320 256 320z" />
    </font>
</defs>
</svg>
