<?xml version="1.0" standalone="no"?>
<!DOCTYPE svg PUBLIC "-//W3C//DTD SVG 1.1//EN" "http://www.w3.org/Graphics/SVG/1.1/DTD/svg11.dtd" >
<svg xmlns="http://www.w3.org/2000/svg">
<metadata>
<json>
<![CDATA[
{
	"fontFamily": "simple-line-icons",
	"majorVersion": 2,
	"minorVersion": 0,
	"license": "MIT",
	"designer": "Jamal Jama, Ahmad Firoz",
	"version": "Version 2.0",
	"fontId": "simple-line-icons",
	"psName": "simple-line-icons",
	"subFamily": "Regular",
	"fullName": "simple-line-icons",
	"description": "Font generated by IcoMoon."
}
]]>
</json>
</metadata>
<defs>
<font id="simple-line-icons" horiz-adv-x="1024">
<font-face units-per-em="1024" ascent="960" descent="-64" />
<missing-glyph horiz-adv-x="1024" />
<glyph unicode="&#x20;" horiz-adv-x="512" d="" />
<glyph unicode="&#xe000;" glyph-name="user-female" d="M960.032 158.312l-288.496 132.064c38.152 18.624 182.256 24.528 194.256 58.28 0 0-58.344 88.016-81.344 202.336-5.44 44.368-14.852 102.592-24 184.592-15.008 133.008-126.88 226.416-268.192 226.416-0.080 0-0.186 0-0.256 0-0.096 0-0.192 0-0.256 0-141.312 0-253.184-93.408-268.186-226.4-9.248-82-18.56-140.224-24-184.592-14-114.336-81.344-202.336-81.344-202.336 12-32.852 158.088-38.656 194.256-58.28l-288.512-132.080c0 0-63.968-22.464-63.968-85.482v-84.528c0-35.386 28.624-61.312 63.968-61.312h896.064c35.344 0 63.968 25.936 63.968 61.312v84.528c0 53.008-63.968 85.482-63.968 85.482zM64 0v81.84c0 3.408 12.096 11.6 21.936 15.344 2.128 0.852 3.44 1.344 5.44 2.32l288.496 132.064c22.128 10.464 36.32 32.688 36.592 58.152 0.256 24.464-13.44 46.986-35.312 58.936-21.68 10.88-50.336 16.256-95.248 24.032-10.656 1.882-25.216 4.496-39.344 8.312 18.32 41.104 38.56 98.592 46.528 163.632 1.968 16.192 4.496 34.416 8.312 54.592 4.848 34.336 10.848 88.882 16.852 130.224 11.168 98.864 95.28 169.552 204.592 169.552 0.064 0 0.16 0 0.256 0 0.080 0 0.186 0 0.256 0 109.312 0 193.44-80.688 204.592-169.568 5.904-52.336 11.904-95.888 16.852-130.224 2.816-20.186 5.344-38.4 8.312-54.592 8.968-65.024 28.224-122.512 46.528-163.632-14.128-2.816-28.688-5.44-39.344-8.312-44.912-8.886-83.568-13.152-95.248-24.032-21.882-10.986-35.568-33.482-35.312-58.936 0.288-24.464 14.464-46.688 36.592-58.152l288.496-132.064c2-0.986 3.312-1.568 5.44-2.32 9.84-3.844 20.496-11.936 21.936-15.344l0.032-81.824h-896.032z" />
<glyph unicode="&#xe001;" glyph-name="people" d="M846 124.82l-201.482 111.6c84.88 58.912 95.216 184.688 95.216 239.6v135.12c0 89.482-118.88 189.12-238.288 189.12-119.386 0-241.408-99.664-241.408-189.12v-135.12c0-59.024 24.986-188.432 100.624-239.088l-206.682-112.112c0 0-54-24.064-54-54.064v-81.088c0-29.84 24.224-54.064 54-54.064h692c29.808 0 54.032 24.224 54.032 54.064v81.088c0 31.808-54.032 54.064-54.032 54.064zM836.032-0.496h-682.032v58.216c4.592 3.344 11.008 8.216 16.064 9.536 1.504 0.688 3.008 1.408 4.432 2.224l206.688 112.096c18.848 10.224 31.344 29.184 33.248 50.528s-8.008 42.256-23.812 55.664c-53.664 43.024-86.656 138.32-86.656 189.152v135.12c0 45.968 86.656 125.12 188.408 125.12 92.432 0 184.288-88.064 184.288-125.12v-135.12c0-50.128-15.568-145.84-80.884-189.28-16.912-13.312-26-34.224-24.224-55.664 1.808-21.44 14.256-40.528 33.12-50.848l201.482-111.6c1.886-0.986 4.032-2.032 5.904-2.848 4.82-2 10.528-5.344 14.884-8.288v-58.888zM969.968 284.064l-204.464 111.6c84.88 58.912 98.224 184.688 98.224 239.6v135.12c0 89.482-121.882 190.128-241.28 190.128-88.6 0-156.944-42.192-203.12-96.224 26.336-1.632 55.386-1.664 80.464-9.664 33.812 26.256 86.368 41.882 122.656 41.882 92.432 0 188.28-89.056 188.28-126.128v-135.12c0-50.128-18.56-145.84-83.886-189.28-16.912-13.312-26-34.224-24.224-55.664 1.808-21.44 14.256-40.528 33.12-50.848l204.464-111.6c1.886-0.986 4.032-2.032 5.904-2.848 4.82-2 10.528-5.344 14.884-8.288v-56.912h-129.184c19.504-14.82 25.408-35.886 32.986-64h106.192c29.808 0 54.032 24.224 54.032 54.064v80.096c-0.016 31.84-54.048 54.096-54.048 54.096z" />
<glyph unicode="&#xe002;" glyph-name="user-follow" d="M64.064 65.312c0 25.44 19.088 33.408 26.82 36.944l281.040 132.624c20.144 9.248 34.048 28.32 36.852 50.32 2.82 22-6.16 43.84-23.456 58.812-66.48 53.386-98.456 180.688-98.456 233.184v159.904c0 66.864 116.4 159.856 224.128 159.856 108.682 0 223.92-91.536 223.92-159.856v-159.92c0-61.552-25.6-189.312-94.256-233.36-18.504-13.886-26.592-35.68-23.968-58.808 2.624-22.16 16.592-41.312 36.848-50.624l95.92-45.504 15.808 63.882-85.008 39.886c88.656 69.886 118.656 206.832 118.656 283.648v159.92c0 105.92-146.624 223.856-288.92 223.856-141.312 0-288.128-118.936-288.128-223.856v-159.92c0-69.882 31.888-211.248 121.392-283.088l-281.040-132.624c0 0-63.952-28.496-63.952-63.968v-96.032c0-35.344 28.64-63.968 63.952-63.968h803.92v64l-803.882-0.032v64.944zM991.936 128.128h-96v96c0 18.68-14.336 32-32 32s-32-14.32-32-32v-96h-96c-18.664 0-32-14.32-32-32 0-18.664 14.336-32 32-32h96v-96c0-18.664 14.336-32 32-32s32 14.336 32 32v96h96c18.664 0 32 14.336 32 32 0 18.68-14.32 32-32 32z" />
<glyph unicode="&#xe003;" glyph-name="user-following" d="M63.504 0.24v64.944c0 25.44 19.104 33.424 26.82 36.944l281.040 132.624c20.144 9.248 34.048 28.32 36.852 50.32 2.82 22-6.16 43.84-23.456 58.812-66.48 53.386-98.456 180.804-98.456 233.184v159.92c0 66.864 116.4 159.856 224.128 159.856 108.682 0 223.936-91.536 223.936-159.856v-159.92c0-61.552-25.6-189.312-94.256-233.386-18.504-13.886-26.592-35.68-23.968-58.808 2.624-22.16 16.592-41.312 36.848-50.624l162.24-88.248 38.144 54.064-183.664 81.344c88.656 69.886 118.656 206.848 118.656 283.664v159.92c0 105.92-146.624 223.856-288.936 223.856s-288.128-118.936-288.128-223.856v-159.92c0-69.882 31.888-211.248 121.392-283.088l-281.040-132.656c0 0-63.952-28.496-63.952-63.968v-96.032c0-35.344 28.64-63.968 63.952-63.968h639.812l-52 63.984-588.664-0.016zM1012.208 236.496c-13.904 10.912-34.032 8.432-44.912-5.482l-136.848-208.804-85.056 85.082c-12.496 12.496-32.868 12.496-45.264 0s-12.496-32.852 0-45.248l113.136-113.136c12.496-12.496 32.852-12.496 45.248 0 3.040 3.024 5.312 6.544 6.88 10.288l152.304 232.304c10.88 13.904 8.432 34.016-5.488 44.896z" />
<glyph unicode="&#xe004;" glyph-name="user-unfollow" d="M899.12 586.144v159.92c0 105.92-146.608 223.856-288.904 223.856-141.312 0-288.128-118.936-288.128-223.856v-159.92c0-69.882 31.888-211.232 121.392-283.082l-281.040-132.64c0 0-63.952-28.496-63.952-63.968v-96.032c0-35.344 28.64-63.968 63.952-63.968h608.936v64l-608.888-0.032v64.944c0 25.44 19.104 33.424 26.82 36.944l281.040 132.624c20.144 9.248 34.048 28.336 36.852 50.336 2.82 22-6.16 43.824-23.456 58.696-66.48 53.386-98.456 180.688-98.456 233.2v159.92c0 66.864 116.4 159.856 224.128 159.856 108.688 0 223.904-91.536 223.904-159.856v-159.92c0-61.552-25.6-189.328-94.224-233.36-18.536-13.86-26.624-35.664-23.968-58.892 2.592-22.16 16.56-41.312 36.848-50.624l18.112-8.352 28.064 51.892-19.488 14.82c88.656 69.828 118.656 206.868 118.656 283.584zM924.624 81.2l90.496 90.512c12.496 12.464 12.496 32.852 0 45.248-12.48 12.48-32.852 12.48-45.232 0l-90.512-90.528-90.496 90.528c-12.496 12.48-32.868 12.48-45.248 0-12.496-12.496-12.496-32.884 0-45.248l90.496-90.512-90.496-90.496c-12.496-12.48-12.496-32.868 0-45.264 12.48-12.464 32.852-12.464 45.248 0l90.496 90.512 90.512-90.512c12.48-12.464 32.852-12.464 45.232 0 12.496 12.496 12.496 32.884 0 45.264l-90.496 90.496z" />
<glyph unicode="&#xe005;" glyph-name="user" d="M511.828 896c108.682 0 223.92-91.536 223.92-159.856v-159.92c0-61.552-25.6-189.312-94.256-233.386-18.504-13.886-26.592-35.68-23.968-58.808 2.624-22.16 16.592-41.312 36.848-50.624l288.496-132.064c2.186-0.992 26.688-5.104 26.688-39.344l0.032-62.464-895.488-0.048v64.944c0 25.44 19.088 33.424 26.82 36.944l281.024 132.624c20.16 9.248 34.064 28.32 36.868 50.32 2.82 22-6.16 43.84-23.456 58.812-66.48 53.386-98.456 180.804-98.456 233.184v159.92c0.016 66.848 116.416 159.856 224.128 159.856zM511.828 960c-141.312 0-288.128-118.936-288.128-223.856v-159.92c0-69.882 31.888-211.248 121.392-283.088l-281.040-132.64c0 0-63.952-28.496-63.952-63.968v-96.032c0-35.344 28.64-63.968 63.952-63.968h895.552c35.344 0 63.968 28.624 63.968 63.968v96.032c0 38.6-63.968 63.968-63.968 63.968l-288.496 132.064c88.656 69.886 118.656 206.848 118.656 283.664v159.92c0 105.92-146.64 223.856-288.936 223.856v0z" />
<glyph unicode="&#xe006;" glyph-name="trophy" d="M835.808 32.128h-449.936c-18.68 0-32-14.32-32-32s14.32-32 32-32h449.936c18.68 0 32 14.32 32 32s-14.304 32-32 32zM1018.312 838.368c-3.024 14.88-16.16 25.568-31.344 25.568h-156.624v31.936c0 18.68-14.32 32-32 32h-585.536c-18.68 0-32-14.32-32-32v-31.936h-151.886c-15.184 0-28.32-10.688-31.344-25.568-0.944-4.624-22.4-116.852 39.904-193.152 35.84-43.92 90.608-66.928 162.496-68.986 40.992-121.152 144.064-210.864 268.192-224.24v-222.912h-95.886c-18.68 0-32-14.32-32-32s14.32-32 32-32h258.688c18.68 0 32 14.32 32 32s-14.32 32-32 32h-98.912v222.88c124.336 13.12 228.632 102.8 268.836 224.080 84.336 1.088 130.836 24.24 168.392 69.168 62.304 86.416 40.848 188.528 39.904 193.152zM96.4 685.44c-28.336 34.496-31.184 85.408-29.844 114.496h123.152v-108.032c0-18.296 1.6-34.16 3.936-50.868-43.68 4.080-86.448 18.832-98.344 44.304zM865.344 691.904c0-153.088-114.82-288.664-255.812-288.664-141.056 0-255.808 124.56-255.808 288.664v181.968h511.536v-181.968zM928.6 685.44c-21.68-26.432-56.032-41.488-102.282-44.864 2.384 16.884 4.016 33.84 4.016 51.328v108.032h128c1.44-29.12-1.408-80-29.844-114.496z" />
<glyph unicode="&#xe008;" glyph-name="speedometer" d="M511.984 923.882c-281.968 0-511.344-229.408-511.344-511.386 0-188.152 89.68-339.184 239.904-433.408 14.944-9.482 34.688-4.88 44.096 10.096s4.88 34.82-10.096 44.096c-54.096 33.952-99.040 88.048-133.424 128.88l33.552 19.386c15.312 8.848 20.56 28.4 11.812 43.812-8.88 15.344-28.464 20.56-43.812 11.812l-33.6-19.392c-24.4 50.512-39.296 105.892-43.28 163.424h35.616c18.68 0 32 14.32 32 32s-14.32 32-32 32h-35.456c4.24 58.688 19.886 114.304 44.56 164.592l32.16-18.56c5.024-2.912 10.528-4.288 15.968-4.288 11.056 0 21.808 5.844 28.844 16 8.848 15.312 3.6 34.88-11.812 43.812l-31.84 18.368c32.112 46.832 82.864 88.296 119.984 119.024l18.016-31.2c5.936-10.288 16.688-16 28.844-16 5.44 0 10.944 1.386 15.968 4.288 15.312 8.848 20.56 28.4 11.812 43.812l-18.952 31.082c49.328 23.892 103.68 38.656 160.986 42.816v-39.882c0-18.68 14.32-32 32-32s32 14.32 32 32v40c58.592-4.080 114.128-19.392 164.384-43.952l-18.36-30.048c-8.848-15.312-3.6-34.88 11.812-43.812 5.024-2.912 10.528-4.288 15.968-4.288 11.056 0 21.808 5.812 28.844 16l18.28 29.936c46.688-31.886 88.082-82.144 118.88-118.816l-29.968-18.312c-15.312-8.848-20.56-28.4-11.812-43.812 5.936-10.288 16.688-16 28.844-16 5.44 0 10.944 1.386 15.968 4.288l30.128 18.392c24.592-50.282 39.952-105.824 44.048-164.432h-35.136c-18.68 0-32-14.32-32-32s14.32-32 32-32h35.12c-4.048-56.88-18.592-111.44-42.496-161.312l-31.68 18.288c-15.28 8.848-34.912 3.568-43.812-11.812-8.848-15.312-3.6-34.88 11.812-43.812l31.886-18.352c-35.104-52.24-81.44-98.392-138.36-131.824-15.056-9.28-19.812-29.008-10.464-44.032 6.064-9.808 16.528-15.216 28.28-15.216 5.812 0 11.536 1.536 16.852 4.852 152.464 93.904 243.482 256.884 243.482 435.632 0 281.952-229.408 511.36-511.386 511.36zM848.112 512.282c15.296 8.848 20.544 28.4 11.812 43.812-8.832 15.296-28.416 20.544-43.812 11.696l-183.824-100.352c-9.28 5.248-19.856 8.496-31.28 8.496-35.28 0-63.84-28.592-63.84-63.808 0-35.248 28.586-63.84 63.84-63.84 35.28 0 63.84 28.592 63.84 63.84 0 0.064-0.016 0.144-0.016 0.208l183.28 100.048z" />
<glyph unicode="&#xe008;" glyph-name="social-youtube" d="M940.836 880.304c-28.844 19.968-105.056 46.496-429.008 46.496-348.152 0-398.656-30.464-415.184-40.432-88.968-52.848-96.32-286.816-98.088-334.256 1.056-62.656 11.184-281.12 98.024-322.688 16.496-9.936 68.812-40.224 415.248-40.224 324.16 0 401.386 26.4 429.008 46.288 84.986 53.936 83.6 239.68 83.808 318.44-0.192 62.528-6.852 281.882-83.808 328.386zM903.36 188.424c-11.152-8.032-85.184-34.224-391.632-34.224-305.936 0-380.128 23.844-382.256 31.056-30.88 18.528-63.482 116.88-66.032 268.032 2.528 150.816 35.568 260.912 66.096 289.216 12.16 8.344 86.592 31.28 382.192 31.28 316.192 0 380.4-26.368 391.632-34.432 28.408-19.844 56.852-123.68 58.184-285.632-0.432-154.336-29.968-245.812-58.184-265.296zM820.416 483.168l-288.936 186.688c-9.904 5.968-22.224 6.128-32.256 0.464-10.064-5.68-16.288-16.336-16.288-28.882v-353.44c0-11.536 6.224-22.192 16.288-28.882 4.88-2.852 10.32-4.128 15.812-4.128 5.812 0 11.482 1.536 16.528 4.592l288.936 186.852c9.6 5.808 15.482 16.192 15.482 28.408s-5.856 21.632-15.456 28.408zM448.952 325.696v240.096l194-120.032-194-120.064z" />
<glyph unicode="&#xe009;" glyph-name="social-twitter" d="M684.4 801.312c52.88 0 100.624-21.632 134.256-56.368 41.84 8.096 81.28 22.848 116.82 43.28-13.812-41.632-42.88-86.56-80.816-98.656 38.12 4.368 82.656 13.904 105.632 28.16-24.82-35.844-55.84-68.216-91.886-92.368 0.336-8.632 0.528-15.344 0.528-23.024 0-235.828-185.008-508.616-523.312-508.616-103.84 0-200.56 29.632-281.904 80.224 14.368-1.68 29.008-2.528 43.84-2.528 86.16 0 165.504 28.496 228.464 86.4-80.528 1.386-148.496 53.008-181.808 123.84 11.216-2.096 22.852-3.216 34.624-3.216 16.82 0 33.008 2.16 48.4 6.256-84.128 16.336-148.536 88.448-148.536 184.928 0 0.884 0 1.536 0 2.288 24.816-13.386 53.152-21.408 83.344-22.336-49.386 32.032-81.84 86.56-81.84 148.464 0 32.82 9.088 63.386 24.912 89.632 90.688-108.882 226.208-188.912 389.088-186.384-3.152 13.024-4.884 26.884-4.884 40.624 0 98.544 82.352 188.4 183.968 188.4zM960.192 818.696h0.16zM684.4 865.312c-125.664 0-229.886-91.808-245.808-210.432-102.816 20.656-196.32 85.088-263.504 154.944-12.192 14.512-30.16 22.816-48.986 22.816-1.664 0-3.344-0.064-5.024-0.192-20.592-1.648-39.12-13.12-49.886-30.884-22.32-38.024-34.096-89.44-34.096-122.656 0-28.848 5.184-56.944 15.008-83.216-10.464-11.632-16.496-26.848-16.496-42.912v-2.288c0-62.688 24.884-120.864 65.936-164.464-2.368-10.986-1.84-22.464 1.886-33.482 14.192-43.184 40.032-80.4 83.536-108.852-22.496-5.008-45.812-8.536-69.408-8.536-12.528 0-24.82 0.688-36.256 2.096-2.56 0.32-5.088 0.432-8.632 0.432-26.88 0-51.28-16.944-60.336-42.884-9.936-28.32 1.088-59.812 26.56-85.568 94.528-58.816 203.812-89.882 315.812-89.882 364.032 0 583.008 284.986 588.264 563.344 29.892 24.656 56.128 53.184 88.448 85.152 8.128 10.688 12.96 24.032 12.96 38.496 0 21.886-10.896 41.024-28.488 52.592 8.184 24.624-1.008 51.28-21.008 68.568-11.68 9.504-26 14.336-40.4 14.336-11.008 0-22.032-2.816-31.968-8.56-21.152-12.192-43.886-21.84-68.6-28.884-43.104 32.432-96.544 50.496-151.424 50.496v0z" />
<glyph unicode="&#xe00a;" glyph-name="social-tumblr" d="M528.016 896.256v-223.882h224.32v-95.968h-223.328l-0.32-288.528c0-51.886 2.688-85.008 8.16-99.844 8.528-23.248 39.568-53.008 98.184-53.008 44.688 0 104.986 13.44 150.16 48.248v-149.312c-38.68-18.968-82.82-25.216-103.248-32.464-30.56-8.216-63.664-10.848-99.152-10.848-39.536 0-153.664 1.088-200.496 120.4-8.432 21.482-12.656 52.656-12.656 93.482v362.624h-128.848l0.624 98.128c42.656 0 180.624 25.904 180.624 221.882h116.986zM528.016 960.256h-116.986c-35.344 0-64-28.656-64-64 0-146.496-81.632-158.882-106.624-158.882-35.216 0-63.84-28.464-64-63.68l-0.624-98.128c-0.096-18.024 6.624-33.386 18.624-45.482 12.032-12.064 28.336-18.848 45.386-18.848h64.848v-298.624c0-49.386 5.6-88.632 18.088-116.88 28.848-83.44 98.386-161.008 260.064-161.008 40.288 0 88.592 4.224 113.882 12.56l8.056 1.664c29.882 8.024 68.032 15.886 109.008 35.312 22.288 10.624 36.464 33.088 36.464 58.886v149.312c0 24.224-13.68 46.368-35.344 58.216-9.056 4.56-18.88 6.884-28.656 6.884-13.568 0-28.056-4.32-38.336-12.852-38.096-28.528-86.848-34.496-111.808-34.496-25.6 0-35.12 9.28-38.216 11.844-1.088 5.024-4.128 23.886-4.128 88.008l0.224 214.528h159.408c35.344 0 64 28.656 64 64v95.968c0 35.344-28.656 64-64 64h-160.32v159.888c0 35.344-28.656 64-64 64v0z" />
<glyph unicode="&#xe00b;" glyph-name="social-facebook" d="M581.86 889.504c3.808 0 6-0.16 6-0.16h83.568l-0.432-96h-83.008c-45.68 0-44.624-39.008-44.624-39.008v-152.192h161.632l-22.56-95.882h-139.6v-489.886h-95.904l-0.064 489.886h-128.408l-0.256 95.882h128.812c0 0 0 118.386 0 149.184 0.016 130.080 108.048 138.186 134.944 138.186zM681.328 889.344h0.16zM581.86 943.504v0c-23.008 0-68.968-3.808-110.56-29.482-40.32-24.256-88.368-83.936-88.368-182.688v-85.184h-63.812c-18.008 0-33.312-6.884-45.344-18.816-12-12.064-18.82-28.368-18.656-45.408l0.256-95.882c0.128-35.248 28.852-63.886 64-63.886h63.408l0.064-415.886c0-35.344 28.656-64 64-64h95.904c35.344 0 64 28.656 64 64v415.886h85.6c28.4 0 53.408 18.82 61.408 45.968l22.56 95.882c5.68 19.344 1.904 40.256-10.192 56.368-12.064 16.16-31.056 25.664-51.216 25.664h-98.632v63.152l63.632 0.032c35.216 0 63.84 28.464 64 63.812l0.432 92.852c0.064 1.184 0.096 2.336 0.096 3.536 0 35.344-28.592 64-63.936 64h-81.936c-1.84 0.096-4.496 0.16-8.808 0.16v0z" />
<glyph unicode="&#xe00c;" glyph-name="social-dropbox" d="M1023.424 835.248c-0.82 10.224-6.288 19.482-14.986 24.912l-285.184 188.968c-11.6 8.216-26.432 6.32-38.056-2.288l-184.224-140.944-184.192 140.944c-10.592 8.56-25.536 9.536-38.056 2.288l-285.184-188.968c-8.688-5.44-14.256-14.688-14.986-24.912-0.852-10.224 3.482-20.16 11.312-26.852l165.216-138.816-141.536-111.184c-8.096-6.32-12.624-16.186-12.224-26.416s5.68-19.664 14.224-25.36l130.986-88.312c-6.432-5.84-10.544-14.208-10.544-23.6v-128.336c0-11.12 5.886-21.44 15.248-28.28l321.968-182.432c5.12-3.152 10.944-4.82 16.852-4.82s11.632 1.6 16.884 4.852l318.224 182.432c9.482 5.84 15.216 16.16 15.216 28.248v150.528c0 2.064-0.24 4.080-0.608 6.032l124.048 82.688c8.528 5.68 13.808 15.088 14.224 25.328 0.4 10.256-4.096 20.080-12.16 26.416l-140.912 111.152 165.312 138.88c8.856 6.592 12.080 16.528 11.328 26.852zM836.682 569.344l-224.688-140.884-224.688 140.884 224.688 146.224 224.688-146.224zM86.8 829.152l228.464 142.592 142.368-115.184-228.344-148.968-143.488 120.56zM229.92 529.886l225.968-141.6-128.064-98.032-218 145.312 120.096 94.32zM222.016 283.886l89.344-59.568c11.344-8.568 26.32-8.056 38.184 1.216l129.408 99.040v-282.8l-255.936 143.68v98.432zM898.208 185.344l-256.256-145.68v288.886l132.656-101.968c5.812-4.4 12.624-6.624 19.504-6.624 6.192 0 12.368 1.886 18.844 5.386l86.336 58.568v-96.448zM913.456 435.52l-218.032-145.328-128.44 98.936 226 141.632 119.482-94.24zM893.664 608.592l-228.344 148.968 142.4 115.184 228.464-142.592-143.52-120.56z" />
<glyph unicode="&#xe00d;" glyph-name="social-dribbble" d="M511.984 959.828c-69.856 0-136.464-14.112-198.184-39.568-2.112-0.682-4.186-1.552-6.144-2.682-181.264-88.816-308.384-259.552-308.384-469.504 0-282.16 229.568-511.812 511.812-511.812 282.192 0 511.844 229.568 511.844 511.812 0 282.192-229.552 511.844-511.844 511.844zM959.828 448.984c0-3.584-0.192-8.12-0.282-10.682-49.024 13.008-183.392 38.44-326.8 3.844-13.52 30.896-28.512 62.586-45.28 94.816-1.408 2.804-2.884 5.28-4.186 8.952 164.128 63.344 233.888 148.682 262.868 201.952 80.688-89.216 113.86-183.552 113.86-298.892zM898.536 892.56c-14.912-35.2-69.040-126-244.82-191.888-88.896 144.224-140.224 230.682-184.592 284.64 42.256 13.264 88.184 20.416 133.86 20.416 108.432 0 208.984-38.868 285.552-103.168zM316.048 850.48c28.216-33.28 90.384-118.056 185.104-280.448-200-60.288-362.448-53.040-418.832-48.892 26.816 140.144 119.082 258.312 243.828 318.24zM64.282 448.984c0 6.896 0.208 13.844 0.528 20.586 19.248-1.936 49.152-4.080 88.288-4.080 86.896 0 218.812 10.852 369.008 58.144 2.848-5.386 5.664-10.836 8.544-16.282 14.432-28.886 28.488-55.184 39.408-82.064-28.386-8.608-55.392-19.082-83.882-31.968-182.624-82.804-268.192-200.804-298.682-252.336-86.282 80.32-123.232 188.852-123.232 308zM236.096 95.86c16.24 30.852 90.608 154.080 286.448 238.256 28.968 12.682 55.52 22.884 82.384 30.912 60.836-154.32 81.808-281.568 88.186-330.592-52.852-21.904-110.528-34.064-181.12-34.064-104.016 0-199.892 35.86-285.888 95.488zM843.616 64.96c-9.232 61.6-32.144 188.392-85.968 315.664 148.448 29.552 265.952 0.56 295.616-8.080-22.224-130.208-100.836-241.488-209.648-308.584z" />
<glyph unicode="&#xe00e;" glyph-name="shield" d="M908.952 815.52c-11.882 11.088-28.504 18.216-43.664 18.216-1.482 0-2.944-0.064-4.4-0.16-0.912-0.064-11.184-0.688-28.28-0.688-26.656 0-88.688 1.808-128.968 13.936-63.664 15.632-138.12 88.16-158.496 102.464-10.852 8.184-23.152 10.884-35.568 10.884-12.368 0-24.884-3.6-35.536-10.852-2.592-1.844-89.504-84.032-154.852-102.496-49.248-12.128-102.288-13.936-128.912-13.936-16.096 0-26.368 0.624-28.386 0.688-1.408 0.096-2.816 0.16-4.224 0.16-16.192 0-31.882-6.16-43.886-18.28-12.944-12.096-20.32-29.008-20.32-46.82v-160.032c0-591.632 388.12-668.808 403.568-680.884 3.844-0.656 8.536-1.008 11.312-1.008s8.6 0.336 11.312 1.008c16.432 2.986 406.4 89.152 406.4 680.884v160.032c0.032 18.844-8.344 34.688-20.32 46.884zM864.304 608.804c0-544.912-353.812-608.886-353.812-608.886s-350.88 62.88-350.88 608.886c0 139.68 0 160.032 0 160.032s12.096-0.848 31.68-0.848c33.568 0 90.032 2.464 144.16 15.886 88.624 21.844 185.024 111.408 185.024 111.408s90.256-89.664 188.884-111.408c54.192-13.312 109.68-15.886 143.248-15.886 19.568 0 31.68 0.848 31.68 0.848s0.016-20.352 0.016-160.032zM648.6 613.86c-12.496 12.496-32.868 12.496-45.248 0l-90.512-90.512-90.512 90.512c-12.496 12.496-32.868 12.496-45.264 0s-12.496-32.868 0-45.248l90.512-90.512-90.512-90.512c-12.496-12.48-12.496-32.852 0-45.248s32.868-12.496 45.264 0l90.512 90.512 90.512-90.512c12.48-12.496 32.852-12.496 45.248 0s12.496 32.868 0 45.248l-90.512 90.512 90.512 90.512c12.496 12.48 12.496 32.852 0 45.248z" />
<glyph unicode="&#xe00f;" glyph-name="screen-tablet" d="M832.144 960h-640.288c-53.024 0-96-42.986-96-96v-832c0-53.024 42.986-96 96-96h640.288c53.024 0 96 42.986 96 96v832c0 53.024-42.986 96-96 96zM864.144 32c0-18.664-14.336-32-32-32h-640.288c-18.664 0-32 14.336-32 32v832c0 18.664 14.336 32 32 32h640.288c18.664 0 32-14.336 32-32v-832zM512.048 159.824c-35.28 0-63.84-28.592-63.84-63.824s28.56-63.84 63.84-63.84c35.264 0 63.84 28.608 63.84 63.84s-28.586 63.824-63.84 63.824zM586.048 864h-128c-18.664 0-32-14.336-32-32s14.336-32 32-32h128c18.664 0 32 14.336 32 32s-14.336 32-32 32z" />
<glyph unicode="&#xe010;" glyph-name="screen-smartphone" d="M804.144 960h-384.288c-53.024 0-96-42.986-96-96v-832c0-53.024 42.986-96 96-96h384.288c53.024 0 96 42.986 96 96v832c0 53.024-42.986 96-96 96zM836.144 32c0-18.664-14.336-32-32-32h-384.288c-18.664 0-32 14.336-32 32v832c0 18.664 14.336 32 32 32h384.288c18.664 0 32-14.336 32-32v-832zM512.048 159.824c-35.28 0-63.84-28.592-63.84-63.824s28.586-63.84 63.84-63.84c35.28 0 63.84 28.608 63.84 63.84s-28.56 63.824-63.84 63.824zM586.048 864h-128c-18.664 0-32-14.336-32-32s14.336-32 32-32h128c18.664 0 32 14.336 32 32s-14.336 32-32 32z" />
<glyph unicode="&#xe011;" glyph-name="screen-desktop" d="M960 864.192h-896c-35.184 0-64-28.8-64-64v-544.192c0-35.184 28.816-63.984 64-63.984h416v-96.208h-160c-18.664 0-32-14.336-32-32s14.336-32 32-32h384c18.664 0 32 14.336 32 32s-14.336 32-32 32h-160v96.208h416c35.184 0 64 28.8 64 63.984v544.192c0 35.2-28.816 64-64 64zM960 256h-896v544.192h896v-544.192z" />
<glyph unicode="&#xe012;" glyph-name="plane" d="M934.32 894.096v0c10.432 0 18.886-1.936 21.6-3.408 4.592-12.224 10.852-56.032-34.528-101.344l-230.992-230.986 1.664-28.656c3.504-59.968 10-168.44 15.6-259.568 4.944-82 9.632-159.44 9.936-166.032 0.16-4.528 0.224-5.6-4-10.688-9.44-11.482-28.056-30.912-41.904-48.024-23.024 62.032-81.408 193.056-98.128 266.4l-34.336 94.368-81.024-81.024-130.608-125.584-18.192-18.16-0.56-25.68c-0.432-20.496-0.336-58.28-0.288-89.812 0.064-22.592 0.128-43.12-0.032-54.432-0.288-0.528 4.368-1.152 3.936-1.904-2.884 4.464-5.886 9.28-8.944 14.288-26.336 42-62.884 100.096-83.904 118.224l-8.128 13.28-13.344 8.064c-48.528 29.312-102.288 63.152-135.088 84.288 1.136 0.656 2.064-2.816 2.816-2.416h2.128c10.32 0 28.386-0.224 46.496-0.496 25.008-0.336 53.386-0.852 85.088-0.852 8.32 0 15.812 0.064 21.664 0.192l25.68 0.592 18.16 18.16 125.844 129.812 80.884 80.852-93.936 34.56c-80.592 25.968-205.808 86.464-269.056 100.224 16.224 14.944 35.886 32.688 48.184 42.128 3.184 2.624 5.664 3.968 8.386 3.968l2.256-0.064c8.056-0.336 94.688-6.064 189.408-11.6 89.936-5.882 191.44-12.496 249.152-16.16l28.848-1.808 231.024 231.040c32.448 32.4 64.32 38.248 80.448 38.248zM934.32 958.096c-38.808 0-84.224-14.528-125.68-56l-210.608-210.592c-118.624 8.504-422.432 28.6-429.968 28.808-1.344 0.064-3.008 0.128-4.88 0.128-10.256 0-28.968-1.968-48.128-18.624-23.664-19.568-83.008-65.968-83.008-65.968-11.904-11.936-18.936-26.82-16.496-40.624 0.88-8.4 5.44-23.812 26.064-31.886 12.528-4.912 211.904-89.504 303.968-113.386l-125.844-129.812c-5.568-0.128-12.464-0.192-20.256-0.192-38.336 0-98.886 1.248-121.6 1.248-3.152 0-5.68 0-8.482-0.064-8.248-0.224-22.256 3.344-61.84-29.844l-2.816-2.624c-11.882-11.882-14.656-23.812-14.912-31.536-0.256-8.064 1.904-19.68 13.568-29.024 8.008-5.664 96.848-63.184 180.528-108.68 18.664-28.816 98.944-158 103.184-165.008 6.192-10.464 16.32-16.432 28.432-16.816 0.336 0 0.656 0 1.008 0 11.886 0 23.882 5.84 35.812 18.344 33.504 39.184 28.88 55.408 29.024 62.224 0.528 21.386-0.368 111.936 0.4 148.84l130.592 125.6c33.386-91.68 106.336-289.008 111.216-301.568 8.128-20.624 23.44-25.152 31.84-26 1.386-0.16 2.884-0.224 4.16-0.224 12.624 0 25.812 5.936 36.432 16.656 0 0 46.256 49.088 65.904 82.986 19.68 23.882 18.912 44.256 18.528 53.882-0.16 6.656-18.688 308.816-25.568 426.816l210.656 210.656c84.656 84.688 62.884 164.688 35.056 192.368-12.24 12.304-38.024 21.616-68.296 21.616v0z" />
<glyph unicode="&#xe013;" glyph-name="notebook" d="M849.152 960h-638c-46 0-66.032-34-66.032-66v-128.312h-34.928c-18.312 0-31.344-14.032-31.344-31.344s14.032-31.344 31.344-31.344h34.928v-128.852h-31.936c-18.312 0-31.344-14.032-31.344-31.344s14.032-31.344 31.344-31.344h31.936v-129.44h-32.624c-18.312 0-31.344-14.032-31.344-31.344s14.032-31.344 31.344-31.344h32.624v-128.464h-32.624c-18.312 0-31.344-14.032-31.344-31.344s14.032-31.344 31.344-31.344h32.624v-129.28c0-53.024 41.536-64 64.528-64h639.504c53.024 0 96 42.986 96 96v832c0 53.024-42.96 96-96 96zM209.12 0v129.28h33.344c18.312 0 31.344 14.032 31.344 31.344s-14.032 31.344-31.344 31.344h-33.344v128.464h33.344c18.312 0 31.344 14.032 31.344 31.344s-14.032 31.344-31.344 31.344h-33.344v129.44h34.032c18.312 0 31.344 14.032 31.344 31.344s-14.032 31.344-31.344 31.344h-34.032v128.852h31.024c18.312 0 31.344 14.032 31.344 31.344s-14.032 31.344-31.344 31.344h-31.024v128.312c0 0.852 0.064 1.386 0.16 1.936 0.496 0.032 1.12 0.064 1.882 0.064h510v-896h-512.032zM881.152 32c0-18.664-14.336-32-32-32h-64v896h64c18.664 0 32-14.336 32-32v-832z" />
<glyph unicode="&#xe014;" glyph-name="mustache" d="M892.848 223.28c-101.344 0-158.864 48.632-196.944 89.152-13.482 11.152-25.828 21.904-36.88 31.664-16.912 14.848-38 33.344-45.344 35.904-0.224 0-3.812 0.16-3.936 0.192-1.168-0.096-4.144-0.688-4.448-0.82-5.082-2.064-23.088-18.568-38.568-30-13.136-11.28-28.112-24.16-45.040-38.386l-3.088-2.368c-43.482-33.936-98.584-86.16-193.152-86.16-80.992 0-140.928 32.128-182.586 83.882-28.92 34.688-58.296 95.024-38.682 185.482 2.256 10.944 10.016 19.904 20.432 23.632 10.48 3.886 22.016 1.812 30.608-5.386 0.624-0.464 22.586-18.344 59.056-18.344 18.368 0 38.504 4.336 56.832 12.944 33.136 14.852 56.836 56.128 81.812 84.064 34.186 38.16 82.848 81.408 136.688 81.904 44.048 0 83.892-16.288 119.248-48.496 35.312 32.064 84.868 48.256 118.68 48.256 65.104-0.496 104.592-43.886 139.44-82 25.44-28.882 49.482-69.216 82.608-83.968 19.328-8.592 38.682-12.944 58.488-12.944 38.882 0 61.504 18.312 62.448 18.064 8.868 6.496 20.32 8.192 30.48 4.224 10.144-4 18.68-12.88 19.812-23.664 18.088-89.44-12.96-149.408-41.184-183.968-42.868-52.4-113.904-84.96-185.6-84.96zM510.836 434.128c0.992 0 3.68-0.096 4.624-0.192 0.032 0 4.688-0.336 4.688-0.368 0.336-0.032 3.008-0.368 3.296-0.432 23.152-3.28 44.624-22.128 88.216-50.688 10.804-9.408 22.496-19.844 35.482-30.496 34.884-28.816 88.096-64.656 156.816-64.656 53.312 0 105.844 23.632 136.884 61.68 20.4 24.986 31.008 54.82 31.68 88.884-15.024-4.688-33.28-8.192-54.32-8.192-28.664 0-55.568 6.192-82.986 18.368-45.248 20.096-86.304 69.12-103.68 99.152-34.528 38.882-58.482 61.088-92.080 61.386-46.16 0-85.952-29.056-94.416-50.912-6.032-8.12-14.816-11.216-24.096-11.216v0c-9.28 0-18.080 4.128-24.080 11.248-18.528 21.936-48.416 51.12-93.84 51.12-35.088-0.256-58.408-23.28-90.992-60.848-28.056-30.224-58.696-89.482-103.232-99.68-28.392-12.192-55.104-18.368-82.304-18.368-20.4 0-38.064 3.408-52.624 8.032-0.032-34.82 10.112-64.912 30.336-90.032 29.936-38.152 81.040-60.256 133.44-60.256 84 0 114.896 31.936 154.464 62.816l3.088 2.416c16.048 12.528 30.24 24.852 42.688 35.44 28.512 24.496 48.328 40.688 68.648 44.288v0c0.016-0.016 9.696 1.616 16.4 1.616z" />
<glyph unicode="&#xe015;" glyph-name="mouse" d="M513.584 960c-158.128 0-289.504-128.224-289.504-286.336v-451.312c0-158.128 131.386-286.352 289.504-286.352s286.352 128.224 286.352 286.336v451.328c0 158.112-128.224 286.336-286.352 286.336zM835.936 222.336c0-122.592-99.844-222.336-222.352-222.336s-225.504 99.844-225.504 222.336v451.328c0 122.592 102.912 222.336 225.504 222.336s222.352-99.844 222.352-222.336v-451.328zM512.336 868c-18.664 0-32-14.336-32-32v-160c0-18.664 14.336-32 32-32s32 14.336 32 32v160c0 18.664-14.336 32-32 32z" />
<glyph unicode="&#xe016;" glyph-name="magnet" d="M960.288 899.824v29.008c0 18.68-14.32 32-32 32h-224.624c-18.68 0-32-14.32-32-32v-130.656c0-0.048 0.032-0.096 0.032-0.144v-398.52c0-96.32-54.336-184.656-150.656-184.656s-168.656 88.336-168.656 184.656v499.312h-0.096v29.008c0 18.68-14.32 32-32 32h-224.624c-18.68 0-32-14.32-32-32v-130.656c0-0.656 0.336-1.2 0.368-1.84v-410.496c0-248.912 198.884-450.656 448.664-450.656s448.656 201.844 448.656 450.656v513.984h-0.064zM896.288 896.832v-128.336h-160.256v128.336h160.256zM288.288 896.832v-128.336h-160.256v128.336h160.256zM511.68-0.832c-213.216 0-383.664 183.482-383.664 386.656v318.682h160.336v-303.984c0-131.808 100.848-238.656 232.656-238.656s214.682 106.848 214.682 238.656v303.984h160.656v-318.682c0-213.184-181.424-386.656-384.656-386.656z" />
<glyph unicode="&#xe018;" glyph-name="magic-wand" d="M1020.512 530.624l-102.884 153.68 51.152 188.816c3.184 11.216 0.064 23.28-8.224 31.504-8.256 8.256-20.256 11.312-31.536 8.032l-188.512-52.128-154.288 103.904c-9.812 6.528-22.16 8.312-32.464 1.936-10.368-5.312-18.024-15.882-18.408-28.504l-5.536-185.936-146.496-114.592c-9.184-8.184-13.812-18.816-11.882-30.32s9.808-21.088 20.816-25.024l138.456-49.28c-0.928-0.836-1.904-1.392-2.868-2.256l-530.852-530.852c-12.496-12.496-12.496-32.852 0-45.248 6.256-6.256 14.432-9.386 22.624-9.386s16.368 3.12 22.624 9.386l530.852 530.852c2.064 2.064 3.664 4.4 5.040 6.816l53.892-148.552c4-10.944 13.632-18.848 25.152-20.656 1.632-0.256 3.28-0.368 4.912-0.368 9.808 0 19.184 4.528 25.312 12.432l113.886 148.168 183.904 6.56c11.664 0.4 22.16 8.12 28.44 18.536 5.264 10.384 4.448 22.848-2.112 32.48zM894.048 538.456c-9.504-0.32-18.368-4.88-24.192-12.4l-88.482-113.104-48.986 134.32c-3.248 8.944-10.32 15.936-19.28 19.152l-134.592 48.256 112.624 88.064c8.504 5.882 11.968 14.852 12.288 24.256l4.256 142.944 118.592-89.882c8.904-5.312 18.886-6.816 26.848-4.192l138.248 40.096-39.344-138.482c-2.592-9.152-1.008-18.986 4.336-26.848l80.56-118.128-142.896-5.082z" />
<glyph unicode="&#xe018;" glyph-name="hourglass" d="M833.056 895.392h-64.464v-215.408c0-104.384-56.656-183.36-188.096-245.2 126.064-63.808 189.104-142.16 189.104-259.082 0-86.128-0.336-140-0.592-185.12h64.064c18.68 0 32-14.288 32-31.968s-14.32-32-32-32h-642.128c-18.68 0-32 14.32-32 32s14.32 31.968 32 31.968h65.936c-0.24 35.12-0.592 99.008-0.592 185.12 0 116.912 52.288 195.248 188.144 259.056-121.232 61.84-188.136 140.816-188.136 245.2v215.424h-66.352c-18.68 0-32 14.304-32 32 0 18.664 14.32 31.984 32 31.984h642.128c18.68 0 32-14.32 32-31.984-0.016-18.696-14.32-32-32.016-32zM320.282 185.812c0-86.288 0.352-140.224 0.592-185.12h384.186c0.224 34.912 0.592 98.848 0.592 185.12 0 89.008-33.12 158.032-193.184 224.4-160.016-66.368-192.186-135.392-192.186-224.4zM804.624 895.392h-383.36v-215.408c0-61.386 20.64-140.416 191.168-210.528 180.56 80.112 192.192 149.152 192.192 210.528v215.408z" />
<glyph unicode="&#xe019;" glyph-name="graduation" d="M990.848 263.696v258.144l16.096 8.496c10.464 5.44 18.056 16.224 18.184 28.032 0.128 11.886-6.256 22.688-16.592 28.368l-481.44 258.6c-9.632 5.28-21.28 5.248-30.986-0.096l-488.8-258.92c-10.192-5.68-16.496-16.464-16.432-28.16s6.496-22.4 16.816-28.968l210.384-111.984c-2.64-4.656-4.282-9.968-4.282-15.696v-280.884c0-9.12 3.904-18.84 10.82-23.904 6.944-6.16 83.44-60.096 286.852-60.096 202.592 0 280.88 50.986 288 56.884 8.44 6.064 11.844 15.152 11.844 24.884v288.828c0 4.496-0.944 8.868-2.608 12.64l129.424 68.368v-224.512c-18.986-11.104-31.84-31.482-31.84-55.024 0-35.344 28.656-64 64-64s64 28.656 64 64c0 23.696-13.040 44.144-32.16 55.2zM836.032 148.632c-25.152-12.096-91.812-35.904-225.844-35.904-134.88 0-199.936 25.344-223.482 38.536v238.136l208.808-110.624c4.82-2.56 9.968-3.84 15.184-3.84 5.088 0 10.192 1.216 14.816 3.664l211.408 111.664v-239.632zM510.064 340.192l-411.6 218.56 412.32 220.986 413.6-220.336-414.32-219.2z" />
<glyph unicode="&#xe01a;" glyph-name="ghost" d="M511.984 960.128c-229.216 0-415.68-199.904-415.68-445.6v-546.682c0-13.216 8.16-25.088 20.496-29.84 3.812-1.482 8.632-2.16 11.504-2.16 8.848 0 18.536 3.68 23.812 10.528l120.592 133.12 94.432-130.432c5.968-8.256 15.504-13.152 25.68-13.216h0.224c10.096 0 19.632 4.884 25.664 12.912l94.816 128.344 93.184-128.152c6.032-8.224 15.6-13.088 25.808-13.088 10.192 0 19.886 4.848 25.808 13.056l95.568 130.288 118-132.624c8.816-9.904 22.944-13.386 35.28-8.624 12.4 4.82 20.624 16.624 20.624 29.904v546.682c0 245.68-186.496 445.584-415.812 445.584zM863.696 51.968l-88.4 99.386c-6.432 8.216-15.808 11.312-25.408 10.688-9.664-0.464-18.592-5.248-24.32-13.024l-93.12-128.008-93.008 126.912c-6 8.192-15.536 13.056-25.68 13.088h-0.128c-10.128 0-19.632-4.884-25.664-12.912l-94.688-128.152-92 128.088c-5.664 8.808-14.528 12.656-24.16 13.152-0.592 0.032-1.152 0.064-1.844 0.064-9.008 0-18.632-3.808-23.812-10.528l-91.386-100.848v463.68c0 210.4 158.886 381.6 351.68 381.6 193.936 0 351.812-181.184 351.812-381.6v-462.586zM682 608.84c-35.28 0-63.84-28.592-63.84-63.808 0-35.248 28.56-63.84 63.84-63.84s63.84 28.592 63.84 63.84c0 35.216-28.56 63.808-63.84 63.808zM352 608.84c-35.28 0-63.84-28.592-63.84-63.808 0-35.248 28.586-63.84 63.84-63.84s63.84 28.592 63.84 63.84c0 35.216-28.56 63.808-63.84 63.808z" />
<glyph unicode="&#xe01b;" glyph-name="game-controller" d="M843.216 884.448c-25.6 12.016-49.808 23.328-81.84 34.384-56.464 28.288-108.664 42.032-156.464 42.032-98.288 0-166.304-56.804-208.96-99.36l-206.848-208.082c-110.688-110.8-128.368-223.6-58.264-365.808 11.024-22.080 22.368-46.336 34.368-82.032 64.804-138.384 131.584-281.488 241.056-281.488 3.082 0 6.112 0.096 9.216 0.336 112.986 8.848 145.024 154.288 183.312 282.592 4.496 20.32 8.852 39.808 13.12 58.28 8.6 30.208 22.56 48.986 63.552 90.064l5.632 5.664 3.482 3.482 9.12 9.088c41.088 41.088 59.856 56.032 90.096 63.664 18.312 4.352 36.852 8.64 58.024 13.088 128.224 28.304 283.6 60.368 282.4 183.52 8.88 114.832-138.464 183.84-280.992 250.586zM958.464 639.664c-6.224-89.886-184.816-103.328-291.104-129.984-48.008-11.882-85.616-36.852-118.884-89.936-3.008-3.008-6.032-6.016-9.088-9.082-3.024-3.024-6.032-6.096-9.056-9.088-43.168-43.216-68-81.808-89.824-118.88-26.682-106.384-50.192-285.168-129.882-291.44-1.44-0.112-2.88-0.144-4.32-0.144-84.544 0-155.68 192.24-218.448 318.664-63.844 128.504-36.432 210.224 45.36 292.096 15.696 15.828 35.216 35.248 59.136 59.184 24.432 24.464 53.488 53.552 88.92 88 23.904 23.936 43.408 43.424 59.12 59.184 50.8 50.848 101.936 80.64 163.92 80.64 38.808 0 89.632-11.056 128.882-35.248 128.456-63.904 323.888-136.48 318.168-222.986zM488.884 608.82h64v64h-64v-64zM488.884 804.82h64v64h-64v-64zM584.884 804.82h64v64h-64v-64zM584.884 608.82h64v64h-64v-64zM329.888 416.56l24.336 24.336c12 12 12 31.482 0 43.456-12 12-31.44 12-43.44 0l-24.352-24.352-24.352 24.352c-12 12-31.44 12-43.44 0s-12-31.456 0-43.456l24.352-24.352-24.352-24.352c-12-11.984-12-31.44 0-43.44s31.456-12 43.44 0l24.352 24.336 25.056-25.056c12-12 31.44-12 43.44 0s12 31.482 0 43.482l-25.040 25.056z" />
<glyph unicode="&#xe01c;" glyph-name="fire" d="M508.416-63.28c-241.248 0-412.368 168.28-412.368 398.886 0 122.368 83.386 254.192 86.496 259.812 6.368 11.344 18.88 18.504 31.936 16.064 12.912-1.664 23.536-10.986 26.88-23.568 0.192-0.852 19.968-84.852 46.064-115.84 18.536-28.648 35.312-48.184 55.312-60.852-13.536 58.656-23.904 146.912-8.024 238.482 46.336 248.586 241.984 308.048 250.368 310.448 10.884 3.088 22.224 0.32 30.432-8.152 8.192-8.504 11.936-18.852 9.808-29.664-0.32-1.844-32.624-185.886 35.936-324.064 6.224-13.482 14.912-29.12 24.256-44.884 2.656 21.504 6.884 44.368 13.12 66.56 25.152 88.968 90.192 118 92.944 119.216 10.848 4.944 23.504 3.312 32.88-4.032 9.344-8.386 13.84-19.28 11.68-31.008-0.336-2.16-9.408-62.032 41.536-146.944 46-86.682 59.28-126.368 59.28-221.68 0-230.48-186.432-398.86-419.536-398.86zM195.696 492.32c-18.568-44.304-35.664-103.248-35.664-158.808 0-193.408 144.192-333.886 348.368-333.886 206 0 355.536 140.368 355.536 333.886 0 83.536-10.32 122.32-50.16 188.852-26.624 44.368-39.886 84.256-46.064 116-6.336-10.256-12.224-22.884-16.528-38.882-19.504-68.192-14.592-148.936-14.528-148.852 0.944-14.282-8.844-28.482-21.248-32.256s-28.528-0.064-36.816 11.664c-2.4 3.408-59.312 83.968-84.4 138.24-52.096 112.592-51.216 234.336-45.904 304.464-52.82-30.82-133.664-99.344-159.664-238.912-25.312-135.808 23.882-281.6 24.4-282.944 4.256-11.088 2-23.664-5.808-32.592-8.84-8.88-19.904-12.816-31.536-10.032-3.968 0.986-94.032 24.4-152.336 116.288-10.416 16.464-19.86 36.384-28.648 55.86z" />
<glyph unicode="&#xe01d;" glyph-name="eyeglass" d="M1025.386 308.208c-0.986 13.84-53.008 319.312-61.152 368.224-0.884 4.688-1.408 9.68-2.096 14.944-6.288 49.152-18.032 140.624-165.482 140.624-18.68 0-32-14.32-32-32s14.32-32 32-32c91.12 0 95.936-38.408 102-84.884 0.884-6.064 1.536-11.882 2.432-18.28 3.844-22.528 20.804-112.16 35.344-201.024-38.552 28.624-84.288 45.808-135.12 45.808-81.648 0-154.32-43.952-194.282-109.36-19.216 8.264-51.824 16.336-95.392 16.336-42.944 0-84.512-9.136-94.032-18.088-38.848 65.824-110.304 110.128-192.282 110.128-53.264 0-102.836-18.82-141.84-49.84 14.832 89.984 32.4 182.032 36.208 205.024 0.912 5.408 1.664 11.216 2.432 18.28 6.064 48.386 10.88 84.884 102 84.884 18.68 0 32 14.32 32 32s-14.32 32-32 32c-148.44 0-159.184-91.482-165.482-140.624-0.688-5.248-1.312-10.256-2.096-14.944-8.16-48.912-58.008-352.368-58.968-366.224-0.224-3.088 0.144-6.048 0.852-8.944-0.304-4.624-0.82-9.216-0.82-13.904 0-123.344 103.344-223.344 226.688-223.344s223.344 100 223.344 223.344c0 18.656-2.544 36.682-6.848 53.984 13.12 5.28 36.832 12.336 69.808 12.336 32.186 0 56.464-6.432 80.304-11.328-4.608-18.632-8.328-35.968-8.328-54.992 0-123.344 103.344-223.344 226.688-223.344s223.344 100 223.344 223.344c0 3.344-0.352 6.608-0.496 9.92 0.986 3.488 1.52 8.136 1.232 10.944zM225.344 128.016c-88.192 0-162.688 82.986-162.688 159.344s84.496 159.344 162.688 159.344c88.882 0 159.344-81.482 159.344-159.344s-81.482-159.344-159.344-159.344zM801.312 128.016c-88.192 0-162.688 82.986-162.688 159.344s84.496 159.344 162.688 159.344c86 0 139.632-53.488 155.456-124.884 0.656-6.528 1.2-12.682 1.616-18.288 0.192-2.688 0.912-5.216 1.84-8.664 0.16-2.88 0.432-5.812 0.432-8.624 0-88.856-81.482-159.328-159.344-159.328z" />
<glyph unicode="&#xe01e;" glyph-name="envelope-open" d="M1023.312 486.804c-1.36 11.312-5.616 21.812-12.096 30.464h0.16l-0.88 0.88c-3.28 4.32-8.12 8.128-11.408 11.504l-418.28 403.408c-36.224 36.224-99.504 36.288-135.886 0l-418.216-400.256c-9.024-8.4-28.88-31.088-28.88-53.344v-489.52c0-35.184 28.816-64 64-64h896c35.184 0 64 28.816 64 64v488.256c0.224 2.88-0.064 5.86-0.624 8.608zM269.892 233.664l-205.856-189.568v381.184l205.856-181.616zM335.568 208.28c2.288 1.52 4.464 3.248 6.368 5.408 0.368 0.416 0.624 0.912 0.96 1.344l141.168 130c8.248 5.84 15.84 8.912 24.88 8.912 9.184 0 18.368-3.216 24.528-8l383.6-345.104h-806.836l225.232 208.44zM858.456 229.44l202.48 189.696v-361.84l-202.48 182.144zM103.886 518.168l388.504 380.544c6.064 6.032 14.096 9.386 22.624 9.386 8.56 0 16.592-3.344 22.656-9.386l361.386-344.352h-0.986l54.896-55.892-242.304-215.040-135.248 121.664c-38.68 29.536-91.886 30.816-131.68-1.386l-125.504-115.584-241.892 213.344 26.992 26.592h1.456z" />
<glyph unicode="&#xe01f;" glyph-name="envolope-letter" d="M1023.312 486.82c-1.36 11.312-5.616 21.812-12.096 30.464h0.16l-0.88 0.88c-3.28 4.32-8.12 8.128-11.408 11.504l-168.152 168.384v103.264c0 18.68-14.32 32-32 32h-101.328l-116.8 99.812c-36.224 36.224-99.504 36.288-135.886 0l-116.4-99.812h-105.696c-18.68 0-32-14.32-32-32v-105.386l-163.12-163.12c-18.344-11.482-28.88-31.088-28.88-53.344v-489.504c0-35.184 28.816-64 64-64h896c35.184 0 64 28.816 64 64v488.24c0.224 2.88-0.064 5.86-0.624 8.608zM268.864 234.496l-204.928-190.080v380.896l204.928-180.816zM330.56 204.496c4.224 1.808 8.128 4.528 11.386 8.224 1.812 1.936 3.056 4.064 4.224 6.256l138.904 128.936c8.248 5.84 15.84 8.912 24.88 8.912 9.184 0 18.368-3.216 24.528-8l383.84-348.936h-808.312l220.56 204.608zM858.336 230.282l201.6 188.896v-361.632l-201.6 182.836zM898.936 543.386h-0.986l54.896-55.892-119.92-106.432v228.208l66-65.984zM491.28 888.68c6.064 6.032 14.096 9.386 22.624 9.386 8.56 0 16.592-3.344 22.656-9.386l64.624-54.464h-184.432l64.528 54.464zM868.936 869.216v-444.848l-58.312-50.88-136.32 123.568c-38.68 29.536-91.886 30.816-131.68-1.386l-126.624-118.44-60.064 53.008v438.968h512zM103.886 518.184l88.16 88.128v-218.616l-116.624 102.896 26.992 26.592h1.482z" />
<glyph unicode="&#xe020;" glyph-name="energy" d="M595.344 895.28h0.186zM595.344 895.28l-82.208-389.386 261.584-0.88-356.064-514.304 82.208 418.386-261.568 0.912 356.048 486.282zM595.392 959.28c-1.828 0-3.456-0.064-5.152-0.192-11.296-0.912-18.884-4.688-28.664-10.656-4.928-3.28-9.44-8.28-13.392-11.936-1.168-1.386-2.282-2.816-3.296-4.288l-358.608-484.608c-14.16-19.408-16.24-45.024-5.36-66.432 10.864-21.408 32.832-34.986 56.912-35.152l184.836-1.344-58.080-342.192c-5.52-29.408 10.16-58.82 38.86-80.528 8.224-3.536 16.864-5.216 25.392-5.216 20.112 0 36.64 9.408 49.040 26.4l359.056 514.304c14.16 19.408 16.224 45.056 5.36 66.432-10.864 21.408-32.832 34.986-56.912 35.152l-184.836 0.32 58.456 300.88c1.2 4.848 1.824 9.882 1.824 15.056 0 34.624-28.568 62.848-62.064 63.968-0.868 0.032-1.52 0.032-2.282 0.032v0z" />
<glyph unicode="&#xe021;" glyph-name="emotsmile" d="M881.264 352.848c-16.256 8.28-35.088-0.064-42.256-16.192-0.656-1.424-66.128-144.208-229.44-146.128-1.008 0-2-0.032-3.008-0.032-153.664 0-219.936 140.368-222.688 146.4-8.312 16-26.192 23.12-42.32 15.882-16.096-8.28-23.248-26.208-15.968-42.336 3.408-8.568 85.386-183.936 280.848-183.936 1.28 0 2.592 0.032 3.882 0.032 203.882 2.4 283.84 186.656 288.12 184.064 8.248 16.16-0.032 35.082-16.16 42.256zM512 960c-282.884 0-512-229.216-512-512s229.216-512 512-512 512 229.216 512 512-229.216 512-512 512zM512 0c-248.024 0-448 200.986-448 448s200.986 448 448 448 448-200.986 448-448-200.986-448-448-448zM351.504 480.186c35.264 0 63.84 28.592 63.84 63.824s-28.586 63.824-63.84 63.824c-35.28 0-63.84-28.592-63.84-63.824s28.56-63.824 63.84-63.824zM681.504 480.186c35.264 0 63.84 28.592 63.84 63.824s-28.586 63.824-63.84 63.824c-35.28 0-63.84-28.592-63.84-63.824s28.56-63.824 63.84-63.824z" />
<glyph unicode="&#xe022;" glyph-name="disc" d="M512 960c-282.884 0-512-229.216-512-512s229.216-512 512-512 512 229.216 512 512-229.216 512-512 512zM960 448c0-66.32-14.592-129.264-40.56-185.936l-283.216 151.552c3.024 10.986 4.884 22.464 4.884 34.384 0 81.248-58.844 129.008-129.008 129.008-14.624 0-28.624-2.544-41.812-8.024l-169.616 282.912c62.992 33.84 134.944 53.104 211.328 53.104 248.024 0 448-200.986 448-448zM512 512.992c35.84 0 65.008-29.152 65.008-65.008s-29.168-64.992-65.008-64.992-64.992 29.168-64.992 65.008 29.152 64.992 64.992 64.992zM246.586 808.624l180.186-283.84c-0.852-0.832-1.536-1.648-2.288-2.512l-283.168 151.52c30.208 48.586 69.392 90.986 115.28 124.832zM64 448c0 63.68 13.44 124.256 38.504 189.168l284.368-152.16c-1.856-8.82-2.88-18.828-2.88-28.008 0-81.248 58.844-129.008 129.008-129.008 12.4 0 24.352 1.84 35.696 5.104l180.192-283.892c-61.68-32.048-131.664-50.304-205.888-50.304-248.024 0-448 200.986-448 448zM882.448 83.84l-169.504 282.688c0.496 0.496 0.96 1.024 1.456 1.536l284.288-152.144c-30.852-48.632-80.24-89.088-116.24-122.080z" />
<glyph unicode="&#xe023;" glyph-name="cursor-move" d="M1016.4 463.36l-8.48 8.080c-0.16 0.16-0.336 0.224-0.528 0.368l-129.844 118.432c-9.344 8.944-24.448 8.944-33.824 0l-5.488-8.064c-9.344-8.944-6.304-23.408 3.040-32.336l86.464-69.344h-381.344v383.344l69.344-86.464c8.944-9.344 23.408-12.384 32.336-3.024l8.064 5.482c8.944 9.386 8.944 24.48 0 33.84l-113.168 123.968c-2.852 5.552-8.008 10.144-12.32 13.296l-1.424 1.488c-4.432 4.682-10.336 8.008-16.224 6.986-5.904 0.032-11.886-2.304-16.288-6.986l-8.096-8.464c-0.16-0.16-0.186-0.368-0.336-0.544l-115.504-128.844c-8.928-9.328-8.928-24.448 0-33.824l8.064-5.482c8.928-9.344 23.424-6.32 32.368 3.024l69.152 88.104v-385.984h-386.304l86.464 69.344c9.344 8.944 12.384 23.408 3.040 32.336l-5.482 8.064c-9.36 8.944-24.496 8.944-33.84 0l-123.984-113.184c-5.536-2.836-10.128-8.008-13.28-12.288l-1.488-1.424c-4.688-4.448-8.008-10.352-6.986-16.24-0.016-5.904 2.288-11.886 6.986-16.288l8.464-8.096c0.16-0.16 0.368-0.186 0.528-0.336l128.844-115.504c9.344-8.928 24.464-8.928 33.84 0l5.482 8.064c9.344 8.944 6.304 23.44-3.040 32.368l-88.12 69.152h389.008v-386.96l-69.152 88.104c-8.944 9.344-23.44 12.368-32.368 3.024l-8.064-5.482c-8.928-9.386-8.928-24.496 0-33.824l115.504-128.844c0.16-0.186 0.192-0.368 0.336-0.528l8.096-8.48c4.512-4.682 10.384-8.008 16.288-6.986 5.882-0.032 11.886 2.304 16.224 6.986l8.096 8.48c0.16 0.16 0.224 0.336 0.368 0.528l118.432 129.844c8.944 9.344 8.944 24.464 0 33.824l-8.064 5.488c-8.944 9.344-23.408 6.304-32.336-3.040l-69.344-86.464v384.336h383.968l-88.104-69.152c-9.344-8.944-12.368-23.44-3.024-32.368l5.482-8.064c9.386-8.928 24.496-8.928 33.824 0l128.844 115.504c0.186 0.186 0.368 0.192 0.528 0.336l8.48 8.096c4.682 4.496 8.008 10.368 6.986 16.288 0.032 5.856-2.304 11.886-6.986 16.224z" />
<glyph unicode="&#xe024;" glyph-name="crop" d="M992 160h-128v593.904l119.456 119.296c12.48 12.496 12.48 32.868 0 45.264-12.496 12.496-32.868 12.496-45.264 0l-118.608-118.464h-595.584v128c0 18.68-14.32 32-32 32s-32-14.32-32-32v-128h-128c-18.68 0-32-14.32-32-32 0-18.664 14.32-32 32-32h128v-608c0-2.944 0.944-5.6 1.68-8.288 0.32-1.216 0.256-2.464 0.82-3.632 3.216-8.064 9.6-14.432 18.664-18.68 1.386-0.56 2.88-0.496 4.288-0.848 2.528-0.64 4.928-1.552 8.648-1.552h608v-128c0-18.68 14.32-32 32-32s32 14.32 32 32v128h128c18.68 0 32 14.32 32 32s-14.32 32-32 32zM855.488 836l-531.488-530.884v530.884h531.488zM269.28 160l530.82 529.984v-529.984h-530.82z" />
<glyph unicode="&#xe025;" glyph-name="credit-card" d="M928.144 884h-832.288c-53.024 0-96-42.986-96-96v-480c0-53.024 42.986-96 96-96h832.288c53.024 0 96 42.986 96 96v480c0 53.024-42.986 96-96 96zM95.856 820h832.288c18.664 0 32-14.336 32-32v-64h-896.288v64c0 18.664 14.352 32 32 32zM928.144 186h-832.288c-18.664 0-32 14.336-32 32v288h896.288v-288c0-18.664-14.352-32-32-32z" />
<glyph unicode="&#xe026;" glyph-name="chemistry" d="M810.416-10.82l-180.4 201.664v353.504h21.312c18.68 0 32 14.32 32 32s-14.32 32-32 32h-53.312c-18.68 0-32-14.32-32-32v-398.824c0-8.936 2.944-15.568 8.256-21.44l130.368-158.344h-405.28l130.368 158.344c5.312 5.882 8.256 13.504 8.256 21.44v398.824c0 18.68-14.32 32-32 32h-53.312c-18.68 0-32-14.32-32-32s14.32-32 32-32h21.312v-353.504l-180.4-201.664c-8.464-9.386-10.624-22.88-5.504-34.432 5.152-11.568 16.592-19.008 29.248-19.008h549.344c12.656 0 24.096 8.44 29.248 19.008 5.12 11.552 2.986 25.056-5.504 34.432zM480 640.32c35.264 0 63.84 28.592 63.84 63.84 0 35.216-28.586 63.808-63.84 63.808-35.28 0-63.84-28.592-63.84-63.808 0-35.248 28.56-63.84 63.84-63.84zM688.48 835.312c62.368 0 112.928 50.336 112.928 112.416s-50.544 112.416-112.928 112.416c-62.352 0-112.928-50.336-112.928-112.416s50.586-112.416 112.928-112.416zM688.984 896.336c26.656 0 48.336-21.584 48.336-48.128 0-26.528-21.68-48.128-48.336-48.128s-48.336 21.6-48.336 48.128c0.016 26.544 21.68 48.128 48.336 48.128z" />
<glyph unicode="&#xe028;" glyph-name="bell" d="M905.616 248.112c-38.344 45.424-88.48 109.844-88.48 185.36v208.96c0 180.016-134.64 326.48-306.688 326.48-182.080 0-305.664-146.464-305.664-326.48v-208.96c0-64.512-55.488-125.488-90.682-182.8-31.648-42.512-56.624-86.096-39.86-109.664 14.832-29.536 51.968-33.328 82.656-33.328h183.36c0.048-94.208 86.448-180.586 180.682-180.586 94.24 0 180.64 86.368 180.688 180.586h188.664c19.52 0 65.152 0 80.864 33.2 15.856 33.616-9.52 64.512-44.64 108.232zM511.008 4.144c-58.216 0-103.632 46.352-103.812 103.536h208.424c-0.080-58.184-46.464-103.536-103.812-103.536zM869.392 185.808h-812.384c-4.896 0-8.992 0.16-12.368 0.368 6.592 10.208 16.282 23.248 24.144 33.856 38.992 52.4 104.144 126.368 104.144 213.424v208.96c0 142.464 103.040 258.352 238.52 258.352s238.56-115.888 238.56-258.352v-208.96c0-90.016 60.080-165.248 103.968-218.608 8.392-8.992 16.24-19.86 23.12-28.96-2.032-0.048-4.282-0.080-6.804-0.080z" />
<glyph unicode="&#xe028;" glyph-name="badge" d="M1021.056 120.032l-188.264 346.304c19.104 43.36 29.892 91.28 29.892 141.696 0 194.304-158.52 351.808-351.808 351.808-194.336 0-351.84-158.52-351.84-351.808 0-51.632 11.216-100.624 31.184-144.884l-188.096-343.056c-6.064-11.024-5.056-24.624 2.528-34.688 8.6-10.032 20.432-14.852 32.688-11.882l160.624 36.848 54.986-153.12c4.288-11.904 15.152-20.16 28.844-21.088 0.816-0.064 1.6-0.096 2.368-0.096 11.812 0 22.592 6.432 28.192 16.88l163.696 304.986c11.808-1.2 23.892-1.808 35.92-1.808 11.12 0 22.096 0.586 32.944 1.6l168.248-305.008c5.664-10.32 16.432-16.624 28.064-16.624 0.816 0 1.664 0.032 2.496 0.096 12.56 1.008 23.386 9.248 28.632 21.088l54.986 153.12 160.624-36.848c12.32-2.986 25.024 1.808 32.624 11.808 8.632 9.984 8.656 23.52 2.688 34.586zM289.886 46.656l-40.256 112.16c-5.504 15.248-21.482 24.128-38.28 20.368l-118.8-28.248 135.408 246.986c44.592-60.24 108.952-105.68 181.44-128.892l-120.512-224.464zM224.224 608.032c0 158.544 129.008 288.536 288.568 288.536 158.544 0 288.536-128.992 288.536-288.536s-128.992-288.568-288.536-288.568c-158.586 0-288.568 129.024-288.568 288.568zM811.844 189.184c-15.882 3.844-31.886-5.12-38.28-20.368l-40.528-112.986-123.152 224.56c85.44 22.096 140.336 68.836 185.504 130.836l134.848-249.328-119.392 28.386z" />
<glyph unicode="&#xe029;" glyph-name="anchor" d="M1021.024 228.592l-82.288 151.296c-0.128 0.208-0.096 0.4-0.224 0.592l-5.882 10.144c-3.28 5.616-8.432 9.232-14.192 10.592-5.696 1.408-11.984 0.544-18.408-2.986l-9.84-6.336c-0.192-0.112-0.304-0.288-0.496-0.416l-145.6-98.32c-10.88-8.008-14.416-21.68-8.936-32.912l6.544-8.2c6.48-11.184 21.264-11.648 32.16-4.64l88.040 59.184c-20.608-166-154.836-293.392-318.96-308.186v641.6h128.048c18.664 0 32 14.336 32 32s-14.336 32-32 32h-129.44c-0.24 0.832-0.448 1.664-0.868 2.464 58.104 13.28 99.696 64.368 99.696 125.536 0 81.248-58.844 129.008-129.008 129.008-81.248 0-128.992-58.844-128.992-129.008 0-60.816 42.112-111.664 98.836-125.28-0.336-0.88-0.586-1.808-0.848-2.82h-129.386c-18.664 0-32-14.336-32-32s14.336-32 32-32h128.984v-641.584c-164.186 14.884-298.16 142.128-318.816 308.112l86.944-59.12c10.88-8.008 25.664-6.544 32.144 4.64l6.56 8.2c6.48 11.216 2.944 25.904-8.952 32.912l-145.6 98.32c-0.192 0.144-0.304 0.32-0.48 0.416l-9.856 6.336c-5.408 3.52-11.696 4.368-18.408 2.986-5.844-1.36-10.912-4.992-14.192-10.592l-5.882-10.16c-0.112-0.192-0.096-0.384-0.208-0.592l-82.282-151.296c-6.496-11.168-2.944-25.882 8.952-32.896l9.12-3.424c10.88-6.992 24.256-0.64 30.852 10.544l48.904 88.986c29.386-204.82 205.104-358.824 413.28-358.824 208.064 0 383.92 153.088 413.36 358.812l48.84-88.864c6.496-11.184 19.888-18.536 30.868-10.544l9.12 3.424c10.896 8.024 14.448 21.828 8.952 32.896zM448.504 833.024c0 35.84 29.152 65.008 64.992 65.008s65.008-29.152 65.008-65.008-29.152-65.008-65.008-65.008c-35.824 0.016-64.992 29.168-64.992 65.008z" />
<glyph unicode="&#xe02a;" glyph-name="wallet" d="M1023.648 669.52c0.464 23.664-5.904 88.848-88.84 98.064l-822.416 144.624c-52.944 0-96-43.056-96-96v-128.804l-32 0.080c-52.852-0.224-95.632-43.152-95.632-95.968v-511.808c0-52.944 43.056-96 96-96h832.464c52.944 0 96 43.056 96 96l-0.586 589.812zM191.392 816.208c0 16.82 12.88 30.464 29.216 31.882l806-142.88c0.256-0.128-5.248-18.936-30.88-18.6h-804.336v128.608zM960.24 89.892c0-18.664-14.336-32-32-32h-832.48c-18.664 0-32 14.336-32 32v511.824c0 18.664 14.336 32 32 32h800.064c31.408 0 64.4 10.804 64.4 31.888v-585.812zM191.824 399.504c-35.344 0-64-28.656-64-64s28.656-64 64-64 64 28.656 64 64-28.656 64-64 64z" />
<glyph unicode="&#xe02b;" glyph-name="vector" d="M992 288h-32.282v1.616c0 161.92-86.528 303.808-215.664 382.384h160.816c11.088-19.040 31.504-32 55.12-32 35.344 0 64 28.656 64 64s-28.656 64-64 64c-23.632 0-44.032-12.96-55.12-32h-296.88v32c0 18.664-14.336 32-32 32h-128c-18.664 0-32-14.336-32-32v-32h-296.88c-11.088 19.040-31.488 32-55.12 32-35.344 0-64-28.656-64-64s28.656-64 64-64c23.632 0 44.032 12.96 55.12 32h160.8c-129.136-88.592-215.648-220.464-215.648-382.384v-1.616h-32.282c-18.664 0-32-14.336-32-32v-128c0-18.664 14.336-32 32-32h128c18.664 0 32 14.336 32 32v128c0 18.664-14.336 32-32 32h-31.828v1.616c0 188.448 122.464 328.682 288.828 381.392v-21.008c0-18.664 14.336-32 32-32h128c18.664 0 32 14.336 32 32v21.008c165.264-42.836 288.828-192.96 288.828-381.392v-1.616h-31.828c-18.664 0-32-14.336-32-32v-128c0-18.664 14.336-32 32-32h128c18.664 0 32 14.336 32 32v128c0 18.664-14.336 32-32 32zM128 160h-64v64h64v-64zM544 682h-64v64h64v-64zM960 160h-64v64h64v-64z" />
<glyph unicode="&#xe02c;" glyph-name="speech" d="M960 896.4h-896c-35.344 0-64-28.656-64-64v-588.504c0-35.344 28.656-64 64-64h128.536v-159.312c0-12.912 8.844-24.528 19.632-29.504 4-1.68 8.224-2.496 12.368-2.496 8.256 0 16.336 3.184 22.432 9.184l185.024 182.128h529.008c35.344 0 64 28.656 64 64v588.504c0 35.344-28.656 64-64 64zM960 254.912h-555.216l-149.248-146.912v146.912h-191.536v588.488h896v-588.488zM224 510.992h586c18.664 0 32 14.336 32 32s-14.336 32-32 32h-586c-18.664 0-32-14.336-32-32s14.336-32 32-32zM224 638.992h586c18.664 0 32 14.336 32 32s-14.336 32-32 32h-586c-18.664 0-32-14.336-32-32s14.336-32 32-32zM224 382.992h384c18.664 0 32 14.336 32 32s-14.336 32-32 32h-384c-18.664 0-32-14.336-32-32s14.336-32 32-32z" />
<glyph unicode="&#xe02d;" glyph-name="puzzle" d="M512-64.16c-20.288 0-39.386 8.882-53.844 22.192l-436.512 436.496c-29.536 29.68-29.536 88.952-0.064 108.568l159.904 159.882c9.882 9.882 25.024 12.224 38.44 5.844 12.368-6.464 19.12-20.224 16.688-33.968-1.632-9.152-2.368-16.496-2.368-23.12 0-80 56.986-128.144 128.008-128.144 80.096 0 121.28 58.144 121.28 128.144 0 80.096-51.184 128.088-121.28 128.088-6.56 0-13.882-0.852-23.024-2.368-13.882-2.56-28.504 4.32-33.968 16.688-6.464 12.4-4.128 28.568 5.844 38.44l149.088 149.12c28.88 28.852 88.816 28.688 108.568 0.064l109.152-109.216c22.884 80.816 89.28 122.224 168.536 122.224 98.024 0 185.968-88.986 185.968-186.032 0-88.256-51.386-144.852-122.224-168.504l106.032-105.968c29.6-29.68 29.6-88.952 0.032-108.6l-436.448-436.464c-14.432-14.384-33.52-22.256-53.808-22.256zM184.896 564.884l-108.904-108.882c-4.656-4.688-4.656-12.432 0.064-18.184l436.368-436.384c6.128-6.064 10.944-6.128 18.184 0.064l436.352 436.384c4.688 4.82 4.688 12.4-0.032 18.152l-153.904 153.808c-9.632 9.632-12.128 24.32-6.192 36.56s18.848 19.504 32.528 18.84l4.88-0.624c2.688-0.368 5.386-0.816 8.192-0.816 61.844 0 111.968 50.192 111.968 111.904 0 61.886-50.224 112.032-111.968 112.032-61.812 0-111.936-50.256-111.936-112.032 0-2.56 0.4-5.056 0.852-8.568l0.688-5.812c1.44-13.504-5.886-26.432-18.032-32.288-12.16-5.808-26.816-3.312-36.4 6.256l-156.944 158.024c-6.128 6.064-10.944 6.128-18.184-0.064l-98.12-98.12c83.28-20.624 139.386-95.968 139.386-185.536 0-105.312-89.92-192.128-185.296-192.128-89.536 0.016-164.848 63.088-185.44 146.304z" />
<glyph unicode="&#xe02e;" glyph-name="printer" d="M952.836 805.082h-120.82v254.448h-640.032v-254.448h-120.82c-39.312 0-81.312-32-81.312-81.344v-433.888c0-39.344 32-81.344 81.312-81.344h120.82v-192.016h640.032v192.016h120.82c39.312 0 81.312 32 81.312 81.344v433.888c0 39.344-32 81.344-81.312 81.344zM255.984 896.512h512.032v-191.44h-512.032v191.44zM868.016 0.48h-512.032v352.4h512.032v-352.4zM960.048 199.84c0-4.080-3.28-8.344-8.312-8.344h-120.82v224.384h-640.032v-224.368h-120.82c-4.032 0-8.312 3.264-8.312 8.344v433.882c0 4.064 3.28 8.344 8.312 8.344h881.482c4.032 0 8.312-3.28 8.312-8.344v-433.888zM832 586.56h-32c-18.664 0-32-14.336-32-32s14.336-32 32-32h32c18.664 0 32 14.336 32 32s-14.336 32-32 32z" />
<glyph unicode="&#xe02f;" glyph-name="present" d="M1024 639.504c0 35.344-28.656 64-64 64h-109.248c28.282 28.888 46.368 64.448 46.368 109.482 0 55.44-31.84 115.664-121.216 115.664-118.6 0-215.84-125.216-262-195.408-46.192 80.186-148.44 195.392-265.024 195.392-89.386 0-121.216-60.224-121.216-115.664 0-45.008 18.592-81.584 48.44-109.482h-111.104c-35.344 0-64-28.656-64-64v-191.568h64.56v-416.56c0-35.344 28.656-64 64-64h868.68c35.344 0 64 28.656 64 64v416.586h63.86v191.568zM885.904 864.624c39.568 0 58.216-16.624 58.216-51.664 0-81.088-89.344-109.44-153.968-109.44h-108.336c45.482 68.536 125.504 161.104 205.088 161.104zM248.88 864.624c89.6 0 162.656-93.568 208.128-161.088h-108.368c-84.624 0-156.986 39.344-156.986 110.432 0 35.024 18.648 50.656 58.216 50.656zM960 511.936h-416v128.568h416v-128.568zM64 639.504h416v-128.568h-416v128.568zM128.56 448.936h351.44v-416.56h-351.44v416.56zM896.256 31.386h-352.256v416.56h352.256v-416.56z" />
<glyph unicode="&#xe030;" glyph-name="playlist" d="M33.86 896.24h448c18.664 0 32 14.336 32 32s-14.336 32-32 32h-448c-18.664 0-32-14.336-32-32s14.32-32 32-32zM33.86 804.24h448c18.664 0 32 14.336 32 32s-14.336 32-32 32h-448c-18.664 0-32-14.336-32-32s14.32-32 32-32zM513.86 544.24c0 18.664-14.336 32-32 32h-448c-18.664 0-32-14.336-32-32s14.336-32 32-32h448c18.664 0 32 14.336 32 32zM1012.88 635.456l-312.912 312.896c-9.904 9.92-24.656 11.84-36.592 6.016-12.544-4.336-21.616-16.112-21.616-30.128v-808.4c-33.92 25.136-88.432 40.528-128.386 40.528-106.064 0-192.096-81.886-192.096-160.288 0-88.528 86.032-160.336 192.096-160.336 106.128 0 192.096 81.808 192.096 160.336 0 4.016-0.368 8.936-0.82 11.882v844.096l261.84-261.856c12.496-12.496 32.868-12.496 45.264 0s12.496 32.868 0.016 45.264zM641.86 92.986c-2.304-44.496-54.192-92.816-128.128-92.816-85.648 0-128.352 50.56-128.352 95.882 0 45.344 52.804 95.84 128.352 95.84 83.936 0 125.824-48.256 128.128-92.884v-6.112z" />
<glyph unicode="&#xe031;" glyph-name="pin" d="M1014.848 580.336l-368.16 380.016c-8.936 8.968-19.386 11.216-30.32 8.496-10.912-2.656-19.6-10.848-22.944-21.568-22.16-81.312-24.82-135.84-8.892-194.688-1.552-1.082-3.040-2.24-4.416-3.616l-181.104-181.082c-55.2 25.6-114.544 39.456-183.696 39.456-38.6 0-84.464-5.568-109.568-16.464-10.688-3.344-18.88-12-21.568-22.848-2.688-10.88 0.464-22.336 8.368-30.288l218.986-220.384-306.16-311.040-26.624-80.128 64.368 24.88 313.36 311.040 221.824-223.264c6.064-6.128 14.288-9.44 22.688-9.44 2.528 0 5.088 0.32 8.632 0.912 10.912 2.688 19.6 10.88 22.944 21.6 28.986 93.232 20.48 193.344-20.336 283.12l184.804 184.836c0.624 0.624 1.056 1.328 1.632 2 26.368-8.536 53.696-11.568 82.048-11.568 35.216 0 82.56 5.056 110.986 18.008 10.688 3.312 18.88 12 21.568 22.848 2.656 10.848-0.496 22.304-8.4 30.256zM603.152 135.856l-402.884 405.408c103.386 12.064 214.848-29.6 295.568-110.32 80.32-80.304 119.504-191.296 108.216-295.088zM600.224 403.456c-16.832 25.828-36.464 50.186-59.024 82.852-22.464 22.464-48.008 42.256-82.96 59.328l144.128 144.096c14.804-25.568 33.664-50 58.008-83.328 23.856-23.84 49.088-43.136 85.6-58.064l-144.852-144.884zM814.624 651.552c-61.536 61.536-85.248 130.128-82.688 212.88l286.912-288.4c-82.656-11.856-151.6 12.896-214.224 85.52z" />
<glyph unicode="&#xe032;" glyph-name="picture" d="M960 880.096h-896c-35.184 0-64-28.816-64-64v-836.192c0-35.184 28.816-64 64-64h896c35.184 0 64 28.816 64 64v836.192c0 35.184-28.816 64-64 64zM960 89.904h-896v188.56l256.848 248.912 264.884-264.496c10.912-13.248 30.336-11.568 44.128-1.12l116.88 105.808 210.8-216.384c0.8-0.8 1.696-1.392 2.56-2.080v-59.2zM960 230.208l-188.032 192.416c-11.408 11.248-29.28 12.4-41.936 2.852l-120.56-105.024-264.944 262.080c-5.664 6.848-13.84 11.024-22.688 11.6-8.816 0.32-18.504-2.56-23.968-8.624l-233.882-228.6v458.288h896v-585.888zM836 559.882c35.28 0 63.84 28.608 63.84 63.84 0 35.216-28.56 63.824-63.84 63.824s-63.84-28.608-63.84-63.824c0-35.232 28.56-63.84 63.84-63.84z" />
<glyph unicode="&#xe033;" glyph-name="map" d="M993.184 824.992l-320.96 133.082-319.44-126.432-321.968 126.368c-2.852 0.816-5.44 1.12-8.968 1.12-13.136 0.064-22.848-9.844-22.848-24.496v-830c0-18.568 13.882-35.882 30.816-40.56l322.336-128.184 319.008 129.504 321.024-126.128c2.852-0.852 5.44-1.12 8.968-1.12 13.12 0 22.848 9.844 22.848 24.496v820.836c0 18.568-13.882 35.888-30.816 40.624zM384 888.864l256 100.304v-861.504l-256-101.184v862.384zM64 883.312l256-94.586v-861.86l-256 104.282v852.064zM960 22l-256 96.384v859.824l256-110.384v-845.824z" />
<glyph unicode="&#xe034;" glyph-name="layers" d="M21.84 658.192l485.088-258.82c4.884-2.592 10.032-3.904 15.312-3.904 5.216 0 10.432 1.28 15.184 3.84l480.096 258.82c10.464 5.632 16.986 16.624 16.816 28.528-0.16 11.936-6.912 22.852-18.504 28.16l-485.12 241.28c-9.056 4.592-19.844 4.624-28.88 0.064l-480.048-241.28c-10.624-5.344-18.44-16.16-18.632-28.064s6.256-22.944 16.688-28.624zM518.152 891.812l406.16-206.282-410.986-221.482-406.186 221.184 410.992 206.56zM1001.344 489.68l-94.986 48.224-68.56-36.986 80-40.624-410.96-221.456-406.192 221.184 85.312 42.88-68.368 38.248-100.32-50.4c-10.624-5.344-18.44-16.16-18.632-28.064s6.256-22.944 16.688-28.624l485.088-258.82c4.884-2.592 10.032-3.904 15.312-3.904 5.216 0 10.432 1.28 15.184 3.84l480.096 258.82c10.464 5.632 16.986 16.624 16.816 28.528-0.144 11.936-6.896 22.852-18.488 28.144zM1001.344 255.68l-89.968 44.224-68.56-36.986 85.008-36.624-410.986-221.456-406.192 221.184 89.312 35.882-68.368 38.248-94.32-43.408c-10.624-5.344-18.44-16.16-18.632-28.064s6.256-22.944 16.688-28.624l485.088-258.82c4.884-2.592 10.032-3.904 15.312-3.904 5.216 0 10.432 1.28 15.184 3.84l480.096 258.82c10.464 5.632 16.986 16.624 16.816 28.528-0.144 11.952-6.896 22.868-18.488 28.16z" />
<glyph unicode="&#xe035;" glyph-name="handbag" d="M1022.836 18.36l-83.408 503.886c-8.44 65.312-66.986 118.432-132.82 118.432h-80.656v85.28c0 130.16-92.848 236.032-222.986 236.032-130.096 0-224.944-105.882-224.944-236.032v-85.28h-86.682c-65.844 0-125.28-53.12-132.528-118.056l-88.28-504.16c-2.986-26.56 2.224-48.504 15.408-62.288 12.432-13.904 30.528-20.986 53.844-20.986h883.568c32.912 0 51.886 13.216 61.84 24.32 9.216 10.208 19.648 28.144 16.624 58.952zM352.048 824.864c0 94.848 66.128 182.032 160.944 182.032s158.986-88.184 158.986-182.032v-85.28h-319.92v85.28zM948.168-0.448l-882.496-0.448c-5.504 0-11.008 2.944-9.812 10.688l88.248 504.096c3.84 33.44 35.504 61.68 69.152 61.68h86.688v-82.928c-19.082-11.082-32.048-31.488-32.048-55.136 0-35.344 28.656-64 64-64s64 28.656 64 64c0 23.616-12.928 44-31.952 55.088v82.992h319.904v-82.992c-19.008-11.088-31.952-31.488-31.952-55.088 0-35.344 28.656-64 64-64s64 28.656 64 64c0 23.648-12.986 44.064-32.048 55.152v82.928h80.656c33.664 0 65.312-28.256 69.408-63.44l83.344-503.28c0.4-4.096-2.816-9.312-12.192-9.312z" />
<glyph unicode="&#xe036;" glyph-name="globe-alt" d="M929.504 545.584c0 168.884-88.986 321.882-238.968 409.568-15.248 9.008-34.88 3.882-43.808-11.386-8.944-15.216-3.882-34.848 11.386-43.808 129.248-86.032 206.4-208.528 206.4-354.368 0-242.368-185.936-418.288-418.32-418.288-54.192 0-106.884 10.16-156.32 30.16-16.368 6.656-35.056-1.28-41.664-18.664-6.624-16.4 1.28-35.056 18.664-41.664 58.216-23.12 118.882-34.848 180.32-34.848 0.192 0 0.384 0.016 0.586 0.016v-63.008h-92.928c-18.464 0-33.44-14.304-33.44-31.952s14.986-31.936 33.44-31.936h252.848c18.464 0 33.44 14.304 33.44 31.936 0 18.664-14.986 31.952-33.44 31.952h-96.384v66.8c245.808 28.56 418.208 220.912 418.208 488.48zM899.386 542.804c0 194.656-158.844 353.408-352.4 353.408-194.688 0-352.464-158.852-352.464-353.408s158.886-351.44 352.464-351.44c194.656 0 352.4 156.884 352.4 351.44zM158.496 542.804c0 159.024 129.408 289.408 288.464 289.408 159.024 0 288.4-130.368 288.4-289.408s-129.386-288.44-288.4-288.44c-159.056 0-288.464 128.4-288.464 288.44z" />
<glyph unicode="&#xe038;" glyph-name="globe" d="M1025.024 448c0 282.016-213.664 495.104-482.32 511.024-5.536 0.608-11.088 1.008-16.82 1.008-1.664 0-3.328-0.186-4.992-0.224-2.992 0.048-5.968 0.224-8.992 0.224-282.88 0-513.024-229.696-513.024-512.032s230.144-512.032 513.024-512.032c3.024 0 6 0.186 9.008 0.24 1.664-0.064 3.328-0.24 4.992-0.24 5.632 0 11.184 0.4 16.82 1.008 268.64 15.92 482.304 238.986 482.304 511.024zM929.568 283.168c-18.632 5.12-61.92 16.24-140.064 25.392 6.464 44.192 10 90.896 10 139.44 0 38.256-2.208 85.344-6.288 111.008 99.008 11.824 142.384 26.82 145.296 28.844l-11.92 33.584c22.24-53.088 34.56-111.296 34.56-182.336 0-58.192-11.28-113.86-31.584-164.832zM285.488 448c0 35.808 2.368 80.868 6.804 104.4 51.888-4.080 113.936-8.088 186.864-8.892v-222.064c-80.992-0.688-131.664-3.568-182.688-8.482-8.040 42.192-10.88 86.88-10.88 132.928zM542.944 891.886c88.464-22.836 145.648-131.696 185.844-286.112-48.368-3.856-106.624-6.682-185.844-8.328v283.44zM489.056 890.992v-282.624c-68.368 0.688-126.88 3.482-186.064 8.232 30.804 142.608 98.432 250.852 186.064 285.392zM489.056 258.868v-253.844c-82.4 22.986-136.192 118.586-169.36 248.024 48.86 3.504 104.096 6.064 169.36 6.82zM542.944 4.224v254.56c65.952-0.624 122.064-3.28 169.216-6.928-32.608-130.128-96-226.416-169.216-248.632zM542.944 322.544v222.032c83.312 0.688 134.992 3.886 186.192 8 4.208-33.696 6.496-68.804 6.496-104.592 0-46.128-3.812-90.864-10.528-133.12-50.416 4.080-110.8 8.008-182.16 8.68zM914.8 646.064c-9.664-3.008-50.064-14.48-131.024-24.032-18.048 95.952-50.682 188.968-93.12 238.168 98.536-42.384 188.136-118.304 224.144-213.136zM358.816 869.408c-52.208-59.952-94.832-146.16-118.096-248.112-82.48 8.856-115.92 18.088-133.312 21.28 50.82 104.64 141.040 186.852 251.408 226.832zM83.632 582.816c12.32-3.344 58.912-14.944 145.552-24.528-4.96-35.44-8.68-82.304-8.68-110.304 0-48.282 4.368-94.82 12.24-138.688-84.4-8.032-120.16-18.648-140.688-22.608-19.44 50.096-30.208 104.448-30.208 161.312 0 46.96 8.312 92.256 20.884 134.816zM121.088 228.648c23.264 4.944 64.912 12.464 126.592 18.928 24.288-89.812 63.892-165.616 111.136-219.968-101.12 36.82-185.296 108.852-238.828 201.040zM690.656 36.816c38.224 53.264 68.48 125.024 88.296 208.8 63.408-8.28 103.216-15.892 123.296-20.864-48.016-83.082-121.856-149.392-210.592-188.936z" />
<glyph unicode="&#xe038;" glyph-name="frame" d="M224 848h-192c-18.664 0-32-14.336-32-32v-192c0-18.664 14.336-32 32-32s32 14.336 32 32v160h160c18.664 0 32 14.336 32 32s-14.336 32-32 32zM992 304c-18.664 0-32-14.336-32-32v-160h-160c-18.664 0-32-14.336-32-32s14.336-32 32-32h192c18.664 0 32 14.336 32 32v192c0 18.664-14.336 32-32 32zM224 112h-160v160c0 18.664-14.336 32-32 32s-32-14.336-32-32v-192c0-18.664 14.336-32 32-32h192c18.664 0 32 14.336 32 32s-14.336 32-32 32zM992 848h-192c-18.664 0-32-14.336-32-32s14.336-32 32-32h160v-160c0-18.664 14.336-32 32-32s32 14.336 32 32v192c0 18.664-14.336 32-32 32z" />
<glyph unicode="&#xe039;" glyph-name="folder-alt" d="M960.16 852h-480l-96 96h-320c-35.344 0-64-28.656-64-64v-160h-0.304v-64h0.304v-448c0-35.344 28.656-64 64-64h896c35.344 0 64 28.656 64 64v586c0 35.344-28.656 64-64 64zM64.144 884h290.852l88.624-88.248 20.112-18.852h506.528v-64h-896v160zM64.144 112v448h896v-448h-896z" />
<glyph unicode="&#xe03a;" glyph-name="film" d="M800 688.812h64c18.664 0 32 14.336 32 32v32c0 18.664-14.336 32-32 32h-64c-18.664 0-32-14.336-32-32v-32c0-18.664 14.336-32 32-32zM800 495.812h64c18.664 0 32 14.336 32 32v32c0 18.664-14.336 32-32 32h-64c-18.664 0-32-14.336-32-32v-32c0-18.664 14.336-32 32-32zM800 303.812h64c18.664 0 32 14.336 32 32v32c0 18.664-14.336 32-32 32h-64c-18.664 0-32-14.336-32-32v-32c0-18.664 14.336-32 32-32zM800 111.812h64c18.664 0 32 14.336 32 32v32c0 18.664-14.336 32-32 32h-64c-18.664 0-32-14.336-32-32v-32c0-18.664 14.336-32 32-32zM160 688.812h64c18.664 0 32 14.336 32 32v32c0 18.664-14.336 32-32 32h-64c-18.664 0-32-14.336-32-32v-32c0-18.664 14.336-32 32-32zM160 495.812h64c18.664 0 32 14.336 32 32v32c0 18.664-14.336 32-32 32h-64c-18.664 0-32-14.336-32-32v-32c0-18.664 14.336-32 32-32zM160 303.812h64c18.664 0 32 14.336 32 32v32c0 18.664-14.336 32-32 32h-64c-18.664 0-32-14.336-32-32v-32c0-18.664 14.336-32 32-32zM160 111.812h64c18.664 0 32 14.336 32 32v32c0 18.664-14.336 32-32 32h-64c-18.664 0-32-14.336-32-32v-32c0-18.664 14.336-32 32-32zM960 944.096h-896c-35.184 0-64-28.816-64-64v-864.192c0-35.184 28.816-64 64-64h896c35.184 0 64 28.816 64 64v864.192c0 35.184-28.816 64-64 64zM960 15.904h-896v864.192h896v-864.192z" />
<glyph unicode="&#xe03b;" glyph-name="feed" d="M101.882 629.844c-18.128 0-32.868-14.656-32.868-32.868 0-18.096 14.64-32.868 32.868-32.868 303.008 0 525.344-224.368 525.344-528.36 0-18.096 14.656-32.852 32.868-32.852s32.868 14.656 32.868 32.852c0 340.368-250.528 592.896-590.88 592.896zM102.16 958.386c-18.112 0-32.868-14.656-32.868-32.868s14.656-32.868 32.868-32.868c480.186 0 852.682-382.496 852.682-852.656 0-18.096 14.656-32.852 32.868-32.852s32.868 14.656 32.868 32.852c-0.016 506.288-411.92 918.192-918.208 918.192zM184.016 300.4c-99.482 0-180.368-81.12-180.368-180.88 0-99.812 80.912-180.912 180.368-180.912s180.4 81.184 180.4 180.912c0 99.86-80.928 180.88-180.4 180.88zM184.016 1.968c-64.608 0-118.168 52.852-118.168 118.568s52.56 118.536 118.168 118.536c64.624 0 118.216-52.82 118.216-118.536s-52.592-118.568-118.216-118.568z" />
<glyph unicode="&#xe03c;" glyph-name="earphones-alt" d="M1023.84 388.456c0.096 21.056-3.216 100.496-5.844 123.216-29.12 260.852-240.852 450-503.184 450-283.344 0-494.816-210.624-509.84-489.904-0.32-6.096-2.56-49.344-2.82-85.088l-0.080-14.32c-1.312-5.92-2.112-12.032-2.112-18.336v-214.656c0-46.88 38.128-85.008 85.008-85.008h86.288c46.88 0 85.024 38.128 85.024 85.008v214.64c0 46.88-38.16 85.008-85.024 85.008h-86.304c-5.888 0-11.632-0.608-18.184-1.844 0.48 10.384 0.912 18.586 1.024 21.056 13.168 244.884 208.136 429.344 445.92 429.344 229.28 0 414.128-165.344 439.568-393.12 1.082-9.504 2.448-33.664 3.552-58.92-6.192 1.44-12.586 2.384-19.2 2.384h-85.28c-46.88 0-85.008-38.128-85.008-85.008v-213.664c0-32.368 18.4-60.256 45.088-84.592l-205.44-80.656v5.216c0 18.664-14.336 32-32 32h-96c-18.664 0-32-14.336-32-32v-32c0-18.664 14.336-32 32-32h96c0.282 0 0.512 0.080 0.884 0.080l58.36 0.224 329.552 129.386c4.32 1.892 8.984 4.464 10.992 8.664 28.848 13.616 48.992 42.836 48.992 86.688v213.664c0 5.216-0.64 10.288-1.552 15.232 0.88 2.944 1.504 6 1.52 9.216zM85.152 384.016h86.288c11.6 0 21.024-9.408 21.024-21.008v-214.656c0-11.6-9.44-21.008-21.024-21.008h-86.288c-11.6 0-21.008 9.408-21.008 21.008v214.656c0.016 11.6 9.424 21.008 21.008 21.008zM832.528 363.008c0 11.6 9.408 21.008 21.008 21.008h85.28c11.6 0 21.024-9.408 21.024-21.008v-213.664c0-11.6-9.44-21.008-21.024-21.008h-85.28c-11.6 0-21.008 9.408-21.008 21.008v213.664z" />
<glyph unicode="&#xe03d;" glyph-name="earphones" d="M1023.84 355.44c0.096 21.056-3.216 100.496-5.844 123.216-29.12 260.852-240.852 450-503.184 450-283.344 0-494.816-210.624-509.84-489.904-0.32-6.096-2.56-49.344-2.82-85.088l-0.080-14.32c-1.312-5.92-2.112-12.032-2.112-18.336v-288.656c0-46.88 38.128-85.008 85.008-85.008h86.288c46.88 0 85.024 38.128 85.024 85.008v288.64c0 46.88-38.16 85.008-85.024 85.008h-86.32c-5.888 0-11.632-0.608-18.184-1.844 0.48 10.384 0.912 18.592 1.024 21.056 13.184 244.884 208.136 429.344 445.936 429.344 229.28 0 414.128-165.344 439.568-393.12 1.088-9.504 2.464-33.664 3.568-58.92-6.24 1.44-12.608 2.384-19.232 2.384h-85.28c-46.88 0-85.008-38.128-85.008-85.008v-288.664c0-46.896 38.128-85.008 85.008-85.008h85.28c46.88 0 85.024 38.128 85.024 85.008v288.664c0 5.216-0.64 10.288-1.568 15.216 0.928 2.944 1.536 6.016 1.568 9.232zM85.136 352h86.288c11.6 0 21.024-9.408 21.024-21.008v-288.656c0-11.616-9.44-21.008-21.024-21.008h-86.288c-11.6 0-21.008 9.408-21.008 21.008v288.656c0.032 11.6 9.44 21.008 21.008 21.008zM959.84 53.344c0-11.6-9.44-21.008-21.024-21.008h-85.28c-11.6 0-21.008 9.408-21.008 21.008v288.648c0 11.6 9.408 21.008 21.008 21.008h85.28c11.6 0 21.024-9.408 21.024-21.008v-288.648z" />
<glyph unicode="&#xe03e;" glyph-name="drop" d="M510.4-62.804c-193.312 0-350.592 155.12-350.592 345.886 0 222.688 311.632 644.848 324.912 662.82 6 8.064 15.408 12.848 25.482 12.912 11.184 0.096 19.568-4.592 25.664-12.56 13.408-18.536 328.336-432.224 328.336-663.056 0-190.682-158.82-345.892-353.892-345.892zM510.852 882.304c-84.4-105.664-286.944-422.064-286.944-589.216 0-155.386 128.56-281.886 286.592-281.886 159.886 0 289.886 126.4 289.886 281.886 0.016 183.36-214.144 485.024-289.424 589.216z" />
<glyph unicode="&#xe03f;" glyph-name="drawar" d="M1022.986 450.016l-118.504 408.088c-3.84 13.882-16.464 23.482-30.848 23.482h-835.344c-14.496 0-28.184-9.844-30.944-23.886l-108.392-386.352c-1.984-8.504-1.008-15.008 2-21.536-1.828-5.892-2.944-11.824-2.944-18.186v-351.312c0-35.344 28.656-64 64-64h896c35.344 0 64 28.656 64 64v351.312c0 1.812-0.368 3.328-0.496 5.008 0.832 4.592 0.816 9.44-0.528 14.282zM163.904 816.586h686.368l93.12-321.84h-298.336c-1.44-86.816-55.904-129.68-133.056-129.68s-130.624 52.88-132.064 129.68h-305.886l89.844 321.84zM960 89.424h-896v351.312h263.12c28.936-80.432 95.886-129.68 184.88-129.68s158.936 49.248 185.882 129.68h262.128v-351.312z" />
<glyph unicode="&#xe040;" glyph-name="docs" d="M868 960h-352c-35.344 0-64-28.656-64-64h352v-256h256v-512h-224v-64h224c35.344 0 64 28.656 64 64v585.984l-256 256.016zM868 804v165.504l165.482-165.504h-165.482zM64 832c-35.344 0-64-28.656-64-64v-868c0-35.344 28.656-64 64-64h544c35.344 0 64 28.656 64 64v585.984l-256 256.016h-352zM608 0h-544v868h288v-256h256v-512zM416 586v165.504l165.482-165.504h-165.482z" />
<glyph unicode="&#xe041;" glyph-name="directions" d="M1018.056 883.936l-99.696 111.344c-6.064 6.848-14.884 10.852-23.936 10.852h-350.256v33.968c0 16.56-14.336 30-32 30s-32-13.44-32-30v-33.968h-255.808c-18.68 0-32-14.32-32-32v-223.664c0-18.68 14.32-32 32-32h255.808v-64.096h-348.592c-9.152 0-18.882-3.904-23.936-10.852l-99.68-113.312c-10.852-12.128-10.852-30.368 0-42.496l99.68-112.288c6.112-6.848 14.884-9.844 23.936-9.844h348.592v-289.68c0-16.56 14.336-30 32-30s32 13.44 32 30v289.68h256.464c18.68 0 32 14.32 32 32v224.608c0 18.68-14.32 32-32 32h-256.464v64.096h350.256c9.152 0 18.882 3.904 23.936 10.852l99.696 112.32c10.836 12.112 10.836 30.352 0 42.48zM868.648 319.68h-622.688l-81.28 89.28 81.28 81.312h622.688v-160.592zM889.040 682.368h-623.68v159.664h623.68l81.28-89.344-81.28-80.32z" />
<glyph unicode="&#xe042;" glyph-name="direction" d="M966.912 661.84l-189.12 192c-6.080 6.48-14.544 10.16-23.424 10.16h-268.12l-1.008 66c0 16.56-14.336 30-32 30s-30-13.44-30-30l-0.986-66h-352.868c-18.68 0-32-14.32-32-32v-384c0-18.68 14.32-32 32-32h352.336v-450c0-16.56 14.336-30 32-30s32 13.44 32 30v450h268.536c8.88 0 18.344 3.68 23.408 10.16l189.12 192c11.482 12.304 11.482 31.386 0.016 43.68zM850.464 480h-638.968v320h638.968l149.28-160-149.28-160z" />
<glyph unicode="&#xe043;" glyph-name="diamond" d="M1018.82 664.528l-139.882 268.44c-8.16 15.6-29.264 28.352-46.848 28.352h-321.936c-0.352 0.016-0.804 0.112-1.056 0.128-0.288 0-0.56-0.112-0.848-0.128h-316.16c-18.6 0-38.852-12.82-48.024-28.256l-139.504-262.288c-8.288-15.536-6.624-39.936 3.632-54.256l480.016-669.152c5.152-8.184 12-10.816 18.832-10.816 6.884 0 13.584 3.536 18.868 10.592l488.904 664.256c10.384 14.192 12.256 38.544 4.096 54.128zM942.368 682.368h-181.456l68.656 196.608 102.8-196.608zM585.344 896.32h205.968l-63.888-182.928-142.080 182.928zM668.24 682.368h-298.648l140.682 202.096 156.986-202.096zM313.888 802.912l-64.186 193.408h198.816l-134.64-193.408zM680.852 608.368l-182.032-492.544-163.456 492.544h335.488zM436.928 128.912l-343.936 489.456h184.832l159.104-489.456zM848.544 608.368h185.168l-352.986-480.56 168.808 480.56zM188.48 888.584l68.096-205.216h-188.248l109.152 205.216z" />
<glyph unicode="&#xe044;" glyph-name="cup" d="M832.56 544.208c-8.336 0-35.2 0.16-64.304 0.368l0.112 63.968c0 35.344-28.656 64-64 64l-640.496 0.16c-35.344 0-64-28.656-64-64v-480.944c0-106.032 85.968-192 192-192h384.656c106.032 0 191.008 85.968 191.008 192l0.064 32.848c29.024-0.224 58.608-0.4 64.986-0.4 105.886 0 191.568 85.040 191.568 191.082-0.016 106.048-85.808 192.928-191.584 192.928zM803.536 128.86c0-80.592-56.4-128-128.008-128h-384.656c-80.592 0-128 58.408-128 128l-0.096 480.944 640.592-0.192-0.832-480.852zM832.56 223.28c-6.352 0-35.888 0.192-64.864 0.4l0.448 256.816c29.12-0.208 56.048-0.368 64.4-0.368 83.12 0 128.624-54.544 128.624-128.84s-55.488-129.008-128.608-129.008zM585.882 836.24c18.664 0 32 14.336 32 32v160c0 18.664-14.336 32-32 32s-32-14.336-32-32v-160c0-18.68 14.336-32 32-32zM191.882 836.24c18.664 0 32 14.336 32 32v160c0 18.664-14.336 32-32 32s-32-14.336-32-32v-160c0-18.68 14.336-32 32-32zM383.882 836.24c18.664 0 32 14.336 32 32v160c0 18.664-14.336 32-32 32s-32-14.336-32-32v-160c0-18.68 14.336-32 32-32z" />
<glyph unicode="&#xe045;" glyph-name="compass" d="M833.184 689.828l-313.152-134.64c-5.664-2.88-10.256-8.482-13.152-13.152l-143.456-289.216c-5.882-11.536-3.844-25.536 5.312-34.884 5.808-5.904 13.632-9.024 21.536-9.024 4.432 0 8.944 0.986 13.12 3.008l305.828 126.986c5.6 2.688 10.224 8.056 13.216 12.496l150.88 296.896c6.432 11.6 4.528 26.032-4.656 35.568-9.216 9.536-23.584 11.882-35.386 5.882zM358.856 295.184l88.008 188.68 88.882-109.984-184.88-68.696zM584.804 400.384l-88.8 111.152 186.884 69.86-88.984-180.912zM512 960c-282.868 0-512-229.232-512-512 0-282.884 229.232-512 512-512 282.884 0 512 229.216 512 512 0 282.868-229.216 512-512 512zM512-1.008c-248.024 0-448 201.984-448 449.008s200.986 448 448 448 448-200.986 448-448-200.986-449.008-448-449.008z" />
<glyph unicode="&#xe046;" glyph-name="call-out" d="M1000.352 188.384c-15.664 11.008-188.056 124.986-208.064 138.808-9.152 5.6-20.32 8.336-32.464 8.336-15.664 0-33.008-4.56-49.936-13.482-16.496-8.688-66.464-38.12-90.912-51.088-21.536 15.12-82.128 53.882-151.84 133.664-89.216 89.184-118.32 130.192-133.536 151.84 13.936 24.432 42.336 84.4 50.986 90.848 16.368 31.008 18.224 61.968 4.944 82.848-12.464 19.68-125.968 191.808-138.68 208-11.024 15.28-30.816 23.536-52.288 23.536-16.944 0-34.912-5.12-50.496-15.968-1.504-1.082-152.096-110.256-150.096-182.352 5.552-184.432 185.056-389.424 316.282-520.688s346.224-310.816 521.344-316.4h1.44c61.312 0 169.088 148.688 180.128 150.16 28.282 40.4 18.968 84.88-8.892 102.928zM956.144 122.836c-40.592-56.224-98.224-114.944-120.884-123.344-120.032 5.632-288.464 111.12-484.88 298.568-186.4 186.464-291.882 354.804-298.44 484.336 8.096 22.624 66.816 80.624 122.528 120.912 4.128 2.848 9.216 4.496 13.968 4.496 1.056 0 1.936-0.096 2.624-0.224 18-26.16 114.624-182.432 132.16-199.886 0.064-2.88-0.912-10.192-6.4-20.624-5.84-11.12-24.032-43.536-49.904-88.88l-20.128-35.28 23.344-33.248c18.408-24.82 58.816-88.464 140.624-160.288 82.16-82.192 135.812-123.482 160.336-140.884l33.248-23.344 35.28 20.16c34.192 19.536 85.504 42.944 88.944 50 10.884 5.68 18.16 6.128 20.16 6.128 0.32 0 0.592 0 0.816-0.032 24.496-15.386 183.936-114.592 200.32-132.688 0.432-2.56 0.032-8.128-4.816-15.088zM683.904 588.828l285.248 283.568-0.88-155.056c-0.288-12.944 9.968-24.192 22.912-23.888l16.416 0.016c12.96 0.32 23.648 8 23.92 20.928l0.656 231.008c0 0.224-0.864 0.384-0.864 0.608l1.264 11.812c0.128 6.496-1.386 12.288-5.6 16.432-4.128 4.186-9.936 6.82-16.384 6.544l-11.696-0.282c-0.224 0-0.4-0.096-0.656-0.128l-229.482 1.024c-12.928-0.288-23.616-10.986-23.92-23.92l-0.032-16.416c1.968-15.232 13.936-24.16 26.88-23.882l151.248-0.4-284.288-282.624c-12.496-12.496-12.496-32.868 0-45.264 12.496-12.48 32.852-12.48 45.248 0z" />
<glyph unicode="&#xe048;" glyph-name="call-in" d="M1000.352 188.384c-15.664 11.008-188.056 124.986-208.064 138.808-9.152 5.6-20.32 8.336-32.464 8.336-15.664 0-33.008-4.56-49.936-13.482-16.496-8.688-66.464-38.12-90.912-51.088-21.536 15.12-82.128 53.882-151.84 133.664-89.216 89.184-118.32 130.192-133.536 151.84 13.936 24.432 42.336 84.4 50.986 90.848 16.368 31.008 18.224 61.968 4.944 82.848-12.464 19.68-125.968 191.808-138.68 208-11.024 15.28-30.816 23.536-52.288 23.536-16.944 0-34.912-5.12-50.496-15.968-1.504-1.082-152.096-110.256-150.096-182.352 5.552-184.432 185.056-389.424 316.282-520.688s346.224-310.816 521.344-316.4h1.44c61.312 0 169.088 148.688 180.128 150.16 28.282 40.4 18.968 84.88-8.892 102.928zM956.144 122.836c-40.592-56.224-98.224-114.944-120.884-123.344-120.032 5.632-288.464 111.12-484.88 298.568-186.4 186.464-291.882 354.804-298.44 484.336 8.096 22.624 66.816 80.624 122.528 120.912 4.128 2.848 9.216 4.496 13.968 4.496 1.056 0 1.936-0.096 2.624-0.224 18-26.16 114.624-182.432 132.16-199.886 0.064-2.88-0.912-10.192-6.4-20.624-5.84-11.12-24.032-43.536-49.904-88.88l-20.128-35.28 23.344-33.248c18.408-24.82 58.816-88.464 140.624-160.288 82.16-82.192 135.812-123.482 160.336-140.884l33.248-23.344 35.28 20.16c34.192 19.536 85.504 42.944 88.944 50 10.884 5.68 18.16 6.128 20.16 6.128 0.32 0 0.592 0 0.816-0.032 24.496-15.386 183.936-114.592 200.32-132.688 0.432-2.56 0.032-8.128-4.816-15.088zM643.84 583.488c4.128-4.186 9.936-6.82 16.384-6.544l11.812 0.282c0.224 0 0.384 0.096 0.64 0.112l229.504-1.008c12.912 0.304 23.616 10.992 23.92 23.936l0.016 16.416c-1.952 15.232-13.936 24.16-26.864 23.882l-151.504 0.4 261.952 261.6c12.496 12.496 12.496 32.868 0 45.264-12.496 12.48-32.852 12.48-45.248 0l-262.682-262.32 0.88 154.832c0.288 12.928-9.968 24.192-22.896 23.888l-16.416-0.016c-12.96-0.32-23.664-8.016-23.936-20.944l-0.656-231.008c0-0.224 0.88-0.384 0.88-0.608l-1.28-11.812c-0.128-6.496 1.392-12.282 5.584-16.432z" />
<glyph unicode="&#xe048;" glyph-name="call-end" d="M961.696 860.448c0-1.056-0.096-1.936-0.224-2.624-26.16-18-182.432-114.624-199.886-132.16-2.88-0.064-10.192 0.912-20.624 6.4-11.12 5.84-43.536 24.032-88.88 49.904l-35.28 20.128-33.248-23.344c-24.82-18.408-88.464-58.816-160.288-140.624-82.186-82.16-123.456-135.812-140.868-160.336l-23.344-33.248 20.16-35.28c19.536-34.192 42.944-85.504 50-88.944 5.68-10.884 6.128-18.16 6.128-20.16 0-0.32 0-0.592-0.032-0.816-15.36-24.496-114.592-183.936-132.682-200.32-2.56-0.432-8.128-0.032-15.088 4.816-56.256 40.608-114.96 98.24-123.386 120.8 5.632 120.032 111.12 288.464 298.568 484.88 186.464 186.4 354.82 291.882 484.352 298.44 22.624-8.096 80.624-66.816 120.912-122.528 2.832-4.128 4.48-9.232 4.48-13.984zM1023.696 860.448c0 16.944-5.12 34.912-15.968 50.496-1.056 1.504-108.256 152.096-180.336 150.096-184.432-5.552-389.44-185.056-520.804-316.282-141.232-141.216-310.8-346.224-316.384-521.344v-1.44c0-61.312 148.682-169.088 150.144-180.128 40.4-28.288 84.88-18.968 102.944 8.886 11.008 15.664 124.986 188.056 138.808 208.064 5.6 9.152 8.336 20.32 8.336 32.464 0 15.664-4.586 33.008-13.482 49.936-8.688 16.496-38.12 66.464-51.088 90.912 15.12 21.536 53.882 82.128 133.664 151.84 89.184 89.216 130.192 118.32 151.84 133.536 24.432-13.936 84.4-42.336 90.848-50.986 31.008-16.368 61.968-18.224 82.848-4.944 19.68 12.464 189.808 125.968 206 138.68 15.28 11.056 23.52 30.848 23.52 52.304v0z" />
<glyph unicode="&#xe049;" glyph-name="calculator" d="M960 960.096h-896c-35.184 0-64-28.816-64-64v-896.192c0-35.184 28.816-64 64-64h896c35.184 0 64 28.816 64 64v896.192c0 35.184-28.816 64-64 64zM960-0.096h-896v896.192h896v-896.192zM224 608.696h64v-64c0-18.664 14.336-32 32-32s32 14.336 32 32v64h64c18.664 0 32 14.336 32 32s-14.336 32-32 32h-64v64c0 18.664-14.336 32-32 32s-32-14.336-32-32v-64h-64c-18.664 0-32-14.336-32-32s14.336-32 32-32zM433.136 368.848c-12.496 12.496-32.852 12.496-45.248 0l-68.888-68.882-68.888 68.882c-12.496 12.496-32.852 12.496-45.264 0-12.496-12.496-12.496-32.868 0-45.264l68.882-68.882-68.882-68.882c-12.496-12.496-12.496-32.868 0-45.264s32.852-12.496 45.264 0l68.888 68.856 68.888-68.882c12.496-12.496 32.852-12.496 45.248 0s12.496 32.868 0 45.264l-68.882 68.882 68.882 68.882c12.496 12.512 12.496 32.868 0 45.28zM608 608.696h192c18.664 0 32 14.336 32 32s-14.336 32-32 32h-192c-18.664 0-32-14.336-32-32s14.336-32 32-32zM608 288.696h192c18.664 0 32 14.336 32 32s-14.336 32-32 32h-192c-18.664 0-32-14.336-32-32s14.336-32 32-32zM608 159.696h192c18.664 0 32 14.336 32 32s-14.336 32-32 32h-192c-18.664 0-32-14.336-32-32s14.336-32 32-32z" />
<glyph unicode="&#xe04a;" glyph-name="bubbles" d="M424.816 280.656c230.944 0 409.904 131.904 408.152 328.632 0 183.184-183.216 311.632-414.16 311.632-230.986 0-418.16-138.448-418.16-311.632 0-108.882 52.912-222.88 163.408-289.386 0-0.656-0.192-1.152-0.192-1.882 0-46.88-39.024-111.152-54.4-138.664h0.064c-1.216-2.88-1.952-6-1.952-9.344 0-13.12 10.586-23.664 23.696-23.664 1.936 0 5.088 0.4 6.224 0.4 0.32 0 0.432 0 0.4-0.096 81.664 13.344 202.256 105.248 220.128 128.024 18.336-2.82 30.82-3.152 46.080-3.152 6.528 0.016 13.482 0.112 21.812 0.112zM330.688 349.536l-40.986-34.032c-9.504-10.986-50.8-45.44-86.352-68.808 21.648 61.68 20.804 81.216 20.804 81.216l3.008 39.152-34.88 18.808c-88.682 45.344-128.528 139.844-128.528 222.4 0 138.664 158.864 248.632 354.16 248.632 195.28 0 350.16-109.968 350.16-248.632-0.608-152.608-145.882-264.624-341.152-264.624 0 0-29.808-1.152-60.4 3.386l-35.844 2.512zM1024.336 349.808c0 86.836-33.888 152.88-118.448 202.512-2.064-23.082-8.64-48.824-15.892-69.568 54.656-38.886 80.256-86.56 80.256-132.944 0-69.024-32.16-119.088-106.912-158.344l-31.84-15.808c0 0 3.312-82 8.224-102.852-62.448 45.886-83.904 84-83.904 84l-33.664-5.184c-13.312-1.936-49.312-1.968-49.312-1.968-86.944 0-151.386 20.82-206.336 63.844 14.928 0.912-89.184 0.88-91.504-1.152 63.568-88.632 168.482-126.592 298.84-126.592 8.088 0 13.088-0.064 18.82-0.064 13.28 0 24 0.368 39.84 2.688 15.488-18.884 102.224-101.504 182.816-113.008-0.032 0.064 0.064 0.064 0.368 0.064 0.944 0 3.68-0.336 5.344-0.336 11.344 0 20.496 9.12 20.496 20.464 0 2.88-0.656 5.6-1.68 8.064h0.064c-13.28 22.88-34.128 89.844-34.128 130.256 0 0.624-0.192 1.056-0.192 1.632 95.504 48.832 139.844 120.080 139.844 213.296z" />
<glyph unicode="&#xe04b;" glyph-name="briefcase" d="M960.016 868.528h-255.6v62c0 52.944-43.056 96-96 96h-192.432c-52.944 0-96-43.056-96-96v-62h-255.968c-35.184 0-64-28.816-64-64v-224.256h-0.032v-64h0.032v-382.816c0-35.184 28.816-64 64-64h896c35.184 0 64 28.816 64 64v681.082c0 35.184-28.816 64-64 64zM383.984 830.528c0 18.664 14.336 32 32 32h192.432c18.664 0 32-14.336 32-32v-62h-256.432v62zM64.016 804.528h896v-224.256h-352.368v32.852c0 35.28-28.82 64-64 64h-63.844c-35.28 0-64-28.82-64-64v-32.852h-351.888v224.256zM543.696 351.882h-63.808v161.152h63.844l0.064-161.152zM64.016 33.482v382.816h351.882v-64.4c0-35.28 28.82-64 64-64h63.844c35.28 0 64 28.82 64 64v64.4h352.368v-382.816h-895.984z" />
<glyph unicode="&#xe04c;" glyph-name="book-open" d="M952.080 958.448l-423.040-114.592c-10.852-2.88-34.096-2.848-44.816 0.16l-412.144 114.208c-36.884 10.128-82.416-16.4-82.416-54.282v-888.112c0-32.096 24.336-62.884 55.312-81.408l412.16-114.224c11.024-3.056 25.216-4.852 39.936-4.852 10.096 0 25.008 0.884 38.82 4.528l423.024 114.592c31.056 8.4 55.504 39.024 55.504 81.248v888.128c0.016 38.84-35.616 64.464-82.24 54.496zM480 3.056l-408.928 113.056c-3.088 0.848-8.408 6.496-8.408 9.812v868.032l403.482-111.536c3.904-1.088 8.288-1.936 12.864-2.656v-886.608zM960.336 125.824c0-3.152-5.184-8.656-8.256-9.504l-408.080-110.528v885.92c0.592 0.144 1.2 0.224 1.892 0.384l414.528 112.128v-868.4zM642 593.696c2.88 0 5.808 0.368 8.688 1.184l223.936 63.024c18.024 4.816 26.944 22.464 22.16 39.482s-22.56 26.88-39.482 22.16l-223.936-63.024c-18.024-4.816-26.944-22.464-22.16-39.482 3.968-14.128 16.816-23.344 30.884-23.344zM642 401.696c2.88 0 5.808 0.368 8.688 1.184l223.936 63.024c18.024 4.816 26.944 22.464 22.16 39.482s-22.56 26.88-39.482 22.16l-223.936-63.024c-18.024-4.816-26.944-22.464-22.16-39.456 3.968-14.128 16.816-23.36 30.884-23.36zM642 209.696c2.88 0 5.808 0.368 8.688 1.184l223.936 63.024c18.024 4.816 26.944 22.464 22.16 39.482s-22.56 26.88-39.482 22.16l-223.936-63.024c-18.024-4.816-26.944-22.464-22.16-39.482 3.968-14.112 16.816-23.344 30.884-23.344zM394.624 656.512l-223.936 63.024c-16.912 4.82-34.688-5.152-39.482-22.16s5.12-34.656 22.16-39.482l223.936-63.024c2.88-0.816 5.808-1.184 8.688-1.184 13.968 0 26.816 9.216 30.884 23.344 4.884 16.992-5.12 34.656-22.16 39.482zM394.624 464.512l-223.936 63.024c-16.912 4.82-34.688-5.152-39.482-22.16s5.12-34.656 22.16-39.482l223.936-63.024c2.88-0.816 5.808-1.184 8.688-1.184 13.968 0 26.816 9.216 30.884 23.344 4.884 16.992-5.12 34.656-22.16 39.482zM394.624 282.512l-223.936 63.024c-16.912 4.82-34.688-5.152-39.482-22.16s5.12-34.656 22.16-39.482l223.936-63.024c2.88-0.816 5.808-1.184 8.688-1.184 13.968 0 26.816 9.216 30.884 23.344 4.884 18.008-5.12 34.656-22.16 39.482z" />
<glyph unicode="&#xe04d;" glyph-name="basket-loaded" d="M1015.664 686c-5.968 8.464-15.664 13.504-26 13.504h-99.844l-205.136 184.832c-24.986 24.986-65.52 25.008-90.496 0l-201.648-184.832h-82.096l-51.408 188.28c-20.16 69.808-68.064 88.344-88.812 88.344h-138.088c-18.568 0-31.886-14.224-31.886-31.886s14.224-31.886 31.886-31.886h138.056c4.336 0 18.568 0 26.592-31.184l186.848-649.936c3.84-13.812 16.336-23.184 30.592-23.184h431.968c13.408 0 25.386 8.4 29.904 21.024l152.256 449.68c3.504 9.844 2.048 20.592-3.888 29.024zM639.536 819.082l152.032-129.584h-304.112l152.080 129.584zM815.024 239.808h-385.488l-101.152 386.128h616.096l-129.456-386.128zM852 111.882c-44.192 0-80-35.808-80-80s35.808-80 80-80 80 35.808 80 80-35.808 80-80 80zM464 111.882c-44.192 0-80-35.808-80-80s35.808-80 80-80 80 35.808 80 80-35.808 80-80 80z" />
<glyph unicode="&#xe04e;" glyph-name="basket" d="M1015.664 686c-5.968 8.464-15.664 13.504-26 13.504h-689.136l-51.408 188.28c-20.16 69.808-68.064 88.344-88.812 88.344h-138.082c-18.568 0-31.886-14.224-31.886-31.886s14.224-31.886 31.886-31.886h138.056c4.336 0 18.568 0 26.592-31.184l186.848-649.936c3.84-13.812 16.336-23.184 30.592-23.184h431.968c13.408 0 25.386 8.4 29.904 21.024l152.256 449.68c3.504 9.844 2.048 20.592-3.888 29.024zM815.024 239.808h-385.488l-101.152 386.128h616.096l-129.456-386.128zM852 111.882c-44.192 0-80-35.808-80-80s35.808-80 80-80 80 35.808 80 80-35.808 80-80 80zM464 111.882c-44.192 0-80-35.808-80-80s35.808-80 80-80 80 35.808 80 80-35.808 80-80 80z" />
<glyph unicode="&#xe04f;" glyph-name="bag" d="M864 801.296h-191.184v61.386c0 52.944-43.056 96-96 96h-128.632c-52.944 0-96-43.056-96-96v-61.386h-193.184c-35.344 0-64-28.656-64-64v-835.968c0-35.344 28.656-64 64-64h804c35.344 0 64 28.656 64 64v835.968c0 35.344-28.656 64-64 64zM418.184 862.682c0 18.664 14.336 32 32 32h128.632c18.664 0 32-14.336 32-32v-61.386h-191.632v61.386zM864 1.328h-804v835.968h193.184v-65.84c0 0-0.848-31.968 31.808-31.968 36 0 32.192 31.968 32.192 31.968v65.84h191.632v-65.84c0 0-2.128-32.128 31.882-32.128 32 0 32.128 32.128 32.128 32.128v65.84h191.184v-835.968z" />
<glyph unicode="&#xe050;" glyph-name="action-undo" d="M990.064 18.664c-0.336 0-0.82 0-1.088 0.032-16.192 0.528-26.4 13.088-28.886 29.216-1.088 11.882-33.968 299.088-482.256 298.884v-183.664c0-12.368-8.12-23.664-18.336-28.944-11.088-5.312-24.432-3.68-33.968 4.224l-414.986 343.886c-8.44 6.096-11.812 15.184-11.68 24.884s4.336 18.688 11.886 24.852l414.96 340.56c9.568 8.808 22.884 9.312 33.936 4.096 11.152-5.312 18.288-16.56 18.288-28.912v-189.632c185.968-5.904 330.992-65.812 424.336-184.986 151.936-188.886 118.032-436.16 116.432-446.912-2.368-15.664-13.882-28.184-29.648-28.184zM446.944 410.192c0.032 0 0.064 0 0.064 0 320.224-0.192 442.592-108.32 512.464-203.808-10.224 86.496-40.064 168.82-105.008 244.032-86.336 100.096-225.44 152.848-408.536 152.848-18.68 0-32 14.32-32 32v143.886l-332.432-283.36 332.432-285.904v148.4c0 8.496 3.386 16.656 9.408 22.656 6 5.984 14.128 9.36 22.608 9.36z" />
<glyph unicode="&#xe051;" glyph-name="action-redo" d="M33.936 18.664c0.336 0 0.82 0 1.088 0.032 16.192 0.528 26.4 13.088 28.886 29.216 1.088 11.882 32.986 299.088 481.248 298.884l1.008-183.664c0-12.368 8.12-23.664 18.336-28.944 11.088-5.312 24.432-3.68 33.968 4.224l414.986 343.886c8.44 6.096 11.812 15.184 11.68 24.884s-4.336 18.688-11.886 24.852l-414.96 340.56c-9.568 8.808-22.884 9.312-33.936 4.096-11.152-5.312-18.288-16.56-18.288-28.912l-1.008-189.632c-185.952-5.888-329.968-65.812-423.328-184.96-151.936-188.886-118.032-436.16-116.432-446.912 2.368-15.68 13.882-28.2 29.648-28.2zM588.056 410.192c-0.032 0-0.064 0-0.064 0-320.208-0.192-442.592-108.32-512.464-203.824 10.224 86.496 40.064 168.82 105.008 244.032 86.336 100.096 225.44 152.848 408.536 152.848 18.68 0 32 14.32 32 32v143.886l332.432-283.344-332.448-285.904v148.4c0 8.496-3.386 16.656-9.408 22.656-5.984 5.984-14.112 9.36-22.592 9.36z" />
<glyph unicode="&#xe052;" glyph-name="wrench" d="M1006.368 844.064c-10.884 4.986-23.584 3.088-32.56-4.848l-161.312-144.896-145.632 149.408 144.192 166.528c8.84 9.056 9.844 21.536 4.864 32.512s-15.664 18.696-28.52 18.696h-8.688c-89.12 0-242.986-8.664-311.664-88.344l-13.856-13.86c-83.28-84.868-86.288-198.386-48.68-290.586l-369.28-386.896c-49.892-50.48-49.892-132.32 0-182.816l45.082-45.696c24.896-25.232 58.536-38.856 90.186-38.856 32.624 0 65.264 12.624 90.144 38.856l384.82 388.828c35.44-19.152 84-31.664 124.884-31.664 65.386 0 128.344 26.368 184.528 84.256l13.664 13.84c84.608 85.648 83.456 238.296 83.892 308.416 0.032 12.096-6.928 23.088-18.844 28.112zM905.664 450.992l-11.882-13.882c-35.844-36.282-82.496-53.648-131.664-53.648-24.32 0-58.088 4.586-89.216 13.892-20 8.304-38.586 20.288-55.2 35.424l-410.186-413.616c-12.032-12.224-28.032-18.944-45.056-18.944s-33.040 6.82-45.088 18.944l-45.056 45.68c-24.864 25.216-24.864 66.224-0.016 91.44l400.884 408.864c-13.44 19.568-22.592 40.896-28.048 62.986h-0.016c-15.424 62.384-6.432 148.608 42.016 198.048l13.892 13.92c41.552 42.16 149.456 54.624 209.2 58.304l-118.36-135.536c-10.496-12.128-9.968-30.4 1.216-41.882l185.536-190.336c11.248-11.584 29.44-12.256 41.552-1.52l130.608 118.632c-3.888-63.36-16.192-155.386-55.936-195.68z" />
<glyph unicode="&#xe053;" glyph-name="umbrella" d="M1024.32 450.416c0-18.664-14.288-31.984-31.968-31.984h-448.88v-324.192c0-88.152-80.912-158.080-158.096-158.080s-158.112 80.928-158.112 158.080c0 18.664 14.32 31.984 31.984 31.984s31.984-14.32 31.984-31.984c0-51.904 42.224-94.128 94.16-94.128 51.92 0 94.16 42.224 94.16 94.128v324.192h-448.888c-18.664 0-31.984 14.336-31.984 31.984 0 248.296 180.912 404.112 489.856 414.48v62.986c0 18.664 14.32 31.968 31.984 31.968 18.68 0 31.968-14.32 31.968-31.968v-62.986c299.008-10.352 480.832-168.184 480.832-414.48zM959.152 482.384c-15.886 200.528-188.896 319.12-448.648 319.12s-430.896-118.592-446.656-319.104h894.304z" />
<glyph unicode="&#xe054;" glyph-name="trash" d="M896.8 800.986h-225.28v88.264c0 40.528-33.008 82.496-83.536 82.496h-181.984c-40.528 0-83.52-31.968-83.52-82.496v-88.264h-225.28c-18.664 0-32-14.336-32-32s14.336-32 32-32h44.016l84.24-839.92c3.104-34.624 32.608-61.886 68.136-61.886h398.8c34.528 0 64 28.152 68.088 61.482l84.304 840.24h44.016c18.68 0 32 14.336 32 32s-14.32 31.984-32 31.984zM416.48 888.24c0 5.232 4.282 9.504 9.52 9.504h181.984c5.248 0 9.536-4.282 9.536-9.504v-88.264h-191.040v88.264zM814.868 2.8c-0.16-1.886-2.256-3.536-3.386-3.536h-398.8c-1.12 0-3.232 1.844-3.424 3.84l-83.632 833.856h552.912l-83.68-834.16z" />
<glyph unicode="&#xe055;" glyph-name="tag" d="M1023.984 543.828v338.368c0 42.944-34.944 88.904-88.882 88.904h-345.386c-21.68 0-54.496 0-85.92-21.44l-505.936-505.952c-12.16-12.16-18.88-28.304-18.88-45.488 0-18.216 6.688-33.386 18.848-45.536l386.8-386.82c12.112-12.186 28.282-18.864 45.456-18.864s33.36 6.688 45.488 18.848l505.952 505.968c21.696 21.648 21.568 52.816 21.44 82.912zM958.296 506.064l-506.416-505.936-386.852 388.216 505.392 505.504c5.088 3.152 23.408 3.152 30.992 3.152l14.4-0.048 331.2 0.048c8.664 0 13.882-6.24 13.882-13.904v-338.624c0.064-12.186 0.128-32.544-2.688-38.408zM868.016 832c-80.688 0-128-58.312-128-128s58.312-128 128-128 128 58.312 128 128-58.312 128-128 128zM868.016 640c-35.344 0-64 28.656-64 64s28.656 64 64 64 64-28.656 64-64-28.656-64-64-64z" />
<glyph unicode="&#xe056;" glyph-name="support" d="M512 960c-282.868 0-512-229.232-512-512s229.232-512 512-512 512 229.232 512 512-229.232 512-512 512zM640 888.024c144.224-42.992 258.648-156.8 300.804-301.024h-208.568c-22.416 38.528-54.592 80.682-93.136 93.056v208.968zM803.632 448.892c0-105.936-85.892-191.808-191.632-191.808s-191.632 85.882-191.632 191.808 85.808 191.824 191.632 191.824 191.632-85.888 191.632-191.824zM448 891.082c20.912 2.992 42.256 4.624 64 4.624 21.828 0 43.088-1.632 64-4.624v-195.808c-20.48 5.296-41.856 8.4-64 8.4s-43.504-3.104-64-8.4v195.808zM384 888.024v-208.968c-38.56-22.384-80.82-54.544-93.136-93.056h-208.568c43.040 144.224 156.48 258.032 300.804 301.024zM64.304 448.84c0 21.824 1.856 43.168 4.88 64.16h195.392c-5.312-20.512-8.24-41.984-8.24-64.186 0-22.064 2.912-43.424 8.16-63.824h-195.36c-2.986 20.88-4.832 42.144-4.832 63.84zM384 18.682c-144.336 43.008-258.808 156.986-300.8 301.328h208.482c22.432-38.656 54.656-80.944 93.328-93.392v-208.936zM586 4.624c-20.912-2.992-42.282-4.624-64-4.624-21.844 0-43.088 1.648-64 4.624v195.886c20.496-5.296 41.856-8.4 64-8.4s43.52 3.104 64 8.4v-195.886zM640 18.682v208.936c38.656 22.448 80.896 54.836 93.312 93.392h208.482c-42.992-144.336-156.464-258.32-300.884-301.328zM859.504 384c5.248 20.4 8.16 41.86 8.16 63.824 0 22.192-2.928 43.664-8.256 64.186h195.408c3.008-20.992 4.88-42.336 4.88-64.16 0-21.696-1.84-42.986-4.832-63.84h-195.36z" />
<glyph unicode="&#xe058;" glyph-name="size-fullscreen" d="M685.904 586.816l285.264 283.568-0.896-155.082c-0.288-12.928 9.968-24.186 22.912-23.888l16.416 0.016c12.944 0.304 23.648 8 23.92 20.928l0.682 231.008c0 0.224-0.88 0.4-0.88 0.624l1.264 11.812c0.128 6.496-1.392 12.288-5.584 16.432-4.144 4.186-9.952 6.82-16.4 6.544l-11.696-0.282c-0.224 0-0.4-0.080-0.64-0.112l-229.488 1.008c-12.928-0.288-23.632-10.986-23.92-23.92l-0.032-16.416c1.968-15.248 13.952-24.16 26.88-23.882l151.248-0.4-284.288-282.624c-12.496-12.496-12.496-32.852 0-45.264 12.496-12.48 32.852-12.48 45.248 0zM339.088 319.184l-285.264-282.82 0.88 154.224c0.304 12.944-9.968 24.192-22.896 23.904l-18.424-0.032c-12.96-0.32-23.648-8-23.92-20.944l-0.682-231.008c0-0.224 0.88-0.368 0.88-0.624l-1.264-11.68c-0.144-6.496 1.386-12.32 5.584-16.432 4.128-4.192 9.952-6.82 16.384-6.56l11.812 0.288c0.224 0 0.384 0.096 0.64 0.096l230.496-1.008c12.928 0.32 23.616 11.008 23.92 23.936l0.032 16.432c-1.968 15.216-13.952 24.16-26.88 23.882l-151.248 0.4 284.282 282.592c12.496 12.496 12.496 32.852 0 45.248s-32.836 12.512-45.232 0.016zM1024.208-28.386l-0.682 231.008c-0.288 12.944-10.992 20.624-23.92 20.944l-16.416 0.032c-12.944 0.288-23.184-10.986-22.912-23.904l0.896-155.082-285.28 283.552c-12.496 12.496-32.852 12.496-45.248 0s-12.496-32.852 0-45.248l284.282-282.592-151.232-0.4c-12.928 0.288-24.912-8.656-26.88-23.882l0.032-16.432c0.304-12.944 11.008-23.632 23.92-23.936l229.504 1.008c0.24 0 0.416-0.096 0.64-0.096l11.696-0.288c6.448-0.16 12.282 2.368 16.4 6.56 4.192 4.128 5.696 9.936 5.584 16.432l-1.264 11.68c0 0.256 0.88 0.4 0.88 0.624zM110.048 894.682l151.264 0.4c12.928-0.288 24.912 8.64 26.88 23.882l-0.032 16.432c-0.32 12.944-11.008 23.648-23.92 23.92l-230.512-0.992c-0.256 0.032-0.416 0.112-0.64 0.112l-11.812 0.282c-6.432 0.186-12.282-2.368-16.384-6.544-4.208-4.144-5.828-9.936-5.584-16.432l1.264-11.812c0-0.224-0.88-0.384-0.88-0.624l0.682-231.008c0.288-12.928 10.986-20.624 23.92-20.928l18.424-0.016c12.928-0.288 23.184 10.96 22.896 23.888l-0.88 154.224 285.264-282.82c12.48-12.496 32.852-12.496 45.248 0s12.496 32.868 0 45.264l-284.288 282.592z" />
</font>
</defs>
</svg>
