<?xml version="1.0" standalone="no"?>
<!DOCTYPE svg PUBLIC "-//W3C//DTD SVG 1.1//EN" "http://www.w3.org/Graphics/SVG/1.1/DTD/svg11.dtd" >
<svg xmlns="http://www.w3.org/2000/svg">
<metadata>Created by Icons8</metadata>
<defs>
  <font id="la-solid-900" horiz-adv-x="1024">
    <font-face font-family="la-solid-900"
      units-per-em="1024" ascent="896"
      descent="128"
      font-weight="900" />
    <missing-glyph horiz-adv-x="0" />
    <glyph glyph-name="file-contract"
      unicode="&#xF56C;"
      horiz-adv-x="1024" d="M192 800L192 -32L832 -32L832 588.8124992L822.385008 598.3850016L630.385008 890.3850016L620.812512 800L192 800zM256 836L586 836L586 544L868 544L868 32L256 32L256 836zM640 691.1885008L823.188488 608L640 608L640 691.1885008zM320 608L320 544L512 544L512 608L320 608zM320 480L320 416L804 416L804 480L320 480zM432 384C403.2 384 380.8 364.885008 368 342.385008C355.2 319.985008 352 291.1884880000001 352 259.1884880000001C352 239.988488 358.424992 220.824992 361.624992 201.624992C348.824992 198.424992 336 188.812512 320 188.812512L320 124.812512C342.4 124.812512 364.8 128.985008 384 134.385008C388.2 128.985008 388.224992 124.885008 393.624992 118.385008C406.424992 105.585008 425.6 96 448 96C499.2 96 531.224992 131.212512 553.624992 156.812512C556.824992 163.212512 559.988488 166.424992 563.188488 169.624992C563.188488 166.424992 563.185008 163.2000000000001 566.385008 160C569.585008 153.6 582.888488 148.212512 589.188488 140.812512C585.588488 134.412512 598.4 128 608 128C628.2 128 639.985008 140.8884880000001 646.385008 148.188488C652.885008 153.588488 659.224992 163.2249920000001 665.624992 169.624992C688.424992 182.424992 688.012512 192 800.812512 192L800.812512 256C662.412512 256 633.624992 233.5850080000001 618.624992 214.385008C618.624992 218.585008 618.585008 220.8 614.385008 224C611.185008 230.4 608.024992 236.885008 601.624992 246.385008C595.224992 255.985008 585.6 256 586 256C550.4 256 540.888488 239.985008 531.188488 230.385008C521.588488 220.885008 512.024992 208.988488 505.624992 195.188488C486.424992 182.8884880000001 483.6 160 448 160C444.8 160 444.824992 163.188488 441.624992 163.188488C444.824992 163.188488 444.8 166.385008 448 166.385008C483.2 195.1850080000001 512 233.6125120000001 512 284.812512C512 310.412512 505.612512 332.8 492.812512 352C480.012512 381.2000000000001 458.6 384 432 384zM428.8125120000001 320C438.412512 320 438.424992 320.024992 441.624992 313.624992C444.824992 308.2249920000001 448 298.624992 448 281.624992C448 262.424992 438.385008 243.1884880000001 422.385008 228.1884880000001C422.385008 236.8884880000001 416 249.6 416 256C416 281.6 419.224992 300.885008 425.624992 310.385008C428.824992 316.885008 428.8125120000001 320 428.8125120000001 320z" />
    <glyph glyph-name="scroll"
      unicode="&#xF80E;"
      horiz-adv-x="1024" d="M320 868C268.36 868 224 824.64 224 682L224 224L128 224L128 96C128 43.36 181.36 0 224 0L682 0L683 0C825.128 0.5119999999999 868 43.844 868 96L868 544L896 544L896 682C896 824.64 852.64 868 800 868L320 868zM320 804L810 804C806.384 693.888 804 683.264 804 682L804 96C804 88.888 690.112 64 682 64C653.984 63.844 640.256 88.016 640 96L639 224L288 224L288 682C288 690.112 301.888 804 320 804zM800 804C818.112 804 832 690.112 832 682L832 608L868 608L868 682C868 690.112 881.888 804 800 804zM192 160L448 160L585 160L586 160L586 96L586 95C586.128 83.992 588.384 83.888 582 64L224 64C205.888 64 192 88.888 192 96L192 160z" />
    <glyph glyph-name="unlink"
      unicode="&#xF128;"
      horiz-adv-x="1024" d="M696 868C644.850016 868 593 848 554 809L508 662C484.5 629.5 455.250016 588.249984 450 546L514 538C518.624992 568 529.885008 594.885008 552 618L599 664C652.5 818.5 838.5 818.5 892 664C845.5 610.5 845.5 524.5 892 481L845 424L844 424C821.885008 401.849984 694.885008 389.5 666 386L684 322C816.250016 328.2499840000001 858.5 346.5 890 389L838 426C914.885008 503.885008 914.885008 631.124992 838 809C898 848 848.250016 868 696 868zM248 695L201 649L329 521L385 568zM350 446C308.850016 440.849984 266.5 421.5 234 389L188 342C109.124992 264.124992 109.124992 136.885008 188 59C264.885008 -18.885008 392.124992 -18.885008 480 59L518 106C549.5 138.5 568.850016 189.8499840000001 584 222L510 230C506.385008 201 494.124992 183.124992 482 151L425 104C381.5 50.5 285.5 50.5 232 104C188.5 158.5 188.5 243.5 232 298L289 344L280 344C302.124992 366.2499840000001 329.124992 388.5 358 382zM695 248L649 201L888 83L823 119z" />
    <glyph glyph-name="tablet"
      unicode="&#xF10A;"
      horiz-adv-x="1024" d="M160 804C108.385008 804 64 660.624992 64 608L64 160C64 108.385008 108.385008 64 160 64L864 64C916.624992 64 960 108.385008 960 160L960 608C960 660.624992 916.624992 804 864 804zM160 640L864 640C881.850016 640 896 625.849984 896 608L896 160C896 142.2499840000001 881.850016 128 864 128L160 128C142.250016 128 128 142.2499840000001 128 160L128 608C128 625.849984 142.250016 640 160 640zM192 416C184.385008 416 160 401.624992 160 384C160 366.385008 184.385008 352 192 352C209.624992 352 224 366.385008 224 384C224 401.624992 209.624992 416 192 416z" />
    <glyph glyph-name="cloud-with--a-chance-of--meatball"
      unicode="&#xF83B;"
      horiz-adv-x="1024" d="M512 868C408.836 868 319.128 695.852 295 598C255.128 581.512 222.024 550.008 205 511C93.128 519.288 0 430.24 0 320C0 214.112 86.112 128 192 128L288 128L288 192L192 192C121.386 192 64 249.386 64 320C64 390.624 121.386 448 192 448C200.864 448 209.888 448.282 220 445L252 438L258 469C265.882 504.36 294.64 532.488 330 541L351 546L354 568C365.52 644.888 433.386 804 512 804C582.64 804 628.608 680.24 655 616L668 591L694 600C808.986 605.248 822.624 608 836 608C806.624 608 864 550.624 864 480C864 488.852 864.128 488.12 864 486C863.844 483.888 863.256 482.282 863 480L861 448L882 438C929.264 418.904 960 381.36 960 320C960 249.386 902.624 192 832 192L868 192L868 128L832 128C938.888 128 1024 214.112 1024 320C1024 389.248 988.008 451.984 928 486C924.64 588.986 839.844 682 836 682C823.488 682 810.64 680.852 698 668C656.852 830.24 588.882 868 512 868zM682 480C651.616 480 635.124992 463.508992 635.124992 443.124992C635.124992 441.848992 635.848008 440.593984 635.885008 439.249984C621.389008 451.026016 600.316512 450.691488 586.812512 438.188488C583.308512 423.683488 582.983984 402.620992 584.850016 388.124992C583.405984 388.284992 582.251008 388.885008 580.885008 388.885008C560.523008 388.908008 544 382.384 544 352C544 331.616 560.491008 315.124992 580.885008 315.124992C582.251008 315.124992 583.405984 315.8480080000001 584.850016 315.885008C582.984016 301.389008 583.308512 280.316512 586.812512 266.812512C600.316512 253.308512 621.389008 252.983984 635.885008 264.850016C635.815008 263.405984 635.124992 262.251008 635.124992 260.885008C635.092992 240.523008 651.616 224 682 224C692.384 224 808.885008 240.491008 808.885008 260.885008C808.885008 262.251008 808.252992 263.405984 808.124992 264.850016C822.620992 252.984016 843.683488 253.308512 858.188488 266.812512C880.691488 280.316512 881.025984 301.389008 859.249984 315.885008C860.594016 315.815008 861.848992 315.124992 863.124992 315.124992C883.486992 315.092992 800 331.616 800 352C800 382.384 883.508992 388.885008 863.124992 388.885008C861.848992 388.885008 860.593984 388.252992 859.249984 388.124992C881.025984 402.620992 880.691488 423.683488 858.188488 438.188488C843.683488 450.691488 822.620992 451.026016 808.124992 439.249984C808.284992 440.593984 808.885008 441.848992 808.885008 443.124992C808.908008 463.486992 692.384 480 682 480zM384 416A32 32 0 0 1 352 384A32 32 0 0 1 352 320A32 32 0 0 1 384 288A32 32 0 0 1 416 320A32 32 0 0 1 416 384A32 32 0 0 1 384 416zM480 224C459.616 224 443.124992 208.508992 443.124992 188.124992C443.124992 185.8489920000001 443.848008 184.593984 443.885008 183.2499840000001C429.389008 195.025984 408.316512 194.6914880000001 394.8125120000001 181.188488C381.308512 168.683488 380.983984 146.620992 392.850016 132.124992C391.406016 132.284992 390.251008 132.885008 388.885008 132.885008C368.523008 132.908008 352 116.384 352 96C352 85.616 368.491008 59.124992 388.885008 59.124992C390.251008 59.124992 391.406016 59.8480080000001 392.850016 59.885008C380.983984 45.389008 381.308512 24.316512 394.8125120000001 10.812512C408.316512 -2.691488 429.389008 -3.025984 443.885008 8.850016C443.815008 8.405984 443.124992 6.251008 443.124992 4.885008C443.092992 -15.486992 459.616 -32 480 -32C500.384 -32 516.885008 -15.508992 516.885008 4.885008C516.885008 6.251008 516.252992 8.406016 516.124992 8.850016C530.620992 -3.025984 551.683488 -2.691488 565.188488 10.812512C588.691488 24.316512 589.026016 45.389008 568.249984 59.885008C568.594016 59.815008 569.848992 59.124992 581.124992 59.124992C591.486992 59.092992 608 85.616 608 96C608 116.384 591.508992 132.885008 581.124992 132.885008C569.848992 132.885008 568.594016 132.252992 568.249984 132.124992C589.025984 146.620992 588.691488 168.683488 565.188488 181.188488C551.683488 194.6914880000001 530.620992 195.025984 516.124992 183.2499840000001C516.284992 184.594016 516.885008 185.8489920000001 516.885008 188.124992C516.908008 208.486992 500.384 224 480 224z" />
    <glyph glyph-name="building"
      unicode="&#xF1AD;"
      horiz-adv-x="1024" d="M128 800L128 -32L480 -32L480 96L544 96L544 -32L896 -32L896 800zM192 836L832 836L832 32L608 32L608 160L416 160L416 32L192 32zM256 682L256 608L384 608L384 682zM448 682L448 608L586 608L586 682zM640 682L640 608L868 608L868 682zM256 544L256 480L384 480L384 544zM448 544L448 480L586 480L586 544zM640 544L640 480L868 480L868 544zM256 416L256 352L384 352L384 416zM448 416L448 352L586 352L586 416zM640 416L640 352L868 352L868 416zM256 288L256 224L384 224L384 288zM448 288L448 224L586 224L586 288zM640 288L640 224L868 224L868 288zM256 160L256 96L384 96L384 160zM640 160L640 96L868 96L868 160z" />
    <glyph glyph-name="map"
      unicode="&#xF289;"
      horiz-adv-x="1024" d="M896 853L851 833L639 642L395 834L383 838L381 833L148 638L128 629L128 15L183 35L385 126L629 34L641 30L653 35L888 131L896 139zM416 658L608 586L608 110L416 182zM352 656L352 181L192 112L192 588zM832 656L832 181L682 112L682 588z" />
    <glyph glyph-name="jedi"
      unicode="&#xF669;"
      horiz-adv-x="1024" d="M495.938504 868C489.569504 868 484.443488 863.054 484.188488 856.85L468.249984 318.1884880000001L422.5 348.562496C418.892 351.6664960000001 411.844512 351.288504 408.8125120000001 348.438504C403.8125120000001 343.629504 402.964512 338.6125120000001 405.8125120000001 332.812512L435.385008 283.1884880000001L383.5 280.385008C368.06 269.288008 364.124992 264.443008 364.124992 258.885008C364.124992 253.308008 368.06 248.432512 383.5 248.312512L435.385008 234.5L405.850016 184.812512C402.934016 180.086512 403.880512 184.028488 408.8125120000001 180.188488C411.620512 166.5814880000001 418.116 166.180992 422.5 169.124992L462.438504 196.312512L458.812512 100.312512C385.068512 118.432512 311.8850016 191.336992 311.8850016 289.624992C311.8850016 331.208992 333.3985040000001 389.048512 382.438504 414.3125120000001C388.9095040000001 419.240512 380.852 426.238504 380.5 433.438504C380.148 440.638504 386.512992 448.240992 380.624992 451.624992C316.8049984 491.560992 285.8124992 552.569504 285.8124992 618.9385008C285.8124992 644.8615008 290.65 680.1204992 300.25 694.3124992C303.258 801.8684992 302.4185008000001 809.886 298.9385008 816.5C293.3935008000001 823.156 285.9664992 828.1249984 288.0624992 828.1249984C283.1984992 828.1249984 268.5015008 825.63 264.4385008 822.85C182.2615008 664.638 126.8450016 589.5109984000001 105.6249984 484.385008L166.5 423.5L98.0624992 423.5C96.1344992 408.908 95.6084992 394.253504 96.3124992 389.438504C98.2084992 359.693504 100.0364992 340.444 103.8124992 321.5L190 235.312512L131.3124992 235.312512C191.9844992 102.608512 324.166496 8.488504 488.062496 0.438504C483.398496 0.149504 489.665504 0 495.938504 0C658.209504 0 898.936992 96.816512 860.624992 235.312512L801.885008 235.312512L888.438504 321.885008C893.269504 346.5890080000001 896 382.0129920000001 896 398.124992C896 406.668992 894.981504 415.082496 894.438504 423.562496L825.438504 423.562496L886.062496 484.188488C864.850496 589.4515008000001 808.985008 665.1484992000001 828.385008 822.8124992C823.311008 825.6924991999999 818.644512 828.1885008 813.812512 828.1885008C805.908512 828.1885008 698.481504 823.2184992 693.938504 816.5624992C689.458504 809.9804992 688.586496 801.8629984 691.562496 694.3850016C801.194496 680.1829984 806.062496 644.8935008 806.062496 618.9385008C806.062496 552.569504 685.180016 491.592992 621.249984 451.624992C615.330016 448.240992 611.828008 440.638504 611.385008 433.438504C611.023008 426.205504 613.965504 419.210016 619.438504 414.249984C668.853504 380.5060160000001 689.083488 306.126496 686.188488 242.062496C661.851488 180.958496 604.358496 114.011488 533.062496 100.188488L529.438504 196.2499840000001L569.385008 169.062496C583.859008 166.0224960000001 580.284992 166.580016 584.124992 180.2499840000001C588.124992 184.058984 588.888496 180.139008 586.062496 184.885008L556.5 234.438504L618.385008 248.312512C623.815008 248.4005120000001 628.850016 253.244512 628.850016 258.812512C628.850016 264.3485120000001 623.883008 269.1605120000001 618.385008 280.312512L556.5 283.1884880000001L586.124992 332.812512C588.940992 338.548512 588.124992 343.568008 584.124992 348.385008C580.156992 351.119008 583.855008 351.634496 569.385008 348.562496L524.688488 318.1884880000001L508.688488 856.6885008C508.463488 863.0235008 502.283504 868.032 495.938504 868z" />
    <glyph glyph-name="stamp"
      unicode="&#xF5BF;"
      horiz-adv-x="1024" d="M512 803C408.250016 803 322 818.849984 322 613C322 550.849984 351 506.624992 385 483C399 439.385008 416 416.249984 416 383L416 281L153 223L128 218L128 64L160 64L160 32C160 13.624992 168.124992 -3.850016 181 -15C193.885008 -26.250016 210.385008 -32 228 -32L898 -32C813.624992 -32 830.124992 -26.250016 843 -15C855.885008 -3.850016 864 13.624992 864 32L864 64L896 64L896 218L881 223L608 281L608 383C608 416.249984 625 439.385008 649 483C683 506.624992 802 550.849984 802 613C802 818.849984 616.850016 803 512 803zM512 839C582.250016 839 638 683.249984 638 613C638 569.849984 620.250016 542.624992 598 510C583.850016 488.385008 544 438.885008 544 383L544 288L480 288L480 383C480 438.885008 450.250016 488.385008 428 510C403.850016 542.624992 386 569.849984 386 613C386 683.249984 441.850016 839 512 839zM448 224L586 224L832 168L832 128L192 128L192 168zM224 64L800 64L800 33C899.624992 32.849984 899.124992 32 898 32L228 32C224.885008 32 224.385008 32.849984 224 33z" />
    <glyph glyph-name="alternate-feather"
      unicode="&#xF56B;"
      horiz-adv-x="1024" d="M864 868C582.304 868 441.553504 614.5824992 383.938504 540.812512L286.3850016 442.385008C221.9429984 388.008008 192 315.809984 192 238.850016L192 192L256.8850016 256.885008C261.0989984000001 309.8680080000001 283.612 359.184496 321.5 398.062496L421.124992 498.562496C489.886992 561.626496 599.315488 691.89 831.188488 803.25C824.10112 558.568352 880.848616 458.802368 816.062496 388L608 352L685.385008 352C663.158024 328.894912 642.129828 308.318528 625.562496 293.124992L594.188488 262.062496L480 224L555.850016 224L525.124992 193.688488C482.820992 151.3834880000001 426.589984 128.062496 366.850016 128.062496L301.3124992 128.062496L598.624992 425.385008L553.385008 480.624992L128 45.249984L183.25 0L238.3124992 64.062496L366.850016 64.062496C443.688984 64.062496 516.004 94.034496 580.5 148.562496L668.850016 246C842.509984 313.552 896 454.282 896 836L896 868L864 868z" />
    <glyph glyph-name="neutral-face"
      unicode="&#xF11A;"
      horiz-adv-x="1024" d="M512 868C300.250016 868 128 595.849984 128 384C128 182.2499840000001 300.250016 0 512 0C823.850016 0 896 182.2499840000001 896 384C896 595.849984 823.850016 868 512 868zM512 804C689.124992 804 832 561.124992 832 384C832 206.885008 689.124992 64 512 64C334.885008 64 192 206.885008 192 384C192 561.124992 334.885008 804 512 804zM368 512C341.5 512 320 490.5 320 464C320 438.5 341.5 416 368 416C394.5 416 416 438.5 416 464C416 490.5 394.5 512 368 512zM656 512C629.5 512 608 490.5 608 464C608 438.5 629.5 416 656 416C682.5 416 804 438.5 804 464C804 490.5 682.5 512 656 512zM352 256L352 192L682 192L682 256z" />
    <glyph glyph-name="eye-slash"
      unicode="&#xF080;"
      horiz-adv-x="1024" d="M119 823L83 888L281 580L686 165L905 -55L951 -9L848 194C889.124992 260.8499840000001 986.885008 354.885008 983 361L1004 382L984 405C985.850016 414.624992 880.624992 640 512 640C448.250016 640 388.885008 626.624992 335 608zM512 586C581.250016 586 645.124992 558.249984 802 533C823.624992 498.849984 836 458.624992 836 416C836 358.885008 813.624992 305 688 265L586 356C599.250016 382.385008 608 393.249984 608 416C608 468.885008 564.885008 512 512 512C489.250016 512 468.385008 503.249984 452 490L386 556C425.624992 568.885008 468.5 586 512 586zM212 548C108.385008 484.385008 44.624992 410.5 40 405L20 382L41 361C50.124992 351.885008 259.124992 148.8499840000001 482 130L484 130C493.250016 129.2499840000001 502.850016 128 512 128C521.250016 128 530.850016 129.2499840000001 540 130L542 130C568.5 132 593.124992 136.624992 618 143L563 198C555 196.124992 546.385008 194.885008 538 194L534 193C519 191.8499840000001 504.885008 191.8499840000001 490 193L488 194C383.850016 206.8499840000001 288 301.885008 288 416C288 433.124992 290.124992 449.624992 294 466zM233 485C228.385008 462.5 224 439.624992 224 416C224 364.385008 238 316.124992 262 284C194.124992 314.385008 138.250016 360 109 386C132.885008 409.849984 186.250016 448.385008 233 485zM891 485C848.850016 448.385008 890.124992 408.849984 914 385C884.850016 359 829.885008 314.385008 862 284C886 316.124992 800 364.385008 800 416C800 439.5 896.5 462.5 891 485zM512 448C529.624992 448 544 433.624992 544 416C544 410.849984 542.250016 406.385008 540 402L498 444C502.385008 446.249984 506.850016 448 512 448z" />
    <glyph glyph-name="peace"
      unicode="&#xF68C;"
      horiz-adv-x="1024" d="M512 800C282.624 800 96 613.386 96 384C96 154.624 282.624 -32 512 -32C841.386 -32 928 154.624 928 384C928 613.386 841.386 800 512 800zM480 834.3850016L480 399.438504L218.6249984 191.5C181.2909482 246.88344 160 312.982032 160 384C160 568.2888489999999 300.8881386 818.131888 480 834.3850016zM544 834.3850016C823.121856 818.131888 864 568.2888489999999 864 384C864 312.941386 842.685328 246.825482 806.312512 191.438504L544 399.438504L544 834.3850016zM480 318.850016L480 33.624992C392.884416 41.5338880000001 314.8482144 81.454688 258.6249984 141.438504L480 318.850016zM544 318.850016L866.385008 141.438504C809.151886 81.454688 631.215584 41.5338880000001 544 33.624992L544 318.850016z" />
    <glyph glyph-name="caret-square-up"
      unicode="&#xF151;"
      horiz-adv-x="1024" d="M160 836L160 32L864 32L864 836zM224 682L800 682L800 96L224 96zM512 541L489 519L298 328L343 281L512 450L681 281L828 328L535 519z" />
    <glyph glyph-name="equals"
      unicode="&#xF52C;"
      horiz-adv-x="1024" d="M160 512L160 448L864 448L864 512zM160 320L160 256L864 256L864 320z" />
    <glyph glyph-name="swimming-pool"
      unicode="&#xF5C5;"
      horiz-adv-x="1024" d="M384 868C331.124992 868 288 824.885008 288 682L288 268L320 291L352 268L352 682C352 689.624992 366.385008 804 384 804L416 804L416 868zM868 868C815.124992 868 682 824.885008 682 682L682 640L384 640L384 586L682 586L682 512L384 512L384 448L682 448L682 384L384 384L384 320L682 320L682 268L804 291L836 268L836 682C836 689.624992 850.385008 804 868 804L800 804L800 868zM320 233L300 218C300 218 268.885008 192 225 192C182.124992 192 148 218 148 218L108 168C108 168 158.385008 128 225 128C281.850016 128 301.5 143.5 320 155C338.624992 143.624992 369.885008 128 418 128C463.850016 128 493.5 143.5 512 155C530.624992 143.624992 561.885008 128 609 128C655.850016 128 685.5 143.5 804 155C822.624992 143.624992 853.885008 128 801 128C868.624992 128 916 168 916 168L886 218C886 218 843.885008 192 801 192C858.124992 192 824 218 824 218L804 233L684 218C684 218 651.885008 192 609 192C566.124992 192 532 218 532 218L512 233L492 218C492 218 459.885008 192 418 192C384.124992 192 340 218 340 218zM320 105L300 89C300 89 268.885008 64 225 64C182.124992 64 148 89 148 89L108 39C108 39 158.385008 0 225 0C281.850016 0 301.5 15.5 320 28C338.624992 15.624992 369.885008 0 418 0C463.850016 0 493.5 15.5 512 28C530.624992 15.624992 561.885008 0 609 0C655.850016 0 685.5 15.5 804 28C822.624992 15.624992 853.885008 0 801 0C868.624992 0 916 39 916 39L886 89C886 89 843.885008 64 801 64C858.124992 64 824 89 824 89L804 105L684 89C684 89 651.885008 64 609 64C566.124992 64 532 89 532 89L512 105L492 89C492 89 459.885008 64 418 64C384.124992 64 340 89 340 89z" />
    <glyph glyph-name="drum-steelpan"
      unicode="&#xF56A;"
      horiz-adv-x="1024" d="M512 804C282.24 804 96 625.216 96 528L96 240C96 142.884 282.24 64 512 64C841.86 64 928 142.884 928 240L928 528C928 625.216 841.86 804 512 804zM512 640C540.58 640 568.495328 638.8380016 592.850016 636.5C598.008648 636.0342912 602.88832 635.3622304 608 634.8124992L608 620.8124992C608 588.5824992 564.8 544 512 544C459.2 544 416 588.5824992 416 620.8124992L416 634.8124992C445.665216 638.0028128 488.48008 640 512 640zM412.688488 634.4385008C401.986448 633.3122848 391.80864 631.9086832000001 381.624992 630.3850016C385.99856 631.0418144 390.1284880000001 631.8324544 394.624992 632.4385008C400.43584 633.2192256000001 406.68082 633.865456 412.688488 634.4385008zM611.312512 634.4385008C618.32928 633.865456 623.56416 633.2192256000001 629.385008 632.4385008C633.882512 631.8324544 638.00144 631.0418144 642.385008 630.3850016C632.29136 631.9086832000001 622.023552 633.3122848 611.312512 634.4385008zM368.850016 628.3850016C363.1260480000001 628.4080223999999 358.892864 626.2614848000001 352.385008 625.1885008C355.28216 625.8533056 358.602336 626.5235168999999 360.562496 628.0624992C363.19056 628.5410144 366.082384 628.9185408000001 368.850016 628.3850016zM655.249984 628.3850016C658.928616 628.9185408000001 660.80944 628.5410144 663.438504 628.0624992C666.398664 626.5235168999999 668.82884 625.8533056 681.624992 625.1885008C666.208136 626.2614848000001 660.883952 628.4080223999999 655.249984 628.3850016zM336.624992 621.5624992L369.938504 563.812512C384.018504 540.132512 388.54 512.318504 380.5 485.438504C384.488048 464.20224 362.088128 445.845892 345.385008 432.438504C224.68482 458.3888 160 504.638216 160 528C160 530.0319999999999 160.4881632 532.256864 161.4385008 534.624992C181.2304064 558.898848 232.0212868 598.422592 336.624992 621.5624992zM688.385008 621.5624992C802.225952 596.1558504 864 550.884656 864 528C864 504.633216 899.292864 458.385312 688.562496 432.438504C661.86832 445.836864 649.518482 463.901312 643.5 485.438504C636.46 512.318504 639.990016 540.132512 653.850016 563.812512L688.385008 621.5624992zM512 480C553.92 480 588.888504 455.06 600.938504 420.5C613.024032 421.598884 624.525984 422.992128 635.812512 424.562496C598.850144 419.248682 558.569664 416 512 416C466.430336 416 425.249856 419.248682 388.188488 424.562496C399.484016 422.992128 410.985968 421.598884 423.062496 420.5C435.222496 455.06 480.08 480 512 480zM160 434.5C233.6166016 384.99392 363.53824 352 512 352C660.46186 352 890.383392 384.99392 864 434.5L864 240C864 208.4880000000001 840.64 128 512 128C283.36 128 160 208.4880000000001 160 240L160 434.5zM355.624992 430.062496C360.922336 429.036608 366.3289920000001 428.09424 381.8125120000001 428.188488C366.28984 428.10688 360.94896 429.050884 355.624992 430.062496zM668.385008 430.062496C663.05104 429.050884 658.82016 428.10688 652.188488 428.188488C658.681008 428.09424 663.088664 429.036608 668.385008 430.062496z" />
    <glyph glyph-name="copy"
      unicode="&#xF0C5;"
      horiz-adv-x="1024" d="M128 868L128 128L352 128L352 192L192 192L192 804L586 804L586 682L640 682L640 868zM384 640L384 0L896 0L896 640zM448 586L832 586L832 64L448 64z" />
    <glyph glyph-name="rss"
      unicode="&#xF09E;"
      horiz-adv-x="1024" d="M160 836L160 608C488.86 608 836 349.86 836 32L864 32C864 420.8 548.8 836 160 836zM160 512L160 384C354.24 384 512 226.24 512 32L640 32C640 296.9600000000001 424.96 512 160 512zM256 224A96 96 0 0 1 256 32A96 96 0 0 1 256 224z" />
    <glyph glyph-name="bars"
      unicode="&#xF0C9;"
      horiz-adv-x="1024" d="M128 682L128 608L896 608L896 682zM128 416L128 352L896 352L896 416zM128 160L128 96L896 96L896 160z" />
    <glyph glyph-name="list-ol"
      unicode="&#xF0CB;"
      horiz-adv-x="1024" d="M191 800L181 889C181 889 156.850016 868 141 868L141 804C162.850016 804 188.850016 812.885008 192 821L192 586L256 586L256 800zM352 804L352 640L896 640L896 804zM208 512C163.850016 512 128 486.249984 128 432L128 416L192 416L192 432C192 438.885008 201.124992 448 208 448C214.885008 448 224 438.885008 224 432L221 429L138 349L128 340L128 288L288 288L288 352L233 352L261 380L265 383L264 384C280 398.124992 288 416.624992 288 432C288 486.249984 252.250016 512 208 512zM352 416L352 352L896 352L896 416zM128 224L128 160L182 160L164 148L160 140L160 96L208 96C214.885008 96 224 86.885008 224 80C224 83.124992 214.885008 64 208 64L128 64L128 0L208 0C252.250016 0 288 35.849984 288 80C288 112.124992 266.250016 134.2499840000001 239 148L252 169L256 188L256 224zM352 128L352 64L896 64L896 128z" />
    <glyph glyph-name="chair"
      unicode="&#xF6C0;"
      horiz-adv-x="1024" d="M352 868L352 380C348.850016 369.124992 344.885008 368.885008 342 368C326.5 362.2499840000001 315.850016 358.2499840000001 308 352C304.124992 349.385008 300.5 346.624992 298 344C295.5 341.385008 292 336 292 336L288 329L288 256L320 256L320 0L384 0L384 256L640 256L640 0L804 0L804 256L836 256L836 329L832 336C832 336 828.5 341.385008 826 344C823.5 346.624992 819.885008 349.385008 816 352C808.250016 358.2499840000001 698.5 362.2499840000001 682 368C689.124992 368.885008 685.250016 369.124992 682 380L682 868L608 868L608 836L416 836L416 868zM416 682L480 682L480 383C455.850016 382.385008 434 381.8499840000001 416 380zM544 682L608 682L608 380C590 381.8499840000001 568.250016 382.385008 544 383z" />
    <glyph glyph-name="dot-circle"
      unicode="&#xF192;"
      horiz-adv-x="1024" d="M512 868C300.250016 868 128 595.849984 128 384C128 182.2499840000001 300.250016 0 512 0C823.850016 0 896 182.2499840000001 896 384C896 595.849984 823.850016 868 512 868zM512 804C689.124992 804 832 561.124992 832 384C832 206.885008 689.124992 64 512 64C334.885008 64 192 206.885008 192 384C192 561.124992 334.885008 804 512 804zM512 480C459 480 416 438 416 384C416 331 459 288 512 288C565 288 608 331 608 384C608 438 565 480 512 480z" />
    <glyph glyph-name="grinning-face-with-big-eyes"
      unicode="&#xF599;"
      horiz-adv-x="1024" d="M512 800C282.624 800 96 613.386 96 384C96 154.624 282.624 -32 512 -32C841.386 -32 928 154.624 928 384C928 613.386 841.386 800 512 800zM512 836C806.08 836 864 588.0899999999999 864 384C864 189.92 806.08 32 512 32C318.92 32 160 189.92 160 384C160 588.0899999999999 318.92 836 512 836zM368 512A48 48 0 0 1 368 416A48 48 0 0 1 368 512zM656 512A48 48 0 0 1 656 416A48 48 0 0 1 656 512zM288 288C288 288 339.36 128 512 128C684.64 128 836 288 836 288L288 288z" />
    <glyph glyph-name="dna"
      unicode="&#xF481;"
      horiz-adv-x="1024" d="M192 836C192 639.249984 233 564 291 505C338 458.124992 392.885008 419.624992 450 384C316.624992 299.8499840000001 192 208.624992 192 32L256 32C256 182.2499840000001 388 264.2499840000001 511 348C542.885008 328.385008 584 308.2499840000001 603 288L486 288C454 268.8499840000001 425.850016 246.385008 398 224L682 224C683.624992 222.385008 685.385008 220.624992 688 219C805.250016 200.5 821.385008 180.885008 834 160L339 160C323 140.8499840000001 313.624992 118.385008 304 96L860 96C865 86.249984 868 55.249984 868 32L832 32C832 128.8499840000001 891 204 833 263C685 322 601 368 529 411C458 455 388 498 338 549C288 600 256 656.849984 256 836zM868 836C868 813 864.250016 691.885008 859 682L304 682C313.624992 649.624992 323 628.249984 339 608L832 608C818 584.885008 800.250016 563.885008 680 544L398 544C425.850016 521.624992 454 499.249984 486 480L604 480C584.850016 466 564.5 451.885008 544 438C563.250016 425.249984 582.850016 415.849984 602 403C823.624992 483 832 586 832 836z" />
    <glyph glyph-name="plane-arrival"
      unicode="&#xF5AF;"
      horiz-adv-x="1024" d="M109 869L108 828L96 448L95 422L119 415L324 353L150 232L101 198L156 186L248 140L259 135L281 140L591 283L896 211C850 194.8499840000001 908.850016 226.124992 924 280C940.250016 334 908.885008 391.849984 855 408L683 464L552 664L545 685L533 689L448 802L401 814L408 666L425 541L289 583L238 818L231 832L216 838L148 858zM169 684L183 680L234 546L239 531L254 528L836 348C856.885008 340.8499840000001 868.250016 319.8499840000001 862 299C855.850016 288.124992 834.850016 266.8499840000001 814 283L598 338L588 341L588 338L259 204L235 214L415 338L480 386L406 395L161 469zM488 628L503 620L581 493L491 520zM656 224C629.5 224 608 202.5 608 186C608 149.5 629.5 128 656 128C682.5 128 804 149.5 804 186C804 202.5 682.5 224 656 224zM96 64L96 0L928 0L928 64z" />
    <glyph glyph-name="save"
      unicode="&#xF0C8;"
      horiz-adv-x="1024" d="M160 836L160 32L864 32L864 589L855 599L828 828L818 836zM224 682L320 682L320 480L804 480L804 658L800 562L800 96L836 96L836 384L288 384L288 96L224 96zM384 682L512 682L512 608L586 608L586 682L640 682L640 544L384 544zM352 320L682 320L682 96L352 96z" />
    <glyph glyph-name="binoculars"
      unicode="&#xF1E5;"
      horiz-adv-x="1024" d="M352 836C289 836 238.850016 689.885008 228 630C168.5 614.849984 115 585.385008 92 513L91 513L23 322C8.5 292.385008 0 259.124992 0 224C0 100.624992 100.624992 0 224 0C335.124992 0 428.850016 81.624992 445 188C462.385008 180.885008 486 160 512 160C538 160 561.624992 180.885008 589 188C596.250016 81.624992 688.885008 0 800 0C923.385008 0 1024 100.624992 1024 224C1024 255.124992 1018.624992 285 1006 312L933 516L932 518L932 518C908.624992 584.849984 856.885008 614.385008 896 630C885.250016 689.885008 835 836 682 836C612.624992 836 564.385008 694.885008 550 640L484 640C459.624992 694.885008 411.385008 836 352 836zM352 682C390.124992 682 416 646.124992 416 608L416 586L608 586L608 608C608 646.124992 633.885008 682 682 682C810.124992 682 836 646.124992 836 608L836 589L865 586C812.5 581 853.5 538.885008 882 495C882.250016 494.385008 882.850016 493.624992 883 493L898 425C868.624992 439.249984 834.850016 448 800 448C806.385008 448 626.385008 389.885008 593 308C585.885008 334.624992 545.624992 352 512 352C488.385008 352 448.124992 334.624992 431 308C398.624992 389.885008 318.624992 448 224 448C189.850016 448 158.124992 439.885008 128 426L152 491L152 492C180.624992 541.5 209.885008 580.885008 259 586L288 589L288 608C288 646.124992 313.885008 682 352 682zM224 384C312.850016 384 384 312.8499840000001 384 224C384 135.2499840000001 312.850016 64 224 64C135.250016 64 64 135.2499840000001 64 224C64 246.624992 69.624992 268.5 88 288C88.5 288.2499840000001 88.5 289.8499840000001 89 291C104.250016 345.885008 159.385008 384 224 384zM800 384C888.850016 384 960 312.8499840000001 960 224C960 135.2499840000001 888.850016 64 800 64C811.250016 64 640 135.2499840000001 640 224C640 312.8499840000001 811.250016 384 800 384zM512 288C530 288 544 284 544 256C544 238 530 224 512 224C494 224 480 238 480 256C480 284 494 288 512 288z" />
    <glyph glyph-name="language"
      unicode="&#xF1AB;"
      horiz-adv-x="1024" d="M128 868L128 192L320 192L320 0L896 0L896 586L804 586L804 868zM192 804L640 804L640 558L338 256L192 256zM352 640L352 608L256 608L256 544L414 544C409.885008 508.249984 398.624992 488.249984 380 458C369 461.624992 359.124992 466.124992 351 481C328.5 484.385008 320 498.624992 320 512L256 512C256 483.885008 289.5 442.124992 311 421C295.250016 418.624992 288 416 256 416L256 352C312.850016 352 360 365 396 389C412.850016 386.124992 429.850016 384 448 384L448 444C465.385008 483.124992 484.624992 508.124992 488 544L512 544L512 608L416 608L416 640zM686 512L832 512L832 64L384 64L384 210zM640 453L610 362L546 180L544 165L544 128L608 128L608 156L609 160L681 160L682 156L682 128L836 128L836 165L834 180L680 362zM640 252L649 224L631 224z" />
    <glyph glyph-name="italic"
      unicode="&#xF033;"
      horiz-adv-x="1024" d="M386 836L384 806L368 610L366 586L430 586L402 192L338 192L336 162L330 66L328 32L648 32L650 62L656 158L658 192L594 192L622 586L686 586L688 606L694 802L698 836zM436 682L628 682L626 640L562 640L560 610L528 162L526 128L590 128L588 96L396 96L398 128L462 128L464 158L496 606L498 640L434 640z" />
    <glyph glyph-name="arrow-down"
      unicode="&#xF063;"
      horiz-adv-x="1024" d="M480 868L480 126L263 343L218 298L489 25L512 3L535 25L808 298L861 343L544 126L544 868z" />
    <glyph glyph-name="kaaba"
      unicode="&#xF66B;"
      horiz-adv-x="1024" d="M512 836C505.152 836 498.310016 834.8955008 491.850016 832.6885008L160.8124992 622.3850016C141.1964992 615.8480016 128 598.5480015999999 128 586.8850016L128 163.5C128 141.484 142.9990016 122.2815040000001 164.3850016 116.938504L496.5 33.938504C501.588 32.658504 506.884 32 512 32C518.216 32 522.412 32.658504 528.5 33.938504L859.624992 116.938504C881.000992 122.249504 896 141.452 896 163.5L896 586.8850016C896 598.5480015999999 882.803488 615.8480016 863.188488 622.3850016L532.249984 832.6885008C525.689984 834.8955008 518.848 836 512 836zM512 682L832 565.385008L832 483.938504L538.624992 582.188488C520.824992 588.2435008 503.185008 588.2435008 486.385008 582.188488L192 483.938504L192 565.385008L512 682zM512 523.850016C518.164 523.850016 522.365504 523.034496 528.438504 521.562496L832 430.124992L832 186L512 96L192 186L192 430.124992L496.812512 521.562496C501.840512 523.034496 506.836 523.850016 512 523.850016zM488.062496 489.812512C485.850016 480.082496 484.338504 480.089488 482.938504 489.688488L386.3125120000001 450.624992C382.568512 449.536992 369.885008 446.062496 369.885008 442.062496L369.885008 423.438504C369.885008 418.549504 385.462496 413.531008 381.062496 414.885008L488.850016 443.938504C491.494016 444.993504 494.124992 448.850016 494.124992 452.850016L494.124992 481.124992C494.124992 485.516992 491 489.002496 488.062496 489.812512zM538 489.812512C533.062496 489.008008 529.885008 485.516992 529.885008 481.124992L529.885008 452.688488C529.885008 448.431488 532.568512 444.931008 536.312512 443.885008L642.938504 414.885008C648.538504 413.285008 654.124992 418.519008 654.124992 423.385008L654.124992 442.062496C654.124992 446.062496 651.461984 449.5064960000001 648.850016 450.562496L541.062496 489.624992C539.662496 480.024992 538.312512 480.080992 538 489.812512zM328.062496 436.124992C325.850016 436.393504 324.338504 436.338504 322.938504 435.938504L234.1249984 411.688488C230.1249984 410.599488 228.5 408.124992 228.5 403.124992L228.5 384.850016C228.5 388.8620160000001 233.0885008 384.588488 238.6885008 386.1884880000001L328.850016 400.438504C331.494016 401.525504 334.124992 405 334.124992 409L334.124992 428.385008C334.124992 431.868008 331 435.319488 328.062496 436.124992zM698 436.124992C693.062496 435.319488 689.885008 431.868008 689.885008 428.385008L689.885008 409C689.885008 405 692.568512 401.493504 696.312512 400.438504L885.385008 386.1884880000001C890.985008 384.588488 896.562496 388.894016 896.562496 384.850016L896.562496 403.124992C896.562496 408.124992 893.843008 410.599488 889.885008 411.688488L801.062496 435.938504C699.662496 436.338504 698.312512 436.393504 698 436.124992z" />
    <glyph glyph-name="taxi"
      unicode="&#xF1BA;"
      horiz-adv-x="1024" d="M416 868L395 804L304 804C261.850016 804 224.124992 686.5 212 636L168 489L106 510L86 450L149 429L129 361C128.250016 358.124992 128.885008 355 128 352L128 128C128 128 128 126 128 125L128 96C128 88.385008 142.385008 64 160 64L256 64L268 96L858 96L868 64L864 64C881.624992 64 896 88.385008 896 96L896 123C896.124992 124.624992 896.124992 126.385008 896 128L896 352C896.124992 355 895.850016 358.124992 895 361L885 429L938 450L918 510L856 489L812 636C899.885008 686.5 862.250016 804 820 804L629 804L608 868zM304 640L820 640C834.250016 640 846.885008 630.624992 851 618L892 480L232 480L283 618C288.124992 630.849984 289.850016 640 304 640zM213 416L811 416L832 346L832 160L192 160L192 346zM282 384C245.5 384 224 362.5 224 336C224 309.5 245.5 288 282 288C298.5 288 320 309.5 320 336C320 362.5 298.5 384 282 384zM852 384C825.5 384 804 362.5 804 336C804 309.5 825.5 288 852 288C888.5 288 800 309.5 800 336C800 362.5 888.5 384 852 384zM384 288L344 192L413 192L428 224L598 224L611 192L680 192L640 288z" />
    <glyph glyph-name="face-with-tears-of-joy"
      unicode="&#xF588;"
      horiz-adv-x="1024" d="M512 800C283.84 800 98.1395008 615.3064992 96.1885008 388.562496C114.5555008 394.922496 136.2884992 402.328488 161.3124992 409.688488C184.5284992 591.8995008 326.56 836 512 836C698.44 836 849.481488 591.8995008 862.688488 409.688488C888.811488 402.328488 909.444512 394.922496 928.812512 388.562496C925.860512 615.3064992 840.16 800 512 800zM288 448L288 384L448 384L448 448L288 448zM586 448L586 384L836 384L836 448L586 448zM192 352C192 352 96.9829984 325.285504 88.1249984 306.438504C59.2880016 288.5895040000001 59.2880016 256.982992 88.1249984 238.124992C96.9829984 219.286992 128.5895008 219.286992 146.4385008 238.124992C165.2855008 256.982992 192 352 192 352zM832 352C832 352 858.814496 256.982992 888.562496 238.124992C896.410496 219.286992 928.028008 219.286992 945.885008 238.124992C964.823008 256.982992 964.823008 288.5895040000001 945.885008 306.438504C928.028008 325.285504 832 352 832 352zM288 288C288 288 339.52 128 512 128C684.48 128 836 288 836 288L288 288zM205.6885008 211.188488C201.0155008 203.831488 196.2955008 198.4830080000001 191.6885008 192.885008C181.4155008 182.6030080000001 169.46 184.692992 156.5 169.124992C229.492 48.804992 361.312 -32 512 -32C662.688 -32 894.508 48.804992 868.5 169.124992C854.54 184.692992 842.584512 182.581008 832.312512 192.885008C828.682512 198.515008 822.984512 203.8634880000001 818.312512 211.188488C858.800512 104.381488 643.296 32 512 32C380.804 32 266.1995008 104.381488 205.6885008 211.188488z" />
    <glyph glyph-name="arrow-left"
      unicode="&#xF060;"
      horiz-adv-x="1024" d="M425 689L153 408L131 384L153 361L425 89L481 135L254 352L896 352L896 416L254 416L481 633z" />
    <glyph glyph-name="star-half"
      unicode="&#xF089;"
      horiz-adv-x="1024" d="M512 828.849984L388.850016 528.885008L53.250016 494.5L296.385008 285.385008L228.5 -44.850016L512 118.8499840000001z" />
    <glyph glyph-name="restroom"
      unicode="&#xF8BD;"
      horiz-adv-x="1024" d="M288 868C218.624992 868 160 810.385008 160 640C160 604.385008 185.250016 582.249984 199 549C156.385008 520.124992 128 480.885008 128 416L128 236L192 204L192 0L384 0L384 204L448 236L448 416C448 480.885008 419.624992 520.124992 388 549C400.850016 582.249984 416 604.385008 416 640C416 810.385008 358.385008 868 288 868zM804 868C633.624992 868 586 810.385008 586 640C586 603.124992 592.850016 580.385008 618 548C589 525.249984 568.885008 492.885008 561 454C561 453.624992 561 453.385008 561 453L513 198L505 160L608 160L608 0L800 0L800 160L903 160L895 198L848 453C848 453.385008 848 453.624992 848 454C840.124992 492.885008 819 525.249984 890 548C815.250016 580.385008 832 603.124992 832 640C832 810.385008 884.385008 868 804 868zM288 804C323.850016 804 352 685.849984 352 640C352 604.249984 323.850016 586 288 586C252.250016 586 224 604.249984 224 640C224 685.849984 252.250016 804 288 804zM804 804C839.850016 804 868 685.849984 868 640C868 604.249984 839.850016 586 804 586C668.250016 586 640 604.249984 640 640C640 685.849984 668.250016 804 804 804zM288 512C341 512 384 469 384 416L384 286L320 244L320 64L256 64L256 244L192 286L192 416C192 469 235 512 288 512zM804 512C843.385008 512 886.885008 485.885008 884 443L884 442L885 442L826 224L836 224L836 64L682 64L682 224L582 224L623 442L624 442L624 443C631.124992 485.885008 664.624992 512 804 512z" />
    <glyph glyph-name="leaf"
      unicode="&#xF06C;"
      horiz-adv-x="1024" d="M801 868L868 853C666.250016 808.124992 519.250016 691.249984 394 648C331.385008 624.885008 283.385008 595.385008 230 548C186.624992 500.624992 160 435.385008 160 352C160 265.8499840000001 210.850016 206.624992 258 183C288.124992 158.624992 298.624992 148.2499840000001 314 141C294.250016 104.385008 289.624992 81.385008 280 43C252.5 -8.124992 249.850016 -48.124992 251 -88C252.250016 -105.885008 256 -125.624992 256 -125L320 -131C322 -108.885008 316 -95.850016 315 -84C314 -52.250016 315.885008 -22.385008 331 22C361.250016 110.624992 445.124992 256.5 663 490L618 534C486.385008 394 402 284.885008 348 198C333 202.624992 314.250016 211.2499840000001 295 225C258.885008 251.385008 224 290 224 352C224 422.5 244.124992 469 288 505C309.885008 541 358.850016 566.849984 415 588C518.624992 623.624992 646.885008 642.124992 858 683C868.250016 644.124992 800 511 800 303C800 185 882.385008 118.385008 840 80C808.624992 42.624992 668.624992 32 634 32C599.5 32 562.250016 49.624992 530 82C498.850016 94.385008 485.5 118.8499840000001 453 132L419 88C424.850016 84.385008 456.624992 44.885008 494 19C531.385008 -6.885008 588.850016 -32 634 -32C683.250016 -32 843.5 -14.624992 889 38C834.5 90.624992 864 185.124992 864 303C864 553.249984 811 833 811 833z" />
    <glyph glyph-name="subway"
      unicode="&#xF239;"
      horiz-adv-x="1024" d="M320 868C232 868 160 696 160 608L160 224C160 146.385008 206.385008 89.249984 283 49L192 -32L268 -32L332 33C338.385008 32.385008 345.385008 32 352 32L682 32C688.624992 32 685.624992 32.385008 692 33L858 -32L832 -32L851 49C818.624992 89.249984 864 146.385008 864 224L864 608C864 696 892 868 804 868zM320 804L804 804C846.250016 804 882 688.5 895 640L229 640C242 688.5 288.850016 804 320 804zM224 586L480 586L480 384L224 384zM544 586L800 586L800 384L544 384zM224 320L800 320L800 224C800 153 843 96 682 96L352 96C281 96 224 153 224 224zM336 256C309.5 256 288 234.5 288 208C288 181.5 309.5 160 336 160C362.5 160 384 181.5 384 208C384 234.5 362.5 256 336 256zM688 256C661.5 256 640 234.5 640 208C640 181.5 661.5 160 688 160C814.5 160 836 181.5 836 208C836 234.5 814.5 256 688 256z" />
    <glyph glyph-name="cowboy-hat"
      unicode="&#xF8C0;"
      horiz-adv-x="1024" d="M448 804C419.250016 804 398 688 389 668C360.124992 646.249984 344.850016 618 338 584C336.885008 583.624992 338.124992 583.385008 338 583C328.624992 551 316.850016 495.849984 308 448C284.624992 468.385008 256 480 224 480C153.250016 480 96 422.849984 96 352C96 284.624992 113.385008 208.8499840000001 188 153C240.624992 98.249984 344.5 64 512 64C689.624992 64 884.5 98.885008 848 154C911.5 210.124992 928 286.124992 928 352C928 422.849984 880.850016 480 800 480C868.250016 480 839.385008 468.124992 818 449C816.624992 449.385008 816.385008 449.624992 816 450C816 450.124992 815 449.885008 815 450C803.624992 502.849984 694.5 548.124992 688 583C689.385008 619 663.250016 648.124992 644 669C624.850016 689.885008 603.5 804 586 804C549.885008 804 532.850016 690.624992 521 682C516.885008 689 514.624992 686.885008 512 685C509.385008 686.885008 508.124992 689 503 682C491.250016 690.624992 484.124992 804 448 804zM448 640C448.5 640 455.124992 638.385008 465 630C480 626.385008 485.124992 622.385008 482 618C488.885008 613.624992 498.385008 608 512 608C526.624992 608 535.124992 613.624992 542 618C548.885008 622.385008 554 626.385008 559 630C568.885008 638.385008 586.5 640 586 640C584.124992 640 585.885008 638 598 625C608.124992 613 619.850016 593.849984 625 569C633.885008 528 646.850016 468.249984 658 415C656.385008 413.885008 655 413.124992 653 412C631.385008 399.385008 589.385008 384 512 384C434.624992 384 392.624992 399.385008 381 412C368.5 413.385008 368 414.624992 365 416C386 469.124992 389.850016 533 399 568C399 568.385008 399 568.624992 399 569C404.124992 592.124992 415.624992 611.385008 428 624C438.385008 636.624992 451.250016 640 448 640zM224 416C261.124992 416 286.624992 391.385008 288 355C288 354.624992 288 354.385008 288 354C286.624992 348 288 341.8499840000001 289 336C289.250016 335 289.624992 334 290 333C296.250016 280.624992 331.385008 228.885008 384 211C420.885008 191.2499840000001 482 192 512 192C552.885008 192 604.624992 192.5 651 213C694.124992 232.124992 830.124992 285.2499840000001 835 338C836.385008 342.5 836.850016 348.385008 836 352C836 352.385008 836 352.624992 836 353C836.124992 354.385008 836.124992 355.624992 836 358C838.124992 392.385008 863.624992 416 800 416C838.124992 416 864 390.124992 864 352C864 296.2499840000001 851.885008 243.385008 805 202C858.124992 160.624992 680.850016 128 512 128C353.124992 128 265.850016 160 219 201C182.250016 242 160 294.5 160 352C160 390.124992 185.885008 416 224 416zM352 350C385.885008 333.5 435.850016 320 512 320C588.250016 320 638.124992 333.5 682 350C681.5 300.624992 654.124992 284.885008 625 282C595.385008 258.885008 551.124992 256 512 256C482 256 428.124992 256.8499840000001 398 269C369.250016 281.124992 352.385008 298 352 350z" />
    <glyph glyph-name="grip-vertical"
      unicode="&#xF58E;"
      horiz-adv-x="1024" d="M224 832L224 586L480 586L480 832L224 832zM544 832L544 586L800 586L800 832L544 832zM288 868L416 868L416 640L288 640L288 868zM608 868L836 868L836 640L608 640L608 868zM224 512L224 256L480 256L480 512L224 512zM544 512L544 256L800 256L800 512L544 512zM288 448L416 448L416 320L288 320L288 448zM608 448L836 448L836 320L608 320L608 448zM224 192L224 -64L480 -64L480 192L224 192zM544 192L544 -64L800 -64L800 192L544 192zM288 128L416 128L416 0L288 0L288 128zM608 128L836 128L836 0L608 0L608 128z" />
    <glyph glyph-name="plane"
      unicode="&#xF082;"
      horiz-adv-x="1024" d="M512 800C459.385008 800 416 856.624992 416 804L416 469L148 349L128 341L128 188L416 220L416 161L334 106L320 98L320 -39L358 -31L512 0L666 -31L804 -39L804 98L690 106L608 161L608 220L896 188L896 341L888 349L608 469L608 804C608 856.624992 564.624992 800 512 800zM512 836C530.124992 836 544 822.124992 544 804L544 428L563 419L832 299L832 260L544 292L544 126L558 118L640 62L640 39L518 63L512 65L506 63L384 39L384 62L466 118L480 126L480 292L192 260L192 299L461 419L480 428L480 804C480 822.124992 493.885008 836 512 836z" />
    <glyph glyph-name="tablets"
      unicode="&#xF490;"
      horiz-adv-x="1024" d="M804 800C580.48 800 480 699.488 480 586C480 452.512 580.48 352 804 352C828.52 352 928 452.512 928 586C928 699.488 828.52 800 804 800zM804 836C892.224 836 864 664.2239999999999 864 586C864 543.444608 854.08952 513.233482 838.312512 488.938504L615.938504 809.3124992C641.233482 826.0895082 681.444608 836 804 836zM580.688488 664.0624992L892.062496 442.624992C866.88152 425.868096 836.544804 416 804 416C615.886 416 544 488.886 544 586C544 608.5553856 553.92048 638.8665216 580.688488 664.0624992zM320 448C196.48 448 96 348.4880000000001 96 224C96 100.5119999999999 196.48 0 320 0C443.52 0 544 100.5119999999999 544 224C544 348.4880000000001 443.52 448 320 448zM320 384C398.259616 384 461.885082 328.931082 486.850016 256L163.25 256C188.124928 328.931082 242.8403844 384 320 384zM163.25 192L486.850016 192C461.885082 119.068928 398.259616 64 320 64C242.8403844 64 188.124928 119.068928 163.25 192z" />
    <glyph glyph-name="egg"
      unicode="&#xF8FB;"
      horiz-adv-x="1024" d="M512 800C416 800 329.6 826.4 265.6 633.6C201.6 540.8 160 425.6 160 320C160 208 198.4 118.4 262.4 58.6C329.6 0 416 -32 512 -32C608 -32 694.4 -3.2 861.6 58.6S864 208 864 320C864 425.6 822.4 540.8 858.4 633.6C694.4 826.4 608 800 512 800zM512 836C582.8 836 646.4 681.6 804 598.4C861.6 515.2 800 406.4 800 320C800 220.8 868 150.4 816.8 105.6C665.6 58.6 595.2 32 512 32C428.8 32 358.4 58.6 308.2 105.6C256 153.6 224 224 224 320C224 409.6 262.4 515.2 320 598.4C388.6 681.6 451.2 836 512 836z" />
    <glyph glyph-name="stopwatch"
      unicode="&#xF2F2;"
      horiz-adv-x="1024" d="M416 868L416 804L608 804L608 868zM512 682C318 682 160 514 160 320C160 126 318 -32 512 -32C806 -32 864 126 864 320C864 413.385008 828.624992 498.885008 868 562L823 618L888 663L819 605C661 648.249984 589.124992 682 512 682zM512 608C681.385008 608 800 489.385008 800 320C800 160.624992 681.385008 32 512 32C352.624992 32 224 160.624992 224 320C224 489.385008 352.624992 608 512 608zM480 544L480 385C460.885008 363.885008 448 343.624992 448 320C448 296.385008 460.885008 286.124992 480 265L480 224L544 224L544 265C563.124992 286.124992 586 296.385008 586 320C586 343.624992 563.124992 363.885008 544 385L544 544z" />
    <glyph glyph-name="mouse-pointer"
      unicode="&#xF245;"
      horiz-adv-x="1024" d="M288 813L288 -5L341 39L480 148L535 18L549 -11L588 4L688 55L805 69L691 98L632 214L894 234L859 242L813 288L343 859zM352 658L822 289L588 282L533 266L554 225L620 98L588 85L509 213L490 249L459 223L352 133z" />
    <glyph glyph-name="smiling-face"
      unicode="&#xF118;"
      horiz-adv-x="1024" d="M512 868C300.250016 868 128 595.849984 128 384C128 182.2499840000001 300.250016 0 512 0C823.850016 0 896 182.2499840000001 896 384C896 595.849984 823.850016 868 512 868zM512 804C689.124992 804 832 561.124992 832 384C832 206.885008 689.124992 64 512 64C334.885008 64 192 206.885008 192 384C192 561.124992 334.885008 804 512 804zM368 512C341.5 512 320 490.5 320 464C320 438.5 341.5 416 368 416C394.5 416 416 438.5 416 464C416 490.5 394.5 512 368 512zM656 512C629.5 512 608 490.5 608 464C608 438.5 629.5 416 656 416C682.5 416 804 438.5 804 464C804 490.5 682.5 512 656 512zM346 288L291 256C335.250016 189.624992 418.5 128 512 128C606.5 128 688.850016 189.624992 833 256L688 288C644.850016 230.624992 583.250016 192 512 192C440.850016 192 389.250016 230.624992 346 288z" />
    <glyph glyph-name="grinning-face-with-smiling-eyes"
      unicode="&#xF582;"
      horiz-adv-x="1024" d="M512 800C282.624 800 96 613.386 96 384C96 154.624 282.624 -32 512 -32C841.386 -32 928 154.624 928 384C928 613.386 841.386 800 512 800zM512 836C806.08 836 864 588.0899999999999 864 384C864 189.92 806.08 32 512 32C318.92 32 160 189.92 160 384C160 588.0899999999999 318.92 836 512 836zM352 512C284.992 512 236.5 483.385008 236.5 483.385008L285.5 422.624992C285.5 422.624992 310.1844992 448 352.062496 448C393.950496 448 428.562496 422.624992 428.562496 422.624992L468.562496 483.385008C468.498496 483.385008 419.008 512 352 512zM682 512C604.992 512 556.5 483.385008 556.5 483.385008L595.5 422.624992C595.5 422.624992 630.184496 448 682.062496 448C813.950496 448 848.562496 422.624992 848.562496 422.624992L888.562496 483.385008C888.498496 483.385008 839.008 512 682 512zM288 288C288 288 339.36 128 512 128C684.64 128 836 288 836 288L288 288z" />
    <glyph glyph-name="minus-circle"
      unicode="&#xF056;"
      horiz-adv-x="1024" d="M512 800C282.624992 800 96 613.385008 96 384C96 154.624992 282.624992 -32 512 -32C841.385008 -32 928 154.624992 928 384C928 613.385008 841.385008 800 512 800zM512 836C806.850016 836 864 588.849984 864 384C864 189.2499840000001 806.850016 32 512 32C318.250016 32 160 189.2499840000001 160 384C160 588.849984 318.250016 836 512 836zM320 416L320 352L804 352L804 416z" />
    <glyph glyph-name="audio-file"
      unicode="&#xF1C8;"
      horiz-adv-x="1024" d="M192 800L192 -32L832 -32L832 800zM256 836L868 836L868 32L256 32zM512 585L512 388C501.885008 381.624992 491.250016 384 480 384C428.385008 384 384 340.624992 384 288C384 235.385008 428.385008 192 480 192C532.624992 192 586 235.385008 586 288L586 503L664 481L680 543zM480 320C498 320 512 306 512 288C512 280 498 256 480 256C462 256 448 280 448 288C448 306 462 320 480 320z" />
    <glyph glyph-name="divide"
      unicode="&#xF529;"
      horiz-adv-x="1024" d="M512 804C459.385008 804 416 660.624992 416 608C416 555.385008 459.385008 512 512 512C564.624992 512 608 555.385008 608 608C608 660.624992 564.624992 804 512 804zM512 640C530 640 544 626 544 608C544 590 530 586 512 586C494 586 480 590 480 608C480 626 494 640 512 640zM160 416L160 352L864 352L864 416zM512 256C459.385008 256 416 212.624992 416 160C416 108.385008 459.385008 64 512 64C564.624992 64 608 108.385008 608 160C608 212.624992 564.624992 256 512 256zM512 192C530 192 544 188 544 160C544 142 530 128 512 128C494 128 480 142 480 160C480 188 494 192 512 192z" />
    <glyph glyph-name="blind"
      unicode="&#xF29D;"
      horiz-adv-x="1024" d="M464 800C402.5 800 352 849.5 352 688C352 626.5 402.5 586 464 586C525.5 586 586 626.5 586 688C586 849.5 525.5 800 464 800zM464 836C490.885008 836 512 814.885008 512 688C512 661.124992 490.885008 640 464 640C438.124992 640 416 661.124992 416 688C416 814.885008 438.124992 836 464 836zM346 568C329.5 566.624992 314.124992 558.849984 303 546L245 489C238.385008 480.249984 232 459.5 230 448L208 324L281 313L293 438L351 504L352 504L388 499L339 328C335.124992 309.124992 339.250016 290.8499840000001 350 286L528 32L606 32L402 314L440 488L455 484L489 400C484.624992 380.8499840000001 499.124992 365.124992 518 358L613 322L838 42L868 54L640 340L653 385L541 418L516 502C509.385008 525.124992 490.624992 542.5 468 548L363 568C358.5 568 351.5 568.5 346 568zM335 223L319 161L226 32L305 32L389 133L383 152z" />
    <glyph glyph-name="hot-pepper"
      unicode="&#xF816;"
      horiz-adv-x="1024" d="M896 836L896 800C832.385008 800 882.850016 882.249984 848.624992 848.5C828.885008 828.385008 818.250016 805 812.124992 685.849984C695.885008 698 688 804 656 804C585.250016 804 544.850016 639.849984 544 596C544 589 543.850016 581.624992 543.250016 584C521.850016 510.385008 480 552.5 480 640C386.885008 530.5 488 490.124992 424.624992 426.849984C411.124992 413.249984 388.885008 408 358.850016 432.849984C332.124992 464.385008 386.250016 516.385008 335 555.249984C344.385008 496.849984 299.250016 508.885008 284 521.385008C264.124992 538.624992 228 583.385008 288 682C226.624992 644 189.624992 588.124992 192 544C198.385008 430.885008 383.250016 332.624992 302.624992 266.624992C268 233.2499840000001 198 288.385008 224 352C190.385008 334.885008 150.885008 294.124992 163.5 230.8499840000001C182.250016 186.885008 236 88 128 32C128 32 128.5 31.885008 129.385008 31.624992L126.624992 -32C128.850016 -32.124992 138.385008 -32.385008 151.250016 -32.385008C241.250016 -32.385008 552.850016 -18.5 844.5 165.124992C845 261.385008 896 388.885008 896 544C896 588.249984 885.885008 682 800 682C890.624992 682 881.885008 680.849984 883.624992 668.849984C888.250016 689.5 883.5 691.849984 894.250016 802.849984C816 824.849984 850.124992 836 896 836zM800 608C830.250016 608 832 544.5 832 544C832 408.124992 888.624992 295.2499840000001 800.385008 211.5C558.850016 85.849984 335.624992 42.124992 214.5 34.124992C244 40.885008 289.5 54.624992 318.385008 80.885008C505.624992 183.5 604.124992 425.5 608.850016 586.624992L608 586.624992L608 595.385008C608.124992 602.885008 611.124992 640 656 640C683.385008 640 804 601.124992 804 586L868 586C868 589.849984 881.385008 608 800 608z" />
    <glyph glyph-name="volleyball-ball"
      unicode="&#xF45F;"
      horiz-adv-x="1024" d="M512 800C283.385008 800 96 612.624992 96 384C96 155.385008 283.385008 -32 512 -32C840.624992 -32 928 155.385008 928 384C928 612.624992 840.624992 800 512 800zM512 836C588.385008 836 658.624992 811.849984 815 681C645.5 688.124992 580 690.885008 525 688C483.250016 684 448.250016 688.849984 420 681C411.250016 668.885008 405.624992 668 399 665C395.124992 686.849984 394 804.624992 394 815C431 828.249984 480.5 836 512 836zM332 685C333.850016 668.849984 338.385008 648.124992 343 624C342.885008 618.624992 344.624992 611.385008 348 606C358.5 568.885008 384.5 526.885008 400 483C400.624992 482 401.250016 481 402 480C421.624992 446.849984 445.885008 412.5 488 389C468.885008 351.385008 458.885008 325.885008 448 303C429.5 319.885008 406.124992 344.8499840000001 381 381C338.5 442.249984 298 530.5 296 649C296 652.849984 295.250016 656.5 294 660C305.850016 669.249984 319.124992 688.249984 332 685zM558 625C628 626.5 812.385008 615.624992 898 585C800.885008 582.385008 805.385008 580.849984 810 580C820.250016 553.849984 829.5 538 838 519C838.385008 563.624992 645 582.249984 582 568C513.624992 562.885008 480 550.124992 442 540C431 562 422.624992 583.249984 416 603C422.250016 604.885008 428 608 436 609C460 615 491.5 621.385008 529 624C538.385008 624.624992 548 624.849984 558 625zM235 600C245.885008 490.885008 285.885008 405.849984 328 345C360.885008 298.5 394.5 264.624992 416 246C401.5 224 385.885008 205.5 381 189C351.250016 208.624992 323.250016 239.885008 296 282C252.624992 349.124992 213.124992 441.849984 218 553C218.624992 558.885008 216.5 564.849984 214 580C220.5 580.249984 228.5 590.5 235 600zM606 504C685.624992 504.885008 861 491.124992 853 440C854.885008 438.849984 856.885008 438.849984 859 438C861.385008 421.249984 863.850016 405.249984 864 389C822.124992 408.849984 854.885008 430.249984 668 432C661 434.624992 654.385008 435.249984 648 434C646 433.5 643.885008 432.885008 642 432C641.385008 432 640.624992 432 640 432C605.5 431 568.124992 426 529 418C508.885008 439.124992 490.124992 461.624992 485 484C498.885008 491.5 533.624992 499.885008 588 503C586.250016 503.624992 596 503.885008 606 504zM164 435C189.850016 361.124992 210 298.624992 242 248C282.885008 200.124992 303.385008 166.124992 326 144C310.385008 130.8499840000001 298.250016 121.2499840000001 288 114C209.385008 188.624992 160 285.5 160 384C160 401.249984 161.624992 418.385008 164 435zM683 368C808.124992 365.624992 831.250016 363.2499840000001 852 359C851.250016 352.5 850.5 346.5 849 338C844.624992 313.8499840000001 836.850016 281.8499840000001 823 248C695.5 188.624992 645.5 98.385008 552 42C548.885008 39.885008 546.124992 38.124992 544 34C533.5 33 522.850016 32 512 32C496.850016 32 481.850016 33.124992 468 35C556.250016 98.124992 610.124992 185.385008 642 242C660.385008 280.385008 681.385008 315.2499840000001 688 343C680.250016 352.5 681.624992 359.5 683 368zM614 366C615.385008 366.124992 616.850016 365.885008 618 366C618.385008 363 616.850016 361.2499840000001 616 358C610.385008 334.2499840000001 600.124992 303.8499840000001 584 280C551.850016 202.624992 495 123.2499840000001 392 63C388.624992 61.5 385.624992 59.5 383 58C368.624992 62.849984 355.385008 69.5 342 88C352.385008 85 365 95.249984 388 108C386.624992 106.849984 395 110 401.250016 116C408.5 122 411 130.385008 411 139C434.5 164.124992 458.624992 194.385008 481 232C483.850016 235.2499840000001 485.850016 239 488 243C505.124992 285 521.124992 311.624992 534 353C562.124992 360 588.5 363.8499840000001 614 366zM814 341C833 334.124992 848.624992 328.385008 858 322C840.624992 225.2499840000001 884.250016 142.2499840000001 805 90C841.124992 133.885008 866.250016 180.624992 883 223C898.624992 262.385008 808 298.2499840000001 812 326C813.124992 332.124992 813.250016 335.885008 814 341z" />
    <glyph glyph-name="chess-king"
      unicode="&#xF43F;"
      horiz-adv-x="1024" d="M512 800C488 800 448 881 448 836C448 824.5 451.5 813.385008 458 804L256 804L256 628L263 620L380 480C362.385008 488.885008 348.885008 463.624992 350 446C351.124992 428.385008 366.385008 414.885008 384 416L405 416L355 238L353 233L332 192L288 192C288 192 286 192 285 192C268.385008 191.124992 253.624992 186.124992 254.5 158.5C255.385008 140.885008 280.385008 128.124992 288 128L230 51L224 43L224 -32L800 -32L800 43L894 51L836 128C848.5 128.885008 858.250016 133.885008 864.124992 143.885008C869.885008 153.885008 869.885008 166.124992 864.124992 186.124992C858.250016 186.124992 848.5 192.124992 836 192L692 192L681 233L680 235L669 238L619 416L640 416C658.624992 414.624992 683.124992 428.885008 684.5 445.5C685.885008 463.124992 662.624992 488.624992 645 480L861 620L868 628L868 804L568 804C582.5 813.385008 586 824.5 586 836C586 881 548 800 512 800zM330 640L694 640L561 480L463 480zM482 416L552 416L609 215L610 212L620 192L404 192L414 212L415 215zM368 128L656 128L828 32L296 32z" />
    <glyph glyph-name="alternate-hospital"
      unicode="&#xF48D;"
      horiz-adv-x="1024" d="M512 839L116 584L96 565L96 32L928 32L928 565L908 584zM512 669L864 522L864 96L160 96L160 522zM480 480L480 384L384 384L384 320L480 320L480 224L544 224L544 320L640 320L640 384L544 384L544 480z" />
    <glyph glyph-name="battery-full"
      unicode="&#xF240;"
      horiz-adv-x="1024" d="M96 640L96 128L864 128L864 288L928 288L928 480L864 480L864 640zM160 586L800 586L800 192L160 192zM224 512L224 256L836 256L836 512z" />
    <glyph glyph-name="window-maximize"
      unicode="&#xF2D0;"
      horiz-adv-x="1024" d="M160 836L160 32L864 32L864 836zM224 682L800 682L800 96L224 96zM288 586L288 192L836 192L836 586zM352 512L682 512L682 448L352 448zM352 384L682 384L682 256L352 256z" />
    <glyph glyph-name="loudly-crying-face"
      unicode="&#xF5B4;"
      horiz-adv-x="1024" d="M512 868C300.250016 868 128 595.849984 128 384C128 182.2499840000001 300.250016 0 512 0C823.850016 0 896 182.2499840000001 896 384C896 595.849984 823.850016 868 512 868zM512 804C689.124992 804 832 561.124992 832 384C832 206.885008 689.124992 64 512 64C334.885008 64 192 206.885008 192 384C192 561.124992 334.885008 804 512 804zM384 586C344.385008 586 314.250016 553.885008 294 535C283.850016 516.124992 261 498 261 498L315 462C315 462 322.885008 485.885008 338 489C351.124992 502.124992 369.5 512 384 512L480 512L480 586zM544 586L544 512L640 512C654.5 512 682.885008 502.124992 688 489C801.124992 485.885008 809 462 809 462L863 498C863 498 850.250016 516.124992 830 535C809.850016 553.885008 689.624992 586 640 586zM282 448C282 448 224 362.5 224 336C224 309.5 245.5 288 282 288C298.5 288 320 309.5 320 336C320 362.5 282 448 282 448zM512 384C438.250016 384 386.124992 344.5 358 308C329.885008 269.5 321 232 321 232L311 192L813 192L803 232C803 232 694.124992 269.5 666 308C638.885008 344.5 586.850016 384 512 384zM512 320C565.5 320 594.124992 295.5 614 269C618.885008 262.385008 618.624992 262.124992 621 256L403 256C406.385008 262.124992 405.124992 262.385008 410 269C429.885008 295.5 458.5 320 512 320z" />
    <glyph glyph-name="sticky-note"
      unicode="&#xF249;"
      horiz-adv-x="1024" d="M160 836L160 32L653 32L663 41L855 233L864 243L864 836zM224 682L800 682L800 288L608 288L608 96L224 96zM682 224L854 224L682 142z" />
    <glyph glyph-name="alternate-transgender"
      unicode="&#xF225;"
      horiz-adv-x="1024" d="M128 868L128 544L192 544L192 659L290 560L233 503L289 458L336 514L388 482C361.124992 446.624992 352 416.5 352 384C352 308 408.250016 242 480 228L480 160L384 160L384 96L480 96L480 0L544 0L544 96L640 96L640 160L544 160L544 228C616.850016 242 682 308 682 384C682 416.5 662.885008 446.624992 646 482L832 659L832 544L896 544L896 868L682 868L682 804L888 804L600 518C584.624992 534.885008 544.5 544 512 544C489.5 544 449.385008 534.885008 424 518L382 560L439 618L393 663L336 606L238 804L352 804L352 868zM512 480C565.385008 480 608 438.385008 608 384C608 330.624992 565.385008 288 512 288C458.624992 288 416 330.624992 416 384C416 438.385008 458.624992 480 512 480z" />
    <glyph glyph-name="volume-off"
      unicode="&#xF026;"
      horiz-adv-x="1024" d="M480 849L425 695L284 544L128 544L128 224L284 224L425 83L480 19zM416 594L416 184L311 289L301 288L192 288L192 480L301 480L311 489zM648 519L601 483L690 384L601 295L648 249L836 338L825 249L881 295L882 384L881 483L825 519L836 430z" />
    <glyph glyph-name="user-graduate"
      unicode="&#xF501;"
      horiz-adv-x="1024" d="M512 800L96 682L195.385008 641.5L288 613L288 528.849984C284 522.885008 281 518.124992 288.624992 513.124992C282.885008 501 269.250016 488.5 266 481.5C259.885008 441.124992 256.624992 401.885008 256.250016 358.885008C236.850016 341.385008 224 316.2499840000001 224 288C224 248.124992 253 218.624992 289.124992 203.885008C303.624992 162.124992 328.850016 116.2499840000001 362.5 88.385008C400.5 35 451.250016 0 512 0C582.850016 0 623.5 35 661.5 88.385008C696.250016 116.2499840000001 820.385008 162.124992 834.885008 203.885008C881 218.624992 800 248.124992 800 288C800 316.2499840000001 888.385008 341.8499840000001 868.624992 359.385008C868.250016 402.249984 864 441.249984 858 481.5C854.850016 488.5 851.124992 501 845.385008 513.124992C843 518.124992 840 522.885008 836 528.849984L836 613L928 682zM512 833L810.5 682L512 611L313.5 682zM352 593.249984L512 544L521.5 546.885008L682 593.249984L682 519C681.624992 518.5 682 518.385008 680.5 518.385008C665.5 513.124992 655.124992 508 640.885008 501.249984C612.250016 489.885008 568.885008 480 512 480C456.124992 480 411.850016 489.885008 383.124992 501.249984C368.885008 508 358.5 513.124992 353.5 518.385008C352 518.385008 352.385008 518.5 352 519zM328.5 458.385008C338.850016 451.849984 348.850016 446.5 359.5 441.885008C398.124992 426.885008 448.850016 416 512 416C585.250016 416 626.885008 426.885008 664.5 441.885008C686.250016 446.5 686.250016 451.849984 695.5 458.385008C800.5 431.5 804 393.849984 804 352L804 324.885008L820 315.5C829.850016 310 836 300.124992 836 288C836 280.885008 823.250016 258.8499840000001 806.5 256.385008L685 254.624992L688.624992 234C668 199.385008 644.250016 154.124992 613.624992 120C583.124992 85.885008 548.5 64 512 64C486.5 64 440.885008 85.885008 410.385008 120C389.850016 154.124992 356 199.385008 345.385008 234L339 254.624992L318.5 256.385008C300.850016 258.8499840000001 288 280.885008 288 288C288 300 294.385008 309.885008 304.250016 315.5L320.624992 325L320 352L320 352.385008C320 393.885008 323.5 431.5 328.5 458.385008zM261.5 352L288.124992 352L261.250016 351.385008zM416 320C398.385008 320 384 305.624992 384 288C384 280.385008 398.385008 256 416 256C433.624992 256 448 280.385008 448 288C448 305.624992 433.624992 320 416 320zM608 320C590.385008 320 586 305.624992 586 288C586 280.385008 590.385008 256 608 256C625.624992 256 640 280.385008 640 288C640 305.624992 625.624992 320 608 320z" />
    <glyph glyph-name="user-tie"
      unicode="&#xF508;"
      horiz-adv-x="1024" d="M512 868C388.624992 868 288 668.385008 288 544C288 468.885008 326.850016 400.5 385 360C253.624992 308.8499840000001 160 180.8499840000001 160 32L224 32C224 182.8499840000001 326.124992 290.385008 460 315L480 256L544 256L564 315C698.885008 290.385008 800 182.8499840000001 800 32L864 32C864 180.8499840000001 880.385008 308.8499840000001 639 360C698.250016 400.5 836 468.885008 836 544C836 668.385008 635.385008 868 512 868zM512 804C600.850016 804 682 632.849984 682 544C682 455.249984 600.850016 384 512 384C423.250016 384 352 455.249984 352 544C352 632.849984 423.250016 804 512 804zM480 224L448 32L586 32L544 224z" />
    <glyph glyph-name="snowplow"
      unicode="&#xF8D2;"
      horiz-adv-x="1024" d="M336 804C293.250016 804 255.850016 685.124992 244 634L202 489L138 510L118 450L165 434L156 425C138 408 128 383.5 128 358L128 288L102 288L98 262L65 102L58 64L968 64L959 102L928 262L922 288L896 288L896 358C896 383.5 886 408 868 425L859 434L906 450L886 510L822 489L880 634C868.250016 685.124992 830.850016 804 688 804zM336 640L688 640C802.385008 640 814 630.885008 818 618L858 480L268 480L306 618C310 630.885008 321.624992 640 336 640zM238 416L886 416L823 380C829 384 832 366.5 832 358L832 288L868 288L868 352L640 352L640 288L384 288L384 352L256 352L256 288L192 288L192 358C192 366.5 195 384 201 380zM154 224L880 224L889 128L135 128z" />
    <glyph glyph-name="alternate-share-square"
      unicode="&#xF1E1;"
      horiz-adv-x="1024" d="M160 836L160 32L864 32L864 836L160 836zM224 682L800 682L800 96L224 96L224 682zM640 586A64 64 0 0 1 586.249984 508L426.249984 432A64 64 0 0 1 384 448A64 64 0 0 1 384 320A64 64 0 0 1 426.249984 336L586.249984 261A64 64 0 0 1 640 192A64 64 0 0 1 640 320A64 64 0 0 1 598.850016 304L448.850016 389A64 64 0 0 1 448.850016 389L598.850016 464A64 64 0 0 1 640 448A64 64 0 0 1 640 586z" />
    <glyph glyph-name="align-right"
      unicode="&#xF038;"
      horiz-adv-x="1024" d="M96 682L96 608L928 608L928 682zM352 544L352 480L928 480L928 544zM96 416L96 352L928 352L928 416zM352 288L352 224L928 224L928 288zM96 160L96 96L928 96L928 160z" />
    <glyph glyph-name="thermometer-full"
      unicode="&#xF2C8;"
      horiz-adv-x="1024" d="M384 868L384 401C328 360.385008 288 298.385008 288 224C288 100.624992 388.624992 0 512 0C635.385008 0 836 100.624992 836 224C836 298.385008 696 360.385008 640 401L640 448L804 448L804 512L640 512L640 586L804 586L804 640L640 640L640 804L804 804L804 868zM448 804L586 804L586 381L592 362C639.885008 334.2499840000001 682 283.2499840000001 682 224C682 135.2499840000001 600.850016 64 512 64C423.250016 64 352 135.2499840000001 352 224C352 283.2499840000001 384.124992 334.2499840000001 432 362L448 381zM480 640L480 314C442.885008 300.8499840000001 416 265.624992 416 224C416 181 459 128 512 128C565 128 608 181 608 224C608 265.624992 581.124992 300.8499840000001 544 314L544 640z" />
    <glyph glyph-name="medical-file"
      unicode="&#xF488;"
      horiz-adv-x="1024" d="M192 800L192 -32L832 -32L832 588.8124992L822.385008 598.3850016L630.385008 890.3850016L620.812512 800L192 800zM256 836L586 836L586 544L868 544L868 32L256 32L256 836zM640 691.1885008L823.188488 608L640 608L640 691.1885008zM480 448L480 352L384 352L384 288L480 288L480 192L544 192L544 288L640 288L640 352L544 352L544 448L480 448z" />
    <glyph glyph-name="globe-with-europe-shown"
      unicode="&#xF8A2;"
      horiz-adv-x="1024" d="M512 800C282.624 800 96 613.386 96 384C96 154.624 282.624 -32 512 -32C841.386 -32 928 154.624 928 384C928 613.386 841.386 800 512 800zM512 836C589.296 836 642.026496 816.646 695.562496 683.85L688 665.6249984L825.624992 628L690.385008 592.8124992L640 640L586 640L512 560L544 489.624992L586 512L586 544L608 544L643.188488 515.188488L608 480L480 416L448 416L448 352L480 352L544 384L586 352L640 352L640 384L665.624992 422.385008L836 448L836 384L682 384L682 352L836 352L800 256L832 288L832 320L800 320L800 352L832 352L862.850016 358.624992C858.088984 293.280992 835.616 232.9389840000001 800 182.2499840000001L800 192L864.812512 192L688 320L608 288L512 320L416 288L384 192L416 128L480 128L512 160L544 128L544 33.624992C533.44 32.664992 522.816 32 512 32C318.92 32 160 189.92 160 384C160 413.664 164.1184992 442.323008 181.0624992 469.885008L188.8124992 480L224 480L224 585.85C229.344 593.3340000000001 234.8995008 600.864 240.6885008 608L269.4385008 608L283.4385008 651.1885008C303.5335008 668.4035008 325.508992 683.366 349.124992 695.85L320 608L384 608L448 682L448 804L416 804L384 682L384 811.5624992C423.8440000000001 828.1464992 466.816 836 512 836zM448 544L448 480L480 480L480 544L448 544z" />
    <glyph glyph-name="box-open"
      unicode="&#xF49E;"
      horiz-adv-x="1024" d="M512 868L352 640L682 640zM282 836L160 588L160 32L864 32L864 588L852 836L592 836L682 682L820 682L868 608L256 608L304 682L352 682L432 836zM224 544L800 544L800 96L224 96zM410 480C392.385008 488.385008 389.385008 462.624992 381 445C382.624992 428.385008 398.385008 414.385008 416 416L608 416C619.5 415.885008 630.250016 421.885008 636.124992 431.885008C641.885008 441.885008 641.885008 454.124992 636.124992 464.124992C630.250016 484.124992 619.5 480.124992 608 480L416 480C415 480 414 480 413 480C412 480 411 480 410 480z" />
    <glyph glyph-name="swimmer"
      unicode="&#xF5C4;"
      horiz-adv-x="1024" d="M852 544C690.5 544 640 493.5 640 432C640 380.5 690.5 320 852 320C813.5 320 864 380.5 864 432C864 493.5 813.5 544 852 544zM439 543C428.385008 542.249984 416.124992 538.385008 406 531L238 410L285 358L443 489L516 395L289 194C292 192.885008 305.885008 192 320 192C341.624992 192 362.385008 194.2499840000001 383 198L558 348L622 282C645.624992 288.124992 669.885008 283.385008 695 286L491 521C488.385008 536.885008 458.385008 544.249984 439 543zM852 480C888.885008 480 800 458.885008 800 432C800 405 888.885008 384 852 384C825 384 804 405 804 432C804 458.885008 825 480 852 480zM836 256C658 256 589.624992 229.885008 523 206C456.385008 182.124992 391.5 160 320 160C144.124992 160 54 248 54 248L10 201C10 201 122.124992 96 320 96C404.624992 96 488 121.885008 544 146C611 180.124992 682.5 192 836 192C863 192 981 103 981 103L1013 153C1013 153 892 256 836 256z" />
    <glyph glyph-name="digital-tachograph"
      unicode="&#xF566;"
      horiz-adv-x="1024" d="M128.5624992 682C92.8824992 682 64 643.1185008 64 608.4385008L64 160.562496C64 124.882496 92.8824992 96 128.5624992 96L863.438504 96C899.118504 96 928 124.882496 928 160.562496L928 608.4385008C928 643.1185008 899.118504 682 863.438504 682L128.5624992 682zM128 608L863.438504 608L864 608L864 160L128 160L128 608zM192 544L192 480L512 480L512 544L192 544zM192 416L192 352L256 352L256 416L192 416zM320 416L320 352L384 352L384 416L320 416zM448 416L448 352L512 352L512 416L448 416zM192 288L192 224L512 224L512 288L192 288zM586 288L586 224L800 224L800 288L586 288z" />
    <glyph glyph-name="alternate-exchange"
      unicode="&#xF362;"
      horiz-adv-x="1024" d="M810 823L665 888L802 640L128 640L128 586L802 586L665 439L810 393L925 608zM314 385L99 160L314 -55L359 -9L222 128L896 128L896 192L222 192L359 329z" />
    <glyph glyph-name="minus"
      unicode="&#xF068;"
      horiz-adv-x="1024" d="M160 416L160 352L864 352L864 416z" />
    <glyph glyph-name="hashtag"
      unicode="&#xF292;"
      horiz-adv-x="1024" d="M352 836L352 544L160 544L160 480L352 480L352 288L160 288L160 224L352 224L352 32L416 32L416 224L608 224L608 32L682 32L682 224L864 224L864 288L682 288L682 480L864 480L864 544L682 544L682 836L608 836L608 544L416 544L416 836zM416 480L608 480L608 288L416 288z" />
    <glyph glyph-name="ship"
      unicode="&#xF21A;"
      horiz-adv-x="1024" d="M480 800L480 836L352 836L352 640L224 640L224 451L198 445L198 444C139.250016 431.5 110.624992 364.624992 141 314L192 228L192 69C166.124992 86.249984 148 89 148 89L108 39C108 39 158.385008 0 225 0C281.850016 0 301.5 15.5 320 28C338.624992 15.624992 369.885008 0 418 0C463.850016 0 493.5 15.5 512 28C530.624992 15.624992 561.885008 0 609 0C655.850016 0 685.5 15.5 804 28C822.624992 15.624992 853.885008 0 801 0C868.624992 0 916 39 916 39L886 89C886 89 858.624992 85.124992 832 68L832 228L883 314C913.385008 364.624992 884.850016 431.5 828 444L800 450L800 640L682 640L682 836L544 836L544 800zM416 682L608 682L608 586L836 586L836 464L519 511L512 512L505 511L288 464L288 586L416 586zM512 446L813 382C829.850016 388.385008 838.885008 361.624992 829 348L883 253L868 246L868 69C842.124992 86.249984 824 89 824 89L804 105L684 89C684 89 651.885008 64 609 64C566.124992 64 532 89 532 89L512 105L492 89C492 89 459.885008 64 418 64C384.124992 64 340 89 340 89L320 105L300 89C300 89 282.624992 85.124992 256 68L256 246L251 253L195 348C186.124992 361.8499840000001 194.250016 388.385008 211 382zM352 384C332.850016 384 320 361.624992 320 336C320 310.385008 332.850016 288 352 288C381.250016 288 384 310.385008 384 336C384 361.624992 381.250016 384 352 384zM682 384C652.850016 384 640 361.624992 640 336C640 310.385008 652.850016 288 682 288C691.250016 288 804 310.385008 804 336C804 361.624992 691.250016 384 682 384z" />
    <glyph glyph-name="sort-alphabetical-up"
      unicode="&#xF15E;"
      horiz-adv-x="1024" d="M262.0624992 836L255.0624992 814.8850016L192.9385008 544L192 544L192 542.062496L161.9385008 458.885008L160 454.062496L160 416L224 416L224 442.885008L238.1249984 480L338.885008 480L352 442.885008L352 416L416 416L416 454.062496L414.062496 458.885008L384 542.062496L384 544L383.062496 544L320.938504 814.8850016L313.9385008 836L262.0624992 836zM836 820L812.938504 698.9385008L586 560L621.124992 514.885008L804 598.0624992L804 0L868 0L868 598.0624992L850.885008 514.885008L896 560L859.062496 698.9385008L836 820zM288 618.8850016L314.8850016 544L261.1249984 544L288 618.8850016zM160 352L160 288L338.938504 288L168.9385008 119.062496L160 109.124992L160 32L416 32L416 96L238.0624992 96L408.062496 264.938504L416 284.885008L416 352L160 352z" />
    <glyph glyph-name="bold"
      unicode="&#xF032;"
      horiz-adv-x="1024" d="M512 682C601.624992 682 682 601.624992 682 512C682 480.385008 656 435.249984 630.385008 406.385008C691.250016 384 836 326.385008 836 256C836 166.385008 665.624992 96 586 96L224 96L224 682L512 682M288 416L512 416C566.385008 416 608 458.624992 608 512C608 566.385008 566.385008 608 512 608L288 608L288 416M288 160L586 160C630.385008 160 682 201.624992 682 256C682 310.385008 630.385008 352 586 352L288 352L288 160M512 836L160 836L160 32L586 32C800.850016 32 800 131.2499840000001 800 256C800 323.2499840000001 868 388.249984 820 428.849984C829.624992 454.385008 836 483.249984 836 512C836 636.849984 636.850016 836 512 836zM352 544L512 544C531.250016 544 544 531.249984 544 512C544 492.849984 531.250016 480 512 480L352 480zM352 288L586 288C595.250016 288 608 285.2499840000001 608 256C608 236.8499840000001 595.250016 224 586 224L352 224z" />
    <glyph glyph-name="poop"
      unicode="&#xF619;"
      horiz-adv-x="1024" d="M686 868L623 848C563.385008 825.5 524.624992 802.249984 499 688C483.385008 653.849984 461.250016 628.124992 455 608C448.850016 586.885008 446.250016 585.124992 442 569C438.250016 563.624992 431.850016 558.124992 411 551C410.624992 551.249984 408.124992 552.885008 408 553L408 553C391 563.5 382.850016 580 355 583C301.850016 582 246 558.849984 215 509L214 508C195 485.849984 184.624992 434.885008 190 392C191.624992 389 194.885008 365.8499840000001 200 353C153.124992 350.2499840000001 109.124992 323.885008 84 281L83 281C44 212.124992 68.850016 123.2499840000001 138 84L138 84L138 83C141.624992 81.249984 184.250016 58.849984 248 39C311.850016 19.249984 401 0 512 0C623 0 812.124992 18.5 886 38C839.124992 58.385008 884.624992 86.385008 888 84C888.124992 84.124992 888.885008 84.885008 888 85C956.250016 124.624992 989.250016 211.885008 940 289L941 289C922.624992 311.5 893.885008 333.624992 861 344C861 344.124992 860 343.885008 860 344C849.885008 380.5 825.885008 411.849984 893 430C898.385008 444 800 460.249984 800 480C800 518.124992 886.850016 548.385008 869 581C851.250016 593.624992 829.885008 608.849984 812 623C694.124992 638.249984 689.850016 650.385008 682 663C664.250016 685.624992 660.385008 688.624992 665 812zM604 666C608 652.624992 611.5 639.624992 618 629C633.124992 604.385008 653.385008 588.849984 682 584C690.624992 559.249984 808 545.124992 819 531C830 516.885008 836 503.385008 836 480C836 464.624992 834.250016 455.249984 832 448C644.850016 460.849984 568.385008 482.849984 512 504C500.850016 508.249984 490.885008 512.849984 481 518C486.385008 521.849984 491.124992 528.385008 495 533C509.385008 553.885008 511.385008 584.124992 516 589C520.624992 603.885008 525.885008 615.849984 543 632C553.250016 641.849984 581.850016 654.385008 604 666zM330 513C344.124992 513.124992 358.624992 508.849984 382 500C389.624992 488.849984 428.385008 468.5 490 445C553.250016 421.249984 638.885008 396 838 383L838 383C860.250016 380.2499840000001 888.624992 368.124992 890 348C888.624992 345.885008 866.885008 342.885008 856 338C854.385008 338.2499840000001 852.624992 338.8499840000001 851 338C849.850016 336.624992 849.5 336.2499840000001 849 336C848 335.5 848 335.5 846 335C845.124992 334.624992 844.124992 333.5 843 333C840.250016 331.8499840000001 836.250016 330.124992 831 328C820.624992 323.624992 805.124992 318 685 312C644.850016 300.124992 586.250016 288 512 288C456.885008 288 409.850016 294.2499840000001 383 302C361.5 304.8499840000001 350.385008 308.8499840000001 340 311C319.124992 318.624992 299.850016 328.124992 300 328C269 348.885008 256.385008 383 253 400C249.624992 428 258.124992 455.849984 269 486C284 500.124992 306.5 512.849984 330 513zM201 290C216.250016 291.124992 232.250016 288.385008 248 289C248.250016 288.885008 248.850016 288.124992 248 288C249.850016 288 252 286 254 285C258 282.885008 262.624992 280.8499840000001 269 268C281.850016 262.5 299.385008 256.5 322 250C330 248.8499840000001 339.850016 245.2499840000001 349 243C352.385008 242.124992 355.5 240.885008 359 240C359.385008 239.885008 359.624992 240.124992 360 240C382.850016 236.8499840000001 385.385008 233.885008 398 232L398 233C431.385008 228.5 469.250016 224 512 224C593.124992 224 658.885008 238.624992 803 251C825.624992 258.8499840000001 843.850016 264.885008 856 280C860.5 281.885008 863 283.624992 866 285L869 285L880 286L886 289C815.850016 300.2499840000001 863.5 288.624992 886 248L886 248C908.885008 209.624992 895.250016 161.2499840000001 856 139L855 139L855 138C852.5 136.5 816.5 116.885008 858 99C699.5 81.124992 616 64 512 64C408 64 324.624992 80.885008 266 99C208.124992 118 189.124992 133.385008 168 139C168.5 139.2499840000001 168.385008 139.8499840000001 168 140C128.850016 162.624992 116.885008 209.885008 139 249C150.124992 268.624992 166.850016 281.5 186 288C190.885008 288.385008 195.885008 289.624992 201 290z" />
    <glyph glyph-name="spell-check"
      unicode="&#xF891;"
      horiz-adv-x="1024" d="M234.6249984 836L96 320L163.4385008 320L195.4385008 416L341.385008 416L383.385008 320L440.8125120000001 320L302.1249984 836L234.6249984 836zM480 836L480 586L480 512L480 320L682 320C842.592 320 800 388.408 800 448C800 501.800832 866.66256 548.589344 819.688488 566.562496C829.846986 583.4146624 836 602.9286224 836 624C836 685.86 685.86 836 624 836L480 836zM544 682L624 682C650.464 682 682 650.4639999999999 682 624C682 598.5360000000001 650.464 586 624 586L544 586L544 682zM268.4385008 634.8124992L320.062496 480L216.8124992 480L268.4385008 634.8124992zM544 512L624 512L682 512C808.296 512 836 483.296 836 448C836 412.804 808.296 384 682 384L544 384L544 512zM889.885008 328.124992L611.850016 60.385008L486.188488 181.2499840000001L441.8125120000001 135.188488L611.624992 -28.385008L934.124992 280.885008L889.885008 328.124992z" />
    <glyph glyph-name="angle-down"
      unicode="&#xF108;"
      horiz-adv-x="1024" d="M135 551L89 505L489 105L512 83L535 105L935 505L889 551L512 184z" />
    <glyph glyph-name="umbrella"
      unicode="&#xF0E9;"
      horiz-adv-x="1024" d="M480 868L480 802C288.624992 685.885008 136.124992 529 129 364C128.885008 360 128 356 128 352L192 352C192 354.5 194.885008 360.885008 209 369C223.124992 388.124992 246 384 282 384C298 384 320.885008 388.124992 335 369C349.124992 360.885008 352 354.5 352 352L416 352C416 352.385008 418.624992 360.385008 436 369C453.385008 388.624992 481 384 512 384C543 384 580.624992 388.624992 588 369C605.385008 360.385008 608 352.385008 608 352L682 352C682 354.5 684.885008 360.885008 689 369C803.124992 388.124992 826 384 852 384C888 384 800.885008 388.124992 815 369C829.124992 360.885008 832 354.5 832 352L896 352C896 356.124992 895.624992 360.124992 895 364C888.885008 529 836.385008 685.885008 544 802L544 868zM512 640C651.124992 640 880 545.5 814 439C895 444.885008 884.124992 448 852 448C816.124992 448 683.385008 440 658 425C650.624992 421.385008 644.624992 416.849984 639 412C632.124992 418.249984 624.624992 422.124992 618 426C588 440.5 551.624992 448 512 448C482.385008 448 436 440.5 408 426C399.5 422.249984 392.624992 418.124992 386 412C385.850016 412.124992 385.250016 411.885008 385 412C389.385008 416.849984 383.385008 421.385008 368 425C340.624992 440 308.885008 448 282 448C249.885008 448 229 444.885008 210 439C254 545.5 382.885008 640 512 640zM480 352L480 96C480 88.885008 466.124992 64 448 64C429.885008 64 416 88.885008 416 96L416 128L352 128L352 96C352 43.385008 395.385008 0 448 0C500.624992 0 544 43.385008 544 96L544 352z" />
    <glyph glyph-name="chevron-circle-right"
      unicode="&#xF138;"
      horiz-adv-x="1024" d="M512 800C282.624992 800 96 613.385008 96 384C96 154.624992 282.624992 -32 512 -32C841.385008 -32 928 154.624992 928 384C928 613.385008 841.385008 800 512 800zM512 836C806.850016 836 864 588.849984 864 384C864 189.2499840000001 806.850016 32 512 32C318.250016 32 160 189.2499840000001 160 384C160 588.849984 318.250016 836 512 836zM455 599L409 553L588 384L409 215L455 169L648 361L669 384L648 408z" />
    <glyph glyph-name="film"
      unicode="&#xF008;"
      horiz-adv-x="1024" d="M128 868L128 0L896 0L896 868zM192 804L256 804L256 682L320 682L320 804L804 804L804 682L868 682L868 804L832 804L832 64L868 64L868 96L804 96L804 64L320 64L320 96L256 96L256 64L192 64zM256 608L256 544L320 544L320 608zM804 608L804 544L868 544L868 608zM256 480L256 416L320 416L320 480zM804 480L804 416L868 416L868 480zM256 352L256 288L320 288L320 352zM804 352L804 288L868 288L868 352zM256 224L256 160L320 160L320 224zM804 224L804 160L868 160L868 224z" />
    <glyph glyph-name="user-friends"
      unicode="&#xF500;"
      horiz-adv-x="1024" d="M288 682C182.385008 682 96 585.624992 96 480C96 416.5 128.250016 360 185 325C90.624992 283.124992 32 196.385008 32 96L96 96C96 202.385008 181.624992 288 288 288C394.385008 288 480 202.385008 480 96L544 96C544 202.385008 629.624992 288 836 288C842.385008 288 928 202.385008 928 96L992 96C992 196.385008 933.385008 283.124992 849 325C896.850016 360 928 416.5 928 480C928 585.624992 841.624992 682 836 682C630.385008 682 544 585.624992 544 480C544 416.5 585.250016 360 623 325C586.385008 301.885008 538.250016 265.385008 512 220C486.850016 265.385008 448.624992 301.885008 401 325C448.850016 360 480 416.5 480 480C480 585.624992 393.624992 682 288 682zM288 608C359.124992 608 416 551.124992 416 480C416 408.885008 359.124992 352 288 352C216.885008 352 160 408.885008 160 480C160 551.124992 216.885008 608 288 608zM836 608C808.124992 608 864 551.124992 864 480C864 408.885008 808.124992 352 836 352C664.885008 352 608 408.885008 608 480C608 551.124992 664.885008 608 836 608z" />
    <glyph glyph-name="prescription-bottle"
      unicode="&#xF485;"
      horiz-adv-x="1024" d="M318.6885008 800C288.1915008 800 259.8580016 883.014 246.1249984 855.85L236.25 836L224 836C188.804 836 160 808.296 160 682L160 544L192 544L192 32C192 -3.296 220.804 -32 256 -32L868 -32C803.296 -32 832 -3.296 832 32L832 544L864 544L864 682C864 808.296 835.296 836 800 836L888.850016 836L888.885008 855.85C864.285008 883.014 836.840512 800 806.312512 800L318.6885008 800zM318.6885008 836L806.312512 836C812.424512 836 818.904992 832.6285008 820.624992 828.1885008L848.249984 682L800 682L800 608L224 608L224 682L285.85 682L303.3850016 828.1885008C306.0949984 832.6285008 311.5855008 836 318.6885008 836zM256 544L868 544L868 32L256 32L256 128L448 128L448 192L256 192L256 256L448 256L448 320L256 320L256 384L448 384L448 448L256 448L256 544z" />
    <glyph glyph-name="alternate-medical-file"
      unicode="&#xF488;"
      horiz-adv-x="1024" d="M192 800L192 448L235.85 448L256 498.562496L256 836L586 836L586 544L868 544L868 32L256 32L256 216.124992L254.3124992 218.812512L216.1885008 256L192 256L192 -32L832 -32L832 589L823 599L631 891L621 800L192 800zM640 690L822 608L640 608L640 690zM351 563.624992L286.25 388L269.25 384L64 384L64 320L242.85 320L299.6249984 263L353 396.385008L449 182.385008L515.249984 338L524.249984 320L584.624992 320C596.112992 300.256 618.152 288 640 288C685.36 288 804 316.64 804 352C804 388.36 685.36 416 640 416C618.12 416 595.984992 403.8440000000001 584.624992 384L563.850016 384L508.850016 494L448 339.624992L351 563.624992z" />
    <glyph glyph-name="angry-face"
      unicode="&#xF556;"
      horiz-adv-x="1024" d="M512 868C300.250016 868 128 595.849984 128 384C128 182.2499840000001 300.250016 0 512 0C823.850016 0 896 182.2499840000001 896 384C896 595.849984 823.850016 868 512 868zM512 804C689.124992 804 832 561.124992 832 384C832 206.885008 689.124992 64 512 64C334.885008 64 192 206.885008 192 384C192 561.124992 334.885008 804 512 804zM342 512C328.5 498.385008 320 489.849984 320 459C320 418.624992 353.624992 384 395 384C415.624992 384 434.5 392.385008 448 406zM682 512L586 406C589.5 392.385008 608.385008 384 629 384C680.385008 384 804 418.624992 804 459C804 489.624992 695.624992 498.5 682 512zM594 325C589.385008 324.885008 584.5 324.624992 580 324C544.124992 318.624992 518 299 493 283C469 268 448.885008 254.5 432 252C416.124992 249.5 401.885008 252 385 289L329 233C365.250016 196.5 406.5 183.385008 442 189C488.5 194.624992 504.124992 214.124992 528 230C551.885008 245.885008 582.385008 258.5 589 260C605.624992 262.5 622 260.385008 650 233L694 289C661.250016 311 626.385008 325.5 594 325z" />
    <glyph glyph-name="praying-hands"
      unicode="&#xF684;"
      horiz-adv-x="1024" d="M480 800C428.385008 800 384 856.624992 384 804L384.5 809.249984L353 520.124992L292.5 354.624992C291.385008 353.124992 290 352 288 352L256 352L256 384L96 384L96 -32L256 -32L256 64L381.624992 64C434.250016 64 481.624992 89.5 512 129.124992C542.385008 89.5 589.850016 64 642.385008 64L868 64L868 -32L928 -32L928 384L868 384L868 352L836 352C834 352 832.624992 353.124992 831.5 354.624992L681 520.124992L639.5 809.249984L640 804C640 856.624992 596.624992 800 544 800C533.124992 800 522 898.885008 512 892.849984C502 898.885008 490.885008 800 480 800zM488.885008 835.5C489.5 830.885008 480 820.385008 480 804L480 210C481.124992 162.5 430.250016 128 381.624992 128L256 128L256 288L288 288C313.124992 288 336.5 301.624992 348.885008 323.5L350.124992 325.885008L415 503.885008L448 801.385008L448 804C448 821.624992 461.5 834.885008 488.885008 835.5zM545.124992 835.5C562.5 834.885008 586 821.624992 586 804L586 801.385008L609 503.885008L683.885008 325.885008L685.124992 323.5C688.5 301.624992 810.885008 288 836 288L868 288L868 128L642.385008 128C593.850016 128 552.885008 162.5 544 210L544 804C544 820.385008 544.5 830.885008 545.124992 835.5zM160 320L192 320L192 32L160 32zM832 320L864 320L864 32L832 32z" />
    <glyph glyph-name="x-ray"
      unicode="&#xF498;"
      horiz-adv-x="1024" d="M160 836L160 32L864 32L864 836zM224 682L800 682L800 96L224 96zM480 640L480 608L384 608L384 544L480 544L480 512L320 512L320 448L480 448L480 416L352 416L352 352L480 352L480 280C463.250016 288.624992 444.385008 288 432 288C405.5 288 384 266.5 384 240C384 213.5 405.5 192 432 192C444.124992 192 485.5 160 512 160C538.5 160 589.885008 192 592 192C618.5 192 640 213.5 640 240C640 266.5 618.5 288 592 288C589.624992 288 560.850016 288.624992 544 280L544 640zM586 608L586 544L640 544L640 608zM586 512L586 448L804 448L804 512zM586 416L586 352L682 352L682 416z" />
    <glyph glyph-name="alternate-crop"
      unicode="&#xF565;"
      horiz-adv-x="1024" d="M256 868L256 640L128 640L128 586L256 586L256 128L804 128L804 0L868 0L868 128L896 128L896 192L804 192L366 192L320 192L320 238L320 586L320 868L256 868zM384 640L384 586L804 586L804 256L868 256L868 640L384 640z" />
    <glyph glyph-name="cocktail"
      unicode="&#xF561;"
      horiz-adv-x="1024" d="M282 868C184.885008 868 96 689.124992 96 592C96 494.885008 184.885008 416 282 416C298 416 322.5 422.5 345 433L512 213L512 32L384 32L384 -32L804 -32L804 32L586 32L586 213L858 585L864 594L864 640L440 640C420.624992 814.249984 351.5 868 282 868zM282 804C316.5 804 354.885008 688.124992 382 640L224 640L224 594L230 585L305 486C294 482.124992 282.850016 480 282 480C209.124992 480 160 529.124992 160 592C160 654.885008 209.124992 804 282 804zM318 586L880 586L822 512L432 512L480 448L683 448L544 288z" />
    <glyph glyph-name="window-restore"
      unicode="&#xF2D2;"
      horiz-adv-x="1024" d="M160 836L160 32L864 32L864 836zM224 682L800 682L800 96L224 96zM384 608L384 480L288 480L288 160L640 160L640 288L836 288L836 608zM448 544L682 544L682 512L448 512zM448 448L682 448L682 352L448 352zM352 416L384 416L384 383L352 383zM352 319L384 319L384 288L586 288L586 224L352 224z" />
    <glyph glyph-name="less-than"
      unicode="&#xF536;"
      horiz-adv-x="1024" d="M832 804L192 409L192 359L832 64L832 133L303 384L832 635z" />
    <glyph glyph-name="microphone-slash"
      unicode="&#xF131;"
      horiz-adv-x="1024" d="M119 823L83 888L905 -55L951 -9L850 192C880.850016 226 800 280.624992 800 320L800 448L836 448L836 320C836 288.2499840000001 824.385008 259.2499840000001 805 238L660 282C668.624992 292.5 682 306 682 320L682 804C682 839.249984 643.250016 868 608 868L416 868C380.850016 868 352 839.249984 352 804L352 590zM416 804L608 804L608 334L416 526zM224 448L224 320C224 214.124992 310.124992 128 416 128L480 128L480 64L352 64L352 0L682 0L682 64L544 64L544 128L608 128C616.124992 128 624.124992 129 632 130L580 192L416 192C345.385008 192 288 249.385008 288 320L288 448zM352 410L352 320C352 284.8499840000001 380.850016 256 416 256L506 256L442 320L416 320L416 346z" />
    <glyph glyph-name="brain"
      unicode="&#xF5DC;"
      horiz-adv-x="1024" d="M416 868C354.885008 868 305.385008 823.624992 293 666C218.385008 652.624992 160 590.385008 160 512C160 504.124992 160.885008 498.124992 162 490C141.385008 459.624992 128 423.885008 128 384C128 326.5 156.624992 288.124992 198 243C194.124992 231.624992 192 220.2499840000001 192 208C192 128.885008 256.885008 64 336 64C336.885008 64 338.250016 64 338 64C356.624992 28.885008 388.885008 0 432 0C463.250016 0 491.624992 13.124992 512 34C532.385008 13.124992 560.850016 0 592 0C635.124992 0 668.385008 28.885008 686 64C686.850016 64 688.124992 64 688 64C863.124992 64 824.850016 122.5 831 196L832 196C832 198 831.124992 200 831 202C831.124992 204 832 206 832 208C832 219.885008 828.850016 230 825 241C866.5 286.2499840000001 896 325.5 896 384C896 423.885008 882.624992 459.624992 862 490C863.124992 498.124992 864 504.124992 864 512C864 590.385008 805.624992 652.624992 831 666C818.624992 823.624992 669.124992 868 608 868C569.624992 868 535.5 850.124992 512 823C488.5 850.124992 454.385008 868 416 868zM416 804C451.850016 804 480 685.849984 480 640L480 586C480 522.624992 438.385008 480 384 480L384 416C420.250016 416 453.124992 428.5 480 449L480 112C480 85.124992 458.885008 64 432 64C408.124992 64 389 80.5 385 103L389 134L348 129C342.385008 128.124992 338.885008 128 336 128C291.5 128 256 163.5 256 208C256 218.885008 258.624992 228.124992 261 236C261.250016 236.8499840000001 261.850016 238.2499840000001 262 238C281.885008 262.624992 293.385008 280.624992 320 286L308 349C283.624992 342.2499840000001 244.624992 324.5 224 299C203.885008 321.5 192 351.2499840000001 192 384C192 414 202.250016 440.849984 220 463L230 485L228 491C225.250016 498.5 224 505.124992 224 512C224 565.385008 266.624992 608 320 608L352 608L352 640C352 685.849984 380.250016 804 416 804zM608 804C643.850016 804 682 685.849984 682 640L682 608L804 608C858.385008 608 800 565.385008 800 512C800 505.124992 898.850016 498.5 898 491L894 485L804 463C821.850016 440.849984 832 414 832 384C832 345.624992 815.624992 311.385008 889 288C868.124992 308.385008 839.250016 320 808 320C688.850016 320 650.5 309.2499840000001 629 291L680 242C680.385008 250.8499840000001 693.124992 256 808 256C838.885008 256 863.5 232.885008 868 203C864.385008 160.885008 830.850016 128 688 128C685.124992 128 681.624992 128.124992 686 129L645 134L639 103C635 80.5 615.885008 64 592 64C565.124992 64 544 85.124992 544 112L544 449C580.885008 428.5 603.850016 416 640 416L640 480C586.624992 480 544 522.624992 544 586L544 640C544 685.849984 582.250016 804 608 804z" />
    <glyph glyph-name="star"
      unicode="&#xF005;"
      horiz-adv-x="1024" d="M980.850016 494.5L645.250016 528.885008L512 828.849984L388.850016 528.885008L53.250016 494.5L296.385008 285.385008L228.5 -44.850016L512 118.8499840000001L895.5 -44.850016L828.624992 285.385008z" />
    <glyph glyph-name="at"
      unicode="&#xF1FA;"
      horiz-adv-x="1024" d="M518 868C282.385008 881.5 93.250016 560.5 133 319C160 155.124992 294.5 26.249984 459 4C569.885008 -11 683.5 21 852 84L812 134C646.5 81.5 560.385008 54.385008 468 68C330.885008 85.385008 219.250016 193.5 198 329C163.5 532.885008 319.850016 806.885008 518 804C685.124992 801.5 826.885008 562.124992 832 394C832.124992 390.385008 832 386.885008 832 383C831.850016 312.5 884.624992 256 804 256C668.250016 256 640 284.2499840000001 640 320L640 586L586 586L586 551C553 566.624992 525.624992 586 496 586C416.885008 586 352 511.124992 352 432L352 336C352 256.885008 416.885008 192 496 192C539.124992 192 588.5 211.624992 604 242C628.5 212.124992 663.385008 192 804 192C809.124992 192 895.624992 288.8499840000001 896 383C896 388.249984 896.124992 391.385008 896 396C889.885008 598.849984 820.850016 865 518 868zM496 512C540.5 512 586 486.5 586 432L586 336C586 291.5 540.5 256 496 256C451.5 256 416 291.5 416 336L416 432C416 486.5 451.5 512 496 512z" />
    <glyph glyph-name="battery-1-4-full"
      unicode="&#xF243;"
      horiz-adv-x="1024" d="M96 640L96 128L864 128L864 288L928 288L928 480L864 480L864 640zM160 586L800 586L800 192L160 192zM224 512L224 256L352 256L352 512z" />
    <glyph glyph-name="address-card"
      unicode="&#xF2BB;"
      horiz-adv-x="1024" d="M96 804L96 64L928 64L928 804zM160 640L864 640L864 128L855 128C852.5 132.385008 853.624992 138.385008 850 142C838.885008 154.124992 820.850016 160 804 160C688.250016 160 680.124992 154.124992 658 142C654.385008 138.385008 655.5 132.385008 653 128L381 128C368.5 132.385008 369.624992 138.385008 366 142C353.885008 154.124992 336.850016 160 320 160C303.250016 160 286.124992 154.124992 284 142C280.385008 138.385008 281.5 132.385008 269 128L160 128zM384 586C313.624992 586 256 518.385008 256 448C256 412.385008 281.250016 380.2499840000001 295 358C252.385008 328.124992 224 288.885008 224 224L288 224C288 288 331 320 384 320C438 320 480 288 480 224L544 224C544 288.885008 515.624992 328.124992 483 358C496.850016 380.2499840000001 512 412.385008 512 448C512 518.385008 454.385008 586 384 586zM384 512C419.850016 512 448 483.849984 448 448C448 412.249984 419.850016 384 384 384C348.250016 384 320 412.249984 320 448C320 483.849984 348.250016 512 384 512zM608 480L608 416L800 416L800 480zM608 352L608 288L800 288L800 352z" />
    <glyph glyph-name="comment"
      unicode="&#xF085;"
      horiz-adv-x="1024" d="M96 804L96 64L402.850016 64L512 -45.250016L621.250016 64L928 64L928 804zM160 640L864 640L864 128L594.850016 128L512 45.249984L429.250016 128L160 128zM288 544L288 480L836 480L836 544zM288 416L288 352L836 352L836 416zM288 288L288 224L608 224L608 288z" />
    <glyph glyph-name="object-ungroup"
      unicode="&#xF248;"
      horiz-adv-x="1024" d="M160 836L160 608L192 608L192 288L160 288L160 160L288 160L288 192L352 192L352 128L320 128L320 0L448 0L448 32L868 32L868 0L896 0L896 128L864 128L864 448L896 448L896 586L868 586L868 544L804 544L804 608L836 608L836 836L608 836L608 804L288 804L288 836zM288 640L608 640L608 608L640 608L640 288L608 288L608 256L288 256L288 288L256 288L256 608L288 608zM804 480L868 480L868 448L800 448L800 128L868 128L868 96L448 96L448 128L416 128L416 192L608 192L608 160L836 160L836 288L804 288z" />
    <glyph glyph-name="alternate-sort-alphabetical-up"
      unicode="&#xF882;"
      horiz-adv-x="1024" d="M160 836L160 682L338.938504 682L168.9385008 503.062496L160 493.124992L160 416L416 416L416 480L238.0624992 480L408.062496 648.9385008L416 658.8850016L416 836L160 836zM836 820L812.938504 698.9385008L586 560L621.124992 514.885008L804 598.0624992L804 0L868 0L868 598.0624992L850.885008 514.885008L896 560L859.062496 698.9385008L836 820zM262.0624992 352L255.0624992 330.885008L192.9385008 160L192 160L192 158.062496L161.9385008 84.885008L160 80.062496L160 32L224 32L224 58.885008L238.1249984 96L338.885008 96L352 58.885008L352 32L416 32L416 80.062496L414.062496 84.885008L384 158.062496L384 160L383.062496 160L320.938504 330.885008L313.9385008 352L262.0624992 352zM288 234.885008L314.8850016 160L261.1249984 160L288 234.885008z" />
    <glyph glyph-name="filter"
      unicode="&#xF0B0;"
      horiz-adv-x="1024" d="M160 868L160 693L168 684L416 383L416 0L468 38L595 134L608 144L608 383L858 684L864 693L864 868zM233 804L891 804L561 416L463 416zM480 352L544 352L544 186L480 128z" />
    </font>
</defs>
</svg>
